<?xml version="1.0" standalone="no"?>
<!DOCTYPE svg PUBLIC "-//W3C//DTD SVG 20010904//EN"
 "http://www.w3.org/TR/2001/REC-SVG-20010904/DTD/svg10.dtd">
<svg version="1.0" xmlns="http://www.w3.org/2000/svg"
 width="400.000000pt" height="400.000000pt" viewBox="0 0 400.000000 400.000000"
 preserveAspectRatio="xMidYMid meet">
<metadata>
Created by potrace 1.11, written by Peter Selinger 2001-2013
</metadata>
<g transform="translate(0.000000,400.000000) scale(0.100000,-0.100000)"
fill="#000000" stroke="none">
<path d="M0 3259 c0 -666 2 -741 16 -735 8 3 13 2 10 -3 -3 -5 19 -7 50 -6 30
2 74 -3 98 -10 44 -13 80 -10 140 14 24 10 36 8 70 -9 23 -11 53 -20 67 -20
35 0 90 7 95 13 3 3 25 -4 50 -14 32 -15 55 -18 86 -13 66 10 89 8 137 -10 36
-14 50 -15 73 -5 15 6 29 17 29 23 1 6 3 22 5 36 2 14 6 97 9 185 3 88 7 171
9 185 19 107 18 125 -3 149 -22 25 -27 41 -13 41 10 0 35 58 29 67 -13 22 45
63 87 63 22 0 26 5 26 29 0 44 16 78 54 117 19 20 43 52 53 72 20 39 25 42 85
47 20 2 61 11 90 20 44 14 61 15 96 6 45 -13 97 -58 122 -107 52 -101 75 -55
29 58 -10 26 -19 60 -19 77 0 18 -9 40 -20 51 -18 18 -30 19 -130 16 -140 -5
-146 1 -95 100 20 38 35 82 35 100 0 25 10 45 36 74 20 22 32 40 28 41 -50 4
-95 40 -89 70 3 17 -3 19 -63 19 l-67 0 -80 -172 c-76 -164 -82 -174 -127
-201 -38 -24 -59 -29 -120 -32 -41 -2 -81 1 -89 6 -8 5 -10 9 -5 9 5 0 -8 11
-28 25 -20 14 -43 25 -51 25 -8 0 -15 4 -15 9 0 18 -85 91 -117 102 -27 8 -33
16 -33 38 0 16 8 39 18 52 10 13 32 50 50 81 l31 57 -72 -4 c-83 -3 -121 -11
-125 -25 -2 -6 -8 -8 -13 -4 -5 3 -9 -6 -9 -20 0 -17 -13 -35 -42 -58 -39 -31
-47 -33 -116 -33 -85 0 -104 14 -102 75 4 74 8 70 -85 70 l-85 0 0 -741z m754
344 c9 -23 -8 -37 -24 -18 -7 8 -19 15 -26 15 -8 0 -13 9 -12 23 2 22 4 23 29
10 15 -7 30 -21 33 -30z m-401 -430 c15 -13 18 -14 12 -3 -8 13 -7 13 8 1 27
-22 20 -38 -23 -49 -22 -5 -37 -6 -34 -1 3 5 1 9 -5 9 -5 0 -5 12 2 30 13 35
14 35 40 13z m-255 -32 c10 -6 10 -10 -2 -21 -9 -7 -13 -16 -10 -21 3 -5 -6
-5 -19 0 -14 6 -27 9 -29 8 -2 -1 3 4 11 11 8 6 11 12 5 12 -5 0 -2 5 6 10 18
12 21 12 38 1z m157 -31 c-3 -5 -14 -10 -23 -9 -14 0 -13 2 3 9 27 11 27 11
20 0z m595 -60 c0 -6 6 -10 13 -8 13 3 17 -3 17 -23 0 -8 -6 -7 -17 2 -13 11
-17 11 -20 2 -8 -22 -23 -14 -19 10 3 12 5 23 5 25 3 7 21 0 21 -8z"/>
<path d="M1500 3991 c0 -30 12 -39 40 -30 16 6 31 17 34 25 4 11 -4 14 -34 14
-22 0 -40 -4 -40 -9z"/>
<path d="M1623 3993 c9 -2 25 -2 35 0 9 3 1 5 -18 5 -19 0 -27 -2 -17 -5z"/>
<path d="M1660 3962 c0 -12 19 -26 26 -19 2 2 -2 10 -11 17 -9 8 -15 8 -15 2z"/>
<path d="M2300 3460 c0 -5 5 -10 10 -10 6 0 10 5 10 10 0 6 -4 10 -10 10 -5 0
-10 -4 -10 -10z"/>
<path d="M2896 3358 c-10 -85 -18 -118 -27 -118 -16 0 -10 -28 9 -42 10 -7 17
-23 16 -35 -1 -13 2 -23 6 -23 4 0 4 -17 -1 -37 -15 -61 -19 -114 -8 -107 6 3
9 -9 7 -31 -2 -31 2 -41 24 -57 22 -18 41 -21 119 -20 51 1 97 -2 103 -5 6 -4
26 -8 46 -10 19 -1 82 -8 140 -14 125 -13 176 -10 172 11 -2 8 -3 26 -3 40 1
14 1 34 1 45 -1 11 -2 44 -3 72 -2 44 2 55 21 68 27 20 28 44 2 90 -11 20 -20
46 -20 58 -1 49 -24 62 -130 73 -30 3 -70 13 -88 21 -65 29 -111 -2 -82 -57 7
-13 6 -19 -5 -24 -17 -6 -45 19 -45 40 0 8 -7 14 -15 14 -8 0 -15 5 -15 10 0
6 7 10 15 10 8 0 15 5 15 10 0 6 -9 10 -19 10 -11 0 -23 5 -27 11 -4 6 -19 9
-36 5 -19 -4 -45 1 -73 14 -24 11 -55 20 -68 20 -22 0 -26 -6 -31 -42z"/>
<path d="M1900 3359 c0 -18 -2 -19 -15 -9 -12 10 -15 9 -15 -6 -1 -18 -1 -18
-11 -1 -13 21 -24 21 -74 -3 -22 -11 -54 -19 -70 -20 -34 0 -55 -15 -55 -39 0
-10 -10 -17 -25 -17 -32 -2 -113 -56 -107 -72 2 -7 -5 -12 -17 -12 -21 0 -21
1 -5 25 9 14 14 28 11 31 -11 11 -25 -6 -32 -38 -4 -17 -18 -43 -31 -57 -23
-25 -34 -58 -15 -46 6 3 8 -6 5 -20 -3 -18 -1 -23 10 -19 8 3 17 1 21 -5 4 -7
-8 -12 -32 -12 -21 -1 -46 -2 -55 -3 -10 -1 -25 -12 -34 -25 -11 -15 -19 -19
-23 -12 -5 7 -12 2 -21 -14 -15 -29 -25 -32 -34 -9 -3 8 -10 13 -14 10 -5 -3
-35 2 -67 10 -61 16 -76 12 -82 -26 -4 -27 31 -47 91 -54 26 -2 50 -7 52 -9 4
-4 -47 -152 -63 -182 -11 -21 -42 -126 -62 -210 -6 -27 -12 -138 -14 -245 l-2
-195 29 -65 c16 -36 38 -92 49 -125 11 -33 22 -61 23 -63 5 -7 49 22 62 40 7
10 22 18 34 18 17 0 19 4 13 23 -4 12 -9 65 -10 117 -2 52 -6 108 -10 124 -8
36 9 56 49 56 27 0 36 -7 56 -40 51 -83 83 -121 119 -140 55 -28 97 -63 95
-80 -3 -38 -5 -42 -19 -36 -8 3 -15 1 -15 -4 0 -5 -12 -13 -27 -16 -36 -9 -80
-50 -78 -72 0 -10 10 -36 21 -58 12 -21 26 -56 33 -76 12 -36 20 -42 47 -39 7
1 15 -6 18 -15 5 -14 4 -15 -9 -4 -9 8 -15 8 -15 2 0 -6 9 -14 20 -17 11 -3
20 -12 20 -18 0 -7 11 -24 24 -39 14 -14 22 -29 19 -32 -4 -3 -1 -6 5 -6 7 0
12 -8 12 -17 0 -10 12 -29 27 -43 15 -14 23 -19 19 -11 -7 10 -3 12 13 6 23
-7 28 4 9 23 -9 9 -10 15 -2 20 6 4 17 18 24 32 l13 25 -22 -20 -23 -20 14 30
c14 33 38 56 50 49 4 -3 29 -7 55 -10 27 -3 64 -11 84 -19 22 -8 41 -10 50 -5
7 5 29 7 47 4 22 -4 32 -2 28 5 -5 7 16 10 59 10 47 -1 76 5 104 20 22 11 57
25 80 31 22 6 46 16 53 23 34 33 80 57 76 40 -1 -5 4 -21 11 -38 7 -16 10 -43
7 -58 -3 -16 0 -34 6 -41 10 -10 16 -8 34 13 28 34 57 91 50 99 -3 3 1 14 11
24 9 10 13 18 9 18 -4 0 5 12 19 26 17 17 25 34 22 45 -3 11 -1 16 5 13 5 -3
8 2 6 12 -2 11 2 18 7 17 6 0 11 19 12 44 2 39 -2 50 -26 72 -16 14 -36 38
-45 53 -13 20 -24 25 -44 23 -30 -4 -92 14 -92 27 0 4 4 8 9 8 19 0 128 102
148 138 12 20 31 70 43 110 12 39 26 72 31 72 15 0 29 -47 29 -98 1 -26 7 -63
13 -82 7 -19 10 -46 6 -60 -15 -54 -11 -64 38 -87 26 -12 51 -19 55 -17 4 3 8
56 8 117 0 62 5 146 11 187 11 71 10 80 -15 152 -29 85 -32 108 -14 126 9 9 9
15 1 23 -8 8 -13 7 -18 -2 -5 -8 -4 -10 3 -5 7 4 12 3 12 -3 0 -5 -4 -12 -9
-15 -5 -4 -17 15 -27 41 -10 27 -21 53 -25 58 -4 6 -10 27 -14 48 -4 20 -11
37 -17 37 -5 0 -6 5 -2 11 4 7 1 10 -7 7 -8 -3 -13 -14 -13 -26 1 -12 -3 -19
-7 -16 -5 3 -7 9 -5 13 3 4 -3 21 -13 37 -10 16 -20 45 -24 64 -6 32 -6 33 6
12 7 -12 16 -20 20 -16 8 9 -21 64 -34 64 -5 0 -9 6 -7 13 5 24 -21 55 -41 50
-21 -5 -32 7 -36 43 -2 25 -109 134 -131 134 -5 0 -20 9 -32 21 -13 11 -39 27
-60 36 -20 8 -49 24 -64 34 -14 11 -34 19 -45 19 -37 1 -101 38 -105 61 -4 30
-57 39 -64 12 -8 -28 -43 -26 -54 3 -8 19 -17 24 -45 24 -29 0 -35 -4 -35 -21z
m167 -466 c2 -6 13 -9 23 -6 12 3 22 -1 26 -11 3 -9 12 -16 19 -16 7 0 29 -18
48 -41 94 -107 278 -191 316 -145 10 11 9 16 -5 24 -9 5 -15 15 -12 23 7 21
96 -81 124 -142 13 -28 24 -53 24 -55 0 -2 -14 -4 -31 -4 -16 0 -28 4 -25 9 7
11 -17 21 -50 21 -17 0 -22 4 -17 16 5 12 2 15 -13 10 -10 -3 -59 -8 -109 -11
-123 -8 -147 -12 -155 -26 -5 -6 -15 -9 -23 -6 -9 3 -18 -1 -21 -10 -4 -8 -13
-13 -20 -10 -8 3 -17 -1 -20 -9 -3 -8 -12 -14 -21 -14 -8 0 -15 -4 -15 -9 0
-5 -8 -8 -17 -6 -10 1 -25 -4 -34 -11 -26 -23 -160 -19 -247 6 -85 26 -297 -8
-349 -56 -14 -13 -42 -26 -62 -29 -20 -4 -47 -11 -60 -16 -22 -9 -23 -8 -11 6
8 9 15 42 16 73 2 99 14 145 50 194 18 26 36 58 40 72 3 13 12 27 20 30 10 4
13 1 8 -7 -4 -6 7 3 24 21 54 56 62 41 25 -48 -20 -49 -41 -69 -80 -76 l-35
-7 26 -24 c14 -13 26 -30 26 -38 0 -19 5 -19 35 1 13 9 29 13 35 9 9 -5 55 19
160 84 14 8 28 15 32 13 4 -1 10 7 13 18 4 11 10 18 15 15 5 -3 13 3 19 12 6
10 11 14 11 10 0 -5 7 -1 16 7 8 9 12 20 9 26 -3 5 1 10 9 10 9 0 16 6 16 14
0 8 14 23 30 33 17 9 30 23 30 30 0 7 9 13 20 13 11 0 20 5 20 10 0 6 9 10 20
10 11 0 20 4 20 9 0 20 101 24 107 4z m-682 -83 c-28 -12 -47 -12 -40 0 3 6
18 10 33 9 24 0 25 -1 7 -9z m1065 -19 c0 -5 7 -12 16 -15 14 -5 15 -4 4 9
-17 21 -10 19 42 -10 24 -13 58 -25 76 -27 18 -1 32 -6 32 -11 0 -4 -16 -5
-36 -1 -28 5 -35 4 -29 -6 6 -9 1 -10 -16 -5 -49 15 -129 75 -100 75 6 0 11
-4 11 -9z m279 -330 c-2 -34 -2 -34 -6 -6 -3 17 -10 36 -15 43 -8 9 -7 11 6 6
11 -4 16 -17 15 -43z m-189 14 c11 -13 8 -13 -21 -3 -44 15 -48 18 -17 18 14
0 31 -7 38 -15z m-1055 -115 c-10 -11 -23 -20 -28 -20 -6 0 -2 9 8 20 10 11
23 20 28 20 6 0 2 -9 -8 -20z m590 -78 c41 -56 107 -161 121 -194 7 -14 22
-31 33 -38 14 -7 21 -21 21 -40 0 -27 -3 -30 -30 -30 -16 0 -48 7 -70 16 -26
11 -53 14 -78 10 -20 -4 -53 -8 -72 -11 -20 -2 -56 -15 -80 -29 -25 -14 -51
-26 -57 -26 -18 0 -16 41 3 68 8 12 16 32 17 45 3 27 50 156 78 213 19 39 52
66 74 60 6 -1 24 -21 40 -44z m-690 28 c-3 -5 -15 -10 -26 -10 -11 0 -17 5
-14 10 3 6 15 10 26 10 11 0 17 -4 14 -10z m1205 -66 c-15 -45 -70 -108 -108
-123 -48 -19 -145 -30 -172 -18 -14 6 -31 9 -38 8 -22 -4 -82 48 -82 71 0 18
2 19 17 7 14 -12 16 -12 8 0 -5 10 2 8 21 -5 31 -22 48 -24 61 -10 4 5 3 7 -3
3 -6 -3 -11 0 -11 8 0 11 4 12 14 4 7 -6 20 -9 28 -5 8 3 15 0 15 -6 0 -7 5
-6 15 2 9 7 28 14 44 15 16 1 38 12 50 24 11 11 31 21 44 21 20 0 101 60 81
60 -5 0 -2 5 6 10 21 13 25 -19 10 -66z m-1114 -91 c-5 -13 3 -16 39 -14 11 1
48 -7 82 -18 34 -11 71 -18 82 -16 12 2 23 -1 27 -6 4 -6 10 -6 19 1 7 6 22
13 34 15 16 3 21 -1 21 -18 0 -13 3 -17 8 -11 9 13 62 25 62 13 0 -17 -67 -58
-113 -70 -27 -6 -78 -9 -116 -7 -77 6 -118 28 -140 75 -7 15 -17 36 -22 45
-12 23 -12 25 6 25 9 0 14 -6 11 -14z m826 -264 c3 -9 20 -23 37 -30 17 -8 31
-17 31 -21 0 -5 7 -8 15 -8 26 0 16 -28 -12 -34 -65 -12 -201 -17 -208 -6 -3
5 -11 8 -16 5 -5 -4 -9 -2 -9 3 0 5 11 14 25 20 14 7 28 19 31 27 4 8 17 15
31 15 18 0 24 4 19 15 -3 8 -2 14 2 14 19 -3 25 2 12 11 -12 8 -9 10 10 8 14
-2 28 -10 32 -19z m-377 -96 c16 -16 16 -18 -5 -35 -12 -10 -35 -19 -51 -20
-16 -1 -42 -2 -57 -3 -17 -1 -29 3 -29 11 0 7 7 10 15 6 9 -3 13 -1 9 5 -9 14
51 53 80 53 12 0 29 -8 38 -17z m322 -85 c10 -14 10 -19 -1 -65 -4 -18 -12
-35 -17 -38 -5 -4 -6 1 -3 9 3 9 2 16 -4 16 -6 0 -17 3 -26 6 -11 4 -16 1 -16
-11 0 -14 -6 -16 -37 -10 -21 4 -39 11 -41 16 -4 11 -32 12 -32 1 0 -5 -17
-14 -37 -20 -43 -13 -57 -2 -47 38 7 29 4 26 31 34 16 5 28 1 44 -15 16 -16
24 -19 27 -10 6 18 44 51 58 51 7 0 19 -9 27 -20 14 -20 14 -20 31 5 18 28 29
31 43 13z m53 -5 c0 -10 -5 -25 -11 -33 -9 -13 -10 -13 -6 2 3 9 1 18 -5 20
-13 5 -2 28 13 28 5 0 9 -8 9 -17z m-346 -45 c7 -12 6 -21 -3 -32 -19 -23 -38
-10 -33 25 5 31 19 34 36 7z"/>
<path d="M2280 1870 c0 -5 5 -10 11 -10 5 0 7 5 4 10 -3 6 -8 10 -11 10 -2 0
-4 -4 -4 -10z"/>
<path d="M2150 3339 c0 -5 11 -15 25 -21 14 -6 25 -15 25 -20 0 -4 5 -8 10 -8
28 0 -6 48 -37 55 -13 2 -23 0 -23 -6z"/>
<path d="M2366 3326 c-3 -14 -4 -30 -1 -38 7 -17 66 -54 85 -52 8 0 23 2 33 2
9 1 17 6 17 12 0 5 -13 8 -30 6 -20 -2 -30 1 -30 10 0 8 -5 14 -11 14 -5 0 -8
4 -5 8 5 8 -36 62 -47 62 -2 0 -8 -11 -11 -24z"/>
<path d="M2285 3280 c3 -5 11 -10 16 -10 6 0 7 5 4 10 -3 6 -11 10 -16 10 -6
0 -7 -4 -4 -10z"/>
<path d="M2372 3220 c20 -27 38 -39 38 -25 0 15 -34 55 -46 55 -11 0 -9 -8 8
-30z"/>
<path d="M3967 3211 c2 -2 -6 -10 -17 -18 -11 -8 -20 -20 -20 -28 0 -19 -61
-29 -102 -17 -18 6 -59 11 -92 11 -32 0 -64 5 -72 12 -9 7 -14 8 -14 1 0 -6
-7 -12 -15 -14 -10 -2 -12 -7 -5 -18 5 -9 28 -15 62 -17 29 -1 79 -8 110 -14
50 -11 60 -10 84 6 27 18 28 18 43 -5 28 -41 37 -82 31 -134 -4 -28 -4 -80 -1
-116 5 -51 10 -66 24 -68 16 -3 17 12 17 204 0 114 -3 204 -7 201 -3 -4 -11
-1 -17 6 -6 7 -10 10 -9 8z"/>
<path d="M1432 3178 c-14 -19 -25 -58 -15 -58 4 0 18 16 31 35 16 26 18 35 8
35 -7 0 -18 -6 -24 -12z"/>
<path d="M1356 3094 c-9 -24 -8 -26 14 -19 16 5 20 2 21 -17 0 -13 3 -17 6
-10 2 6 11 12 19 12 23 0 16 17 -11 24 -14 4 -25 11 -25 16 0 16 -17 12 -24
-6z"/>
<path d="M2905 2611 c-11 -5 -25 -6 -31 -4 -7 2 -14 1 -17 -4 -3 -5 2 -9 11
-9 9 0 32 -4 50 -8 28 -7 32 -5 32 13 0 22 -12 25 -45 12z"/>
<path d="M2972 2610 c6 -19 38 -26 38 -9 0 7 -3 9 -7 6 -3 -4 -13 -1 -21 6
-13 10 -14 9 -10 -3z"/>
<path d="M3045 2599 c-4 -5 -11 -7 -16 -4 -5 4 -9 2 -9 -4 0 -5 13 -8 30 -6
16 2 32 -1 35 -6 7 -10 55 -8 55 3 0 4 -4 10 -10 13 -5 3 -10 1 -10 -6 0 -9
-3 -9 -14 0 -19 16 -54 22 -61 10z"/>
<path d="M13 2493 c-10 -4 -13 -77 -13 -322 l0 -317 35 0 c19 0 35 3 35 7 0 3
18 1 40 -4 22 -6 40 -14 40 -17 0 -4 28 -3 62 1 41 5 66 13 75 25 13 18 15 18
83 -21 33 -19 97 -19 134 0 26 14 32 14 52 0 32 -21 116 -26 149 -9 25 13 30
12 59 -9 17 -12 32 -21 34 -19 1 1 4 2 7 1 3 -1 16 -1 30 -1 46 0 53 2 69 18
14 13 16 34 11 122 -2 59 -6 121 -9 137 -2 17 -2 34 1 39 8 12 15 205 9 230
-7 29 -37 61 -57 61 -24 0 -66 -32 -85 -65 -23 -37 -33 -38 -40 -2 -6 31 -30
61 -61 79 -19 11 -26 8 -57 -21 -32 -32 -56 -86 -56 -128 0 -24 -16 -23 -23 2
-3 11 -1 18 4 14 12 -7 11 -2 -6 40 -8 20 -15 38 -15 41 0 3 0 8 0 13 0 4 -10
18 -23 32 -40 45 -94 32 -128 -31 -7 -13 -13 -74 -15 -143 -5 -185 -18 -296
-33 -296 -11 0 -10 33 2 48 6 8 6 12 -1 12 -5 0 -13 21 -16 48 -10 65 -25 112
-38 112 -6 0 -8 -3 -5 -7 11 -10 -26 -32 -54 -33 -14 0 -34 7 -45 16 -10 8
-12 13 -4 9 9 -4 7 0 -3 9 -12 9 -17 22 -13 33 8 25 86 31 109 8 21 -20 27
-19 27 5 0 11 5 20 10 20 6 0 10 18 10 39 0 22 4 51 10 66 19 51 -41 149 -84
136 -26 -7 -76 -45 -76 -58 0 -4 -9 -14 -20 -21 -18 -11 -22 -9 -36 28 -9 22
-21 40 -26 40 -5 0 -17 9 -26 19 -10 10 -23 17 -29 14z m747 -246 c0 -4 -6 -2
-14 5 -8 7 -12 17 -9 22 5 8 23 -12 23 -27z m-197 -16 c-4 -17 44 -43 66 -36
11 3 36 2 55 -4 26 -7 38 -6 45 3 6 7 8 16 4 19 -3 4 -1 7 5 7 6 0 14 -4 17
-10 3 -5 1 -10 -5 -10 -8 0 -8 -6 0 -20 9 -17 8 -19 -7 -13 -14 5 -13 2 4 -13
31 -28 37 -73 14 -104 -23 -29 -28 -25 -46 27 -9 24 -19 36 -27 33 -7 -2 -39
-5 -70 -5 -38 0 -59 -4 -63 -13 -3 -7 0 -10 5 -7 5 3 7 -1 4 -9 -7 -19 -34
-29 -34 -13 -5 115 -2 161 8 165 7 2 9 8 6 14 -4 6 -1 8 7 6 8 -3 13 -10 12
-17z"/>
<path d="M3174 2354 c3 -9 6 -17 6 -20 0 -2 11 1 24 6 13 5 27 6 30 3 3 -4 6
-2 6 4 0 6 -10 13 -22 17 -38 10 -51 7 -44 -10z"/>
<path d="M3255 2359 c-9 -13 12 -29 38 -29 26 0 17 34 -10 38 -11 2 -24 -2
-28 -9z"/>
<path d="M3794 2288 c-12 -40 -39 -67 -55 -57 -23 12 -56 0 -63 -24 -3 -12 -6
-61 -6 -108 0 -95 10 -115 55 -107 14 3 25 1 25 -4 0 -4 11 -14 25 -20 52 -23
59 10 56 255 -1 68 -4 87 -15 87 -8 0 -18 -10 -22 -22z"/>
<path d="M3155 2174 c-25 -27 -30 -56 -19 -113 5 -24 12 -31 30 -31 15 0 24 6
24 15 0 22 20 14 53 -20 l28 -30 20 24 c17 20 19 35 15 84 -6 75 -17 88 -58
64 -33 -19 -62 -9 -51 19 9 23 -16 16 -42 -12z"/>
<path d="M2720 1890 c-13 -8 -13 -10 2 -10 9 0 20 5 23 10 8 13 -5 13 -25 0z"/>
<path d="M1442 1771 c-1 -16 7 -57 17 -92 11 -35 22 -78 25 -94 4 -17 18 -44
31 -59 14 -16 25 -34 25 -40 0 -16 38 -38 45 -26 3 5 -1 24 -10 42 -12 28 -87
220 -108 281 -10 26 -22 20 -25 -12z"/>
<path d="M210 1782 c-14 -2 -34 -11 -44 -20 -11 -10 -16 -11 -12 -5 5 9 2 11
-8 7 -25 -10 -19 -23 20 -39 69 -29 174 -11 166 28 -3 13 -10 17 -23 14 -10
-3 -19 -1 -19 5 0 5 -6 8 -12 5 -7 -2 -20 -1 -28 2 -8 4 -26 5 -40 3z"/>
<path d="M45 1770 c-4 -6 -15 -8 -26 -5 -15 5 -19 1 -19 -19 0 -27 15 -35 23
-13 4 9 6 9 6 -1 1 -8 6 -10 13 -6 7 5 30 7 51 5 36 -2 38 -1 28 17 -7 14 -19
19 -36 18 -13 -2 -22 1 -19 5 3 5 1 9 -5 9 -5 0 -13 -5 -16 -10z"/>
<path d="M423 1760 c-2 -3 -10 -5 -16 -5 -15 0 -16 -40 -2 -41 6 0 18 -4 27
-8 9 -4 27 -2 40 6 22 12 28 14 56 17 8 1 6 7 -5 19 -17 16 -87 25 -100 12z"/>
<path d="M683 1757 c-29 -5 -53 -13 -53 -18 0 -6 -4 -8 -8 -5 -5 3 -9 0 -9 -7
0 -7 7 -13 16 -14 9 -1 45 -9 80 -17 44 -10 70 -12 83 -5 10 5 18 7 18 3 0 -3
6 -1 14 6 19 15 11 35 -16 37 -12 1 -25 8 -29 15 -4 7 -11 9 -15 5 -4 -4 -12
-3 -18 1 -6 5 -35 4 -63 -1z"/>
<path d="M870 1729 c0 -5 -7 -6 -15 -3 -10 4 -13 2 -10 -7 6 -16 65 -22 65 -7
0 6 7 7 16 4 10 -4 14 -1 12 6 -5 14 -68 20 -68 7z"/>
<path d="M1297 1729 c16 -21 93 -25 93 -5 0 10 -9 13 -31 11 -18 -3 -34 -7
-37 -10 -3 -2 -12 1 -21 8 -14 10 -14 10 -4 -4z"/>
<path d="M2115 1542 c-3 -4 -29 -8 -58 -9 -72 -5 -115 -21 -134 -49 -9 -14
-22 -23 -29 -20 -8 3 -14 -1 -14 -10 0 -8 -4 -12 -10 -9 -5 3 -10 1 -10 -4 0
-6 5 -11 11 -11 5 0 7 -4 4 -10 -3 -5 -1 -18 4 -27 6 -10 11 -12 11 -5 0 6 5
12 11 12 6 0 8 -7 5 -16 -3 -8 -2 -12 4 -9 6 3 10 2 10 -2 0 -11 41 -11 58 0
7 5 19 4 28 -3 8 -7 36 -12 62 -11 26 0 61 1 77 1 24 0 27 3 15 11 -12 8 -9
10 13 6 23 -4 25 -2 15 11 -11 13 -10 15 10 10 20 -6 22 -4 10 10 -7 9 -8 13
-2 9 7 -4 17 0 24 8 7 8 16 12 21 9 5 -3 9 9 9 26 0 20 -4 29 -11 24 -8 -4 -9
1 -4 16 5 17 4 21 -6 15 -8 -6 -11 -4 -7 7 4 10 0 14 -15 13 -12 -1 -38 2 -59
5 -20 4 -40 5 -43 2z"/>
<path d="M2601 1470 c-7 -16 -13 -33 -14 -36 -3 -13 171 -25 179 -12 3 4 11 5
17 1 7 -4 33 -8 59 -8 26 -1 50 -4 53 -7 5 -5 40 -3 85 5 8 1 21 6 28 11 7 4
28 8 46 8 20 0 33 5 33 13 0 7 -13 12 -31 12 -17 0 -49 3 -71 6 -44 7 -184 16
-285 18 -36 1 -70 5 -75 10 -7 5 -16 -4 -24 -21z"/>
<path d="M3101 1444 c0 -11 3 -14 6 -6 3 7 2 16 -1 19 -3 4 -6 -2 -5 -13z"/>
<path d="M3120 1441 c0 -13 69 -19 74 -6 3 6 9 4 15 -5 6 -8 11 -11 11 -7 0 4
10 2 23 -5 12 -6 27 -13 32 -14 12 -3 76 -15 90 -18 6 -1 16 -5 23 -10 7 -4
19 -3 26 3 7 6 16 8 19 5 3 -4 37 -8 74 -9 37 -2 68 -4 68 -5 0 -1 40 -3 89
-5 48 -2 90 -6 93 -8 2 -3 18 -1 34 3 18 5 29 5 29 -1 0 -5 8 -9 18 -7 10 2
16 -2 14 -10 -2 -10 2 -10 19 -2 11 7 23 9 26 6 3 -3 14 -1 23 4 10 5 32 11
49 12 29 2 32 5 29 32 -3 30 -5 31 -58 32 -30 1 -122 5 -205 9 -252 11 -615
14 -615 6z"/>
<path d="M1595 1430 c4 -6 11 -8 16 -5 14 9 11 15 -7 15 -8 0 -12 -5 -9 -10z"/>
<path d="M2503 1345 c-14 -21 -17 -32 -9 -29 14 6 42 51 35 58 -2 3 -14 -11
-26 -29z"/>
<path d="M1370 1300 c-80 -19 -139 -38 -155 -50 -5 -5 -38 -19 -72 -33 -61
-25 -139 -77 -337 -225 -95 -71 -101 -74 -143 -69 -34 3 -55 -1 -93 -20 -28
-14 -50 -28 -50 -33 0 -10 -37 -20 -45 -12 -3 3 -11 7 -18 8 -19 3 -104 62
-124 87 -14 17 -27 21 -55 19 -23 -2 -47 4 -65 15 -19 12 -24 14 -18 4 6 -11
4 -13 -11 -7 -24 10 -25 10 -51 1 -13 -4 -21 -11 -18 -15 3 -5 -4 -11 -15 -15
-11 -3 -20 -11 -20 -17 0 -5 -7 -8 -15 -4 -8 3 -15 0 -15 -7 0 -8 -3 -9 -8 -1
-4 6 -15 11 -24 11 -17 0 -18 -29 -18 -469 l0 -468 275 0 276 0 6 30 c4 22 11
30 27 29 11 0 15 -3 9 -6 -21 -8 -15 -26 7 -20 20 5 45 -15 33 -26 -3 -4 573
-7 1280 -7 l1287 0 1 28 1 27 8 -30 c7 -29 8 -29 10 -5 2 14 2 47 1 73 -1 52
11 88 23 68 4 -6 2 -11 -3 -11 -6 0 -2 -9 9 -20 11 -11 27 -20 35 -20 10 0 15
-10 15 -26 0 -23 -2 -25 -15 -14 -20 17 -24 11 -18 -23 4 -18 15 -32 30 -38
13 -5 177 -9 364 -9 l339 0 0 625 c0 590 -1 624 -17 618 -10 -4 -20 -10 -23
-13 -16 -22 -99 -63 -133 -66 -22 -2 -46 -9 -53 -15 -9 -7 -24 -7 -49 0 -20 5
-43 7 -51 4 -9 -3 -14 2 -15 13 -1 14 -3 13 -9 -6 -8 -25 -8 -25 -10 5 -2 30
-2 30 -10 5 -6 -19 -8 -20 -9 -6 -1 16 -3 17 -18 5 -15 -12 -16 -12 -10 3 3
10 2 20 -3 23 -6 4 -10 -1 -10 -9 0 -19 -16 -21 -23 -3 -4 9 -6 8 -6 -2 -1
-11 -4 -11 -18 0 -15 13 -15 12 -5 -7 8 -16 8 -21 -1 -21 -7 0 -18 -2 -26 -4
-9 -2 -16 4 -18 16 -3 16 -2 17 6 5 7 -9 11 -10 11 -3 0 19 -20 26 -26 9 -3
-9 -10 -14 -14 -11 -16 10 -18 -23 -4 -44 10 -13 13 -30 8 -44 -11 -33 -11
-61 0 -69 12 -8 -18 -38 -38 -38 -9 0 -16 3 -16 8 0 4 -15 24 -32 44 -41 46
-120 75 -140 51 -9 -11 -9 -16 1 -22 10 -6 9 -10 -3 -14 -8 -3 -16 -1 -18 5
-3 8 -9 8 -24 0 -17 -11 -18 -11 -1 -12 10 0 15 -5 12 -10 -4 -6 -15 -8 -26
-5 -12 4 -19 2 -19 -7 0 -10 -3 -9 -10 2 -7 11 -10 11 -10 2 0 -7 -4 -10 -10
-7 -5 3 -10 2 -10 -3 0 -5 -8 -18 -18 -30 -15 -17 -21 -19 -31 -9 -10 9 -11 8
-5 -8 7 -17 6 -18 -8 -5 -16 16 -13 44 4 34 5 -3 4 4 -4 15 -11 18 -11 23 2
32 11 7 7 8 -15 5 -27 -5 -28 -4 -12 8 13 10 15 16 6 21 -6 4 -15 1 -20 -6 -6
-10 -9 -11 -9 -1 0 6 -9 12 -19 12 -11 0 -23 5 -26 10 -9 14 -35 12 -32 -2 1
-8 -7 -12 -22 -10 -15 2 -21 0 -17 -7 4 -6 14 -11 22 -11 17 0 19 -16 2 -23
-8 -4 -4 -8 10 -12 24 -8 30 -25 8 -25 -8 0 -17 -6 -20 -12 -5 -10 -7 -10 -12
0 -3 6 -16 12 -29 12 -20 0 -61 27 -148 96 -27 22 -38 42 -15 28 7 -4 8 -3 4
5 -4 6 -12 9 -17 6 -5 -4 -9 -1 -9 4 0 6 -7 11 -17 11 -9 0 -32 12 -52 28 -40
30 -88 63 -111 76 -8 5 13 -20 46 -55 80 -83 92 -109 104 -221 26 -246 8 -342
-75 -408 -24 -19 -42 -36 -40 -39 7 -6 -27 -60 -42 -65 -9 -4 -13 3 -11 24 1
17 6 30 10 30 4 0 8 6 8 14 0 7 11 21 24 29 59 39 106 98 106 134 0 34 -17 28
-44 -16 -27 -42 -66 -76 -99 -87 -35 -11 -61 -44 -34 -44 17 0 10 -100 -10
-121 -30 -34 -129 -69 -221 -78 -91 -8 -163 -4 -143 9 19 11 1 39 -27 43 -18
3 -12 5 18 7 25 1 48 2 52 1 4 0 5 6 2 14 -3 8 -9 14 -12 13 -22 -2 -32 3 -26
15 6 9 5 9 -7 0 -8 -6 -30 -14 -49 -18 -49 -9 -84 20 -74 62 4 15 11 33 16 40
7 8 5 18 -6 28 -8 9 -13 23 -10 33 4 11 -2 8 -15 -8 -25 -30 -26 -44 -5 -64
13 -14 13 -16 1 -16 -10 0 -13 -7 -10 -19 4 -16 1 -19 -16 -14 -17 4 -20 2
-15 -13 4 -11 11 -24 16 -31 6 -7 7 -17 3 -22 -3 -6 -1 -20 5 -32 11 -20 10
-21 -32 -16 -23 3 -61 10 -83 17 -22 6 -51 14 -65 17 -14 3 -46 21 -73 39 -26
19 -49 34 -52 34 -3 0 -11 5 -18 10 -7 6 -41 33 -77 61 -99 77 -212 191 -239
240 -18 33 -25 65 -29 126 l-4 82 45 73 c25 40 58 89 72 108 25 34 95 148 95
156 0 6 -19 3 -100 -16z m2221 -173 c-10 -9 -11 -8 -5 6 3 10 9 15 12 12 3 -3
0 -11 -7 -18z m-2531 -43 c0 -3 -9 -17 -20 -31 -21 -27 -27 -15 -10 18 10 18
30 27 30 13z m2208 -29 c-3 -3 -9 2 -12 12 -6 14 -5 15 5 6 7 -7 10 -15 7 -18z
m15 -59 c4 -10 1 -13 -8 -9 -8 3 -12 9 -9 14 7 12 11 11 17 -5z m-247 -61 c-1
-9 -5 -15 -9 -15 -30 1 -32 2 -19 7 6 2 12 11 12 19 0 9 4 13 9 10 5 -4 8 -13
7 -21z m234 10 c0 -8 5 -15 10 -15 6 0 10 5 10 11 0 6 6 9 13 6 6 -2 11 -11 9
-21 -2 -9 1 -16 7 -16 13 0 25 -60 15 -70 -8 -7 -30 -12 -124 -25 -15 -2 -35
4 -50 16 -18 15 -20 19 -7 15 12 -4 17 -2 15 6 -3 7 -10 13 -15 13 -6 0 -15 4
-20 9 -5 6 -2 6 6 1 11 -6 13 -4 8 8 -4 12 -1 15 14 12 14 -3 19 0 16 9 -4 10
4 12 29 9 39 -4 44 3 12 17 -22 8 -22 9 5 9 16 1 26 5 22 11 -3 6 1 10 9 10 9
0 16 -7 16 -15z m-2383 -390 c0 -8 -4 -12 -9 -9 -5 3 -6 10 -3 15 9 13 12 11
12 -6z m-7 -90 c0 -8 -4 -15 -10 -15 -5 0 -10 7 -10 15 0 8 5 15 10 15 6 0 10
-7 10 -15z m2369 -138 c0 -7 -4 -21 -9 -32 -8 -20 -9 -19 -9 1 -1 12 -8 27
-16 34 -8 7 -12 16 -9 21 7 12 44 -8 43 -24z m-2643 -108 c-9 -19 -14 -25 -12
-14 2 11 8 38 12 60 7 34 8 36 12 14 1 -15 -4 -42 -12 -60z m44 41 c0 -5 -5
-10 -11 -10 -5 0 -7 5 -4 10 3 6 8 10 11 10 2 0 4 -4 4 -10z m200 0 c0 -5 -4
-10 -10 -10 -5 0 -10 5 -10 10 0 6 5 10 10 10 6 0 10 -4 10 -10z m-287 -62 c9
-27 -4 -45 -29 -40 -29 5 -33 -17 -4 -25 23 -6 26 -26 6 -42 -26 -22 -76 20
-76 63 0 40 91 79 103 44z m-246 -30 c-3 -8 -6 -5 -6 6 -1 11 2 17 5 13 3 -3
4 -12 1 -19z m2880 -50 c-3 -7 -5 -2 -5 12 0 14 2 19 5 13 2 -7 2 -19 0 -25z
m-2607 -32 c0 -3 -4 -8 -10 -11 -5 -3 -10 -1 -10 4 0 6 5 11 10 11 6 0 10 -2
10 -4z m2620 -16 c0 -5 -2 -10 -4 -10 -3 0 -8 5 -11 10 -3 6 -1 10 4 10 6 0
11 -4 11 -10z m-2436 -25 c-4 -8 -1 -15 5 -15 6 0 11 7 11 16 0 24 25 11 28
-15 3 -21 1 -22 -35 -15 -21 4 -52 7 -70 7 -22 -1 -30 3 -26 12 5 15 24 22 65
24 20 1 26 -3 22 -14z m2530 -10 c-4 -8 -10 -12 -15 -9 -11 6 -2 24 11 24 5 0
7 -7 4 -15z m-2644 -5 c0 -5 -2 -10 -4 -10 -3 0 -8 5 -11 10 -3 6 -1 10 4 10
6 0 11 -4 11 -10z"/>
<path d="M2454 1286 c-3 -9 -12 -16 -19 -16 -6 0 -19 -8 -29 -18 -24 -27 -91
-45 -116 -32 -12 7 -20 7 -20 1 0 -5 -9 -8 -20 -6 -30 6 -40 14 -34 29 5 14
-5 15 -75 7 -7 0 -11 -7 -7 -16 6 -18 -5 -20 -21 -4 -6 6 -21 8 -34 4 -13 -5
-24 -7 -24 -6 0 2 -22 -8 -50 -22 -73 -36 -108 -40 -133 -16 -12 10 -25 19
-31 19 -5 0 -11 3 -14 8 -2 4 -2 2 -1 -5 2 -6 -6 -11 -17 -10 -10 1 -19 7 -19
15 0 7 -4 10 -10 7 -5 -3 -10 -1 -10 4 0 6 -3 10 -8 9 -4 -2 -18 7 -32 20 -40
37 -68 26 -46 -17 40 -77 58 -120 52 -129 -3 -6 0 -17 8 -24 8 -8 16 -23 18
-34 2 -10 11 -18 20 -18 10 1 14 -4 11 -12 -3 -8 1 -14 11 -14 9 0 16 -8 17
-17 0 -14 2 -15 6 -3 4 8 13 20 21 26 8 6 12 16 8 22 -5 9 0 9 19 2 15 -6 31
-8 36 -4 5 3 9 0 9 -6 0 -6 11 -15 25 -22 13 -6 22 -15 19 -19 -3 -5 2 -9 10
-9 9 0 16 -5 16 -11 0 -5 5 -7 10 -4 21 13 9 -25 -12 -39 -12 -9 -18 -16 -11
-16 6 0 11 -12 11 -26 0 -19 -3 -22 -9 -13 -7 10 -11 11 -16 3 -11 -17 -73
-28 -73 -14 0 6 -4 9 -9 6 -5 -4 -11 -1 -13 5 -3 8 -9 6 -20 -5 -10 -9 -19
-12 -23 -7 -3 6 -12 8 -20 4 -9 -3 -15 1 -15 10 0 9 -13 18 -30 22 -16 4 -30
11 -30 16 0 5 -6 9 -14 9 -8 0 -18 9 -21 20 -3 11 -12 20 -18 20 -19 0 -106
105 -127 153 -11 24 -21 66 -24 93 -2 27 -4 52 -5 57 -3 20 -24 2 -41 -35 -29
-64 -26 -132 9 -193 56 -97 291 -302 413 -360 26 -12 55 -28 64 -36 13 -11 18
-11 21 -1 3 6 11 12 19 12 8 0 14 5 14 12 0 6 3 8 6 5 4 -4 2 -12 -4 -20 -8
-10 -6 -13 8 -13 10 0 16 4 14 8 -3 5 5 12 18 17 13 6 20 10 16 10 -4 1 12 20
35 44 34 34 42 49 43 80 0 24 -4 37 -12 37 -8 0 -11 6 -8 15 4 9 0 15 -10 15
-9 0 -16 5 -16 11 0 5 4 8 9 5 5 -3 12 1 15 10 3 8 2 12 -4 9 -6 -4 -17 0 -25
9 -11 11 -12 16 -2 19 6 3 4 6 -7 6 -15 1 -16 4 -6 16 11 13 14 13 27 -2 13
-17 14 -16 10 5 -4 18 -3 21 8 12 9 -8 14 -8 17 0 2 6 14 12 27 13 21 1 41 29
46 62 0 6 6 9 12 8 6 -1 30 20 53 47 23 28 46 50 51 50 5 0 26 19 48 43 73 80
92 105 81 112 -5 3 -13 -1 -16 -9z m-459 -616 c3 -5 1 -10 -4 -10 -6 0 -11 5
-11 10 0 6 2 10 4 10 3 0 8 -4 11 -10z"/>
<path d="M2997 1183 c-4 -3 -7 -12 -7 -20 0 -15 26 -18 34 -4 7 11 -18 33 -27
24z"/>
<path d="M3050 1180 c-8 -5 -10 -10 -5 -10 6 0 17 5 25 10 8 5 11 10 5 10 -5
0 -17 -5 -25 -10z"/>
<path d="M2500 1100 c0 -43 -9 -111 -21 -160 -11 -47 -28 -113 -36 -147 -9
-35 -19 -63 -23 -63 -6 0 -60 -113 -60 -126 0 -2 12 -4 28 -4 19 1 44 17 85
55 32 30 51 55 43 55 -13 0 -13 4 1 38 8 20 21 41 29 45 8 4 19 17 25 29 9 16
8 19 -2 13 -8 -6 -10 -4 -4 5 4 7 10 29 12 49 2 20 6 52 8 71 6 42 8 79 6 102
0 9 -21 38 -46 65 l-45 47 0 -74z"/>
<path d="M2985 1130 c-3 -5 -1 -10 4 -10 6 0 11 5 11 10 0 6 -2 10 -4 10 -3 0
-8 -4 -11 -10z"/>
<path d="M2975 1100 c-3 -5 1 -10 9 -10 9 0 16 5 16 10 0 6 -4 10 -9 10 -6 0
-13 -4 -16 -10z"/>
<path d="M2128 913 c6 -2 18 -2 25 0 6 3 1 5 -13 5 -14 0 -19 -2 -12 -5z"/>
<path d="M2018 533 c7 -3 16 -2 19 1 4 3 -2 6 -13 5 -11 0 -14 -3 -6 -6z"/>
<path d="M2196 508 c5 -7 2 -9 -9 -5 -9 3 -18 -1 -21 -9 -8 -21 -8 -20 10 -38
21 -22 31 -20 37 7 2 12 8 30 12 40 5 13 2 17 -15 17 -14 0 -19 -4 -14 -12z"/>
</g>
</svg>
