<?xml version="1.0" encoding="UTF-8"?>
<svg xmlns:xlink="http://www.w3.org/1999/xlink" class="pygal-chart" id="chart-ab6d2dc2-2880-46c7-a411-eee9daecf235" viewBox="0 0 800 600" xmlns="http://www.w3.org/2000/svg"><!--Generated with pygal 1.7.0 (etree) ©Kozea 2011-2014 on 2015-05-03--><!--http://pygal.org--><!--http://github.com/Kozea/pygal--><defs><style type="text/css">#chart-ab6d2dc2-2880-46c7-a411-eee9daecf235 .title{font-family:"monospace";font-size:16px}#chart-ab6d2dc2-2880-46c7-a411-eee9daecf235 .legends .legend text{font-family:"monospace";font-size:14px}#chart-ab6d2dc2-2880-46c7-a411-eee9daecf235 .axis text{font-family:"monospace";font-size:10px}#chart-ab6d2dc2-2880-46c7-a411-eee9daecf235 .axis text.major{font-family:"monospace";font-size:10px}#chart-ab6d2dc2-2880-46c7-a411-eee9daecf235 .series text{font-family:"monospace";font-size:8px}#chart-ab6d2dc2-2880-46c7-a411-eee9daecf235 .tooltip text{font-family:"monospace";font-size:16px}#chart-ab6d2dc2-2880-46c7-a411-eee9daecf235 text.no_data{font-size:64px}
#chart-ab6d2dc2-2880-46c7-a411-eee9daecf235{background-color:black}#chart-ab6d2dc2-2880-46c7-a411-eee9daecf235 path,#chart-ab6d2dc2-2880-46c7-a411-eee9daecf235 line,#chart-ab6d2dc2-2880-46c7-a411-eee9daecf235 rect,#chart-ab6d2dc2-2880-46c7-a411-eee9daecf235 circle{-webkit-transition:250ms;-moz-transition:250ms;transition:250ms}#chart-ab6d2dc2-2880-46c7-a411-eee9daecf235 .graph &gt; .background{fill:black}#chart-ab6d2dc2-2880-46c7-a411-eee9daecf235 .plot &gt; .background{fill:#111}#chart-ab6d2dc2-2880-46c7-a411-eee9daecf235 .graph{fill:#999}#chart-ab6d2dc2-2880-46c7-a411-eee9daecf235 text.no_data{fill:#eee}#chart-ab6d2dc2-2880-46c7-a411-eee9daecf235 .title{fill:#eee}#chart-ab6d2dc2-2880-46c7-a411-eee9daecf235 .legends .legend text{fill:#999}#chart-ab6d2dc2-2880-46c7-a411-eee9daecf235 .legends .legend:hover text{fill:#eee}#chart-ab6d2dc2-2880-46c7-a411-eee9daecf235 .axis .line{stroke:#eee}#chart-ab6d2dc2-2880-46c7-a411-eee9daecf235 .axis .guide.line{stroke:#555}#chart-ab6d2dc2-2880-46c7-a411-eee9daecf235 .axis .major.line{stroke:#999}#chart-ab6d2dc2-2880-46c7-a411-eee9daecf235 .axis text.major{stroke:#eee;fill:#eee}#chart-ab6d2dc2-2880-46c7-a411-eee9daecf235 .axis.y .guides:hover .guide.line,#chart-ab6d2dc2-2880-46c7-a411-eee9daecf235 .line-graph .axis.x .guides:hover .guide.line,#chart-ab6d2dc2-2880-46c7-a411-eee9daecf235 .stackedline-graph .axis.x .guides:hover .guide.line,#chart-ab6d2dc2-2880-46c7-a411-eee9daecf235 .xy-graph .axis.x .guides:hover .guide.line{stroke:#eee}#chart-ab6d2dc2-2880-46c7-a411-eee9daecf235 .axis .guides:hover text{fill:#eee}#chart-ab6d2dc2-2880-46c7-a411-eee9daecf235 .reactive{fill-opacity:.8}#chart-ab6d2dc2-2880-46c7-a411-eee9daecf235 .reactive.active,#chart-ab6d2dc2-2880-46c7-a411-eee9daecf235 .active .reactive{fill-opacity:.4}#chart-ab6d2dc2-2880-46c7-a411-eee9daecf235 .series{stroke-width:1.0;stroke-linejoin:round;stroke-linecap:round;stroke-dasharray:0,0}#chart-ab6d2dc2-2880-46c7-a411-eee9daecf235 .series text{fill:#eee}#chart-ab6d2dc2-2880-46c7-a411-eee9daecf235 .tooltip rect{fill:#111;stroke:#eee}#chart-ab6d2dc2-2880-46c7-a411-eee9daecf235 .tooltip text{fill:#eee}#chart-ab6d2dc2-2880-46c7-a411-eee9daecf235 .map-element{fill:#999;stroke:#555 !important;opacity:.9;stroke-width:3;-webkit-transition:250ms;-moz-transition:250ms;-o-transition:250ms;transition:250ms}#chart-ab6d2dc2-2880-46c7-a411-eee9daecf235 .map-element:hover{opacity:1;stroke-width:10}#chart-ab6d2dc2-2880-46c7-a411-eee9daecf235 .color-0,#chart-ab6d2dc2-2880-46c7-a411-eee9daecf235 .color-0 a:visited{stroke:#ff5995;fill:#ff5995}#chart-ab6d2dc2-2880-46c7-a411-eee9daecf235 .color-1,#chart-ab6d2dc2-2880-46c7-a411-eee9daecf235 .color-1 a:visited{stroke:#b6e354;fill:#b6e354}#chart-ab6d2dc2-2880-46c7-a411-eee9daecf235 .color-2,#chart-ab6d2dc2-2880-46c7-a411-eee9daecf235 .color-2 a:visited{stroke:#feed6c;fill:#feed6c}#chart-ab6d2dc2-2880-46c7-a411-eee9daecf235 .color-3,#chart-ab6d2dc2-2880-46c7-a411-eee9daecf235 .color-3 a:visited{stroke:#8cedff;fill:#8cedff}#chart-ab6d2dc2-2880-46c7-a411-eee9daecf235 .color-4,#chart-ab6d2dc2-2880-46c7-a411-eee9daecf235 .color-4 a:visited{stroke:#9e6ffe;fill:#9e6ffe}#chart-ab6d2dc2-2880-46c7-a411-eee9daecf235 .color-5,#chart-ab6d2dc2-2880-46c7-a411-eee9daecf235 .color-5 a:visited{stroke:#899ca1;fill:#899ca1}#chart-ab6d2dc2-2880-46c7-a411-eee9daecf235 .color-6,#chart-ab6d2dc2-2880-46c7-a411-eee9daecf235 .color-6 a:visited{stroke:#f8f8f2;fill:#f8f8f2}#chart-ab6d2dc2-2880-46c7-a411-eee9daecf235 .color-7,#chart-ab6d2dc2-2880-46c7-a411-eee9daecf235 .color-7 a:visited{stroke:#bf4646;fill:#bf4646}#chart-ab6d2dc2-2880-46c7-a411-eee9daecf235 .color-8,#chart-ab6d2dc2-2880-46c7-a411-eee9daecf235 .color-8 a:visited{stroke:#516083;fill:#516083}#chart-ab6d2dc2-2880-46c7-a411-eee9daecf235 .color-9,#chart-ab6d2dc2-2880-46c7-a411-eee9daecf235 .color-9 a:visited{stroke:#f92672;fill:#f92672}#chart-ab6d2dc2-2880-46c7-a411-eee9daecf235 .color-10,#chart-ab6d2dc2-2880-46c7-a411-eee9daecf235 .color-10 a:visited{stroke:#82b414;fill:#82b414}#chart-ab6d2dc2-2880-46c7-a411-eee9daecf235 .color-11,#chart-ab6d2dc2-2880-46c7-a411-eee9daecf235 .color-11 a:visited{stroke:#fd971f;fill:#fd971f}#chart-ab6d2dc2-2880-46c7-a411-eee9daecf235 .color-12,#chart-ab6d2dc2-2880-46c7-a411-eee9daecf235 .color-12 a:visited{stroke:#56c2d6;fill:#56c2d6}#chart-ab6d2dc2-2880-46c7-a411-eee9daecf235 .color-13,#chart-ab6d2dc2-2880-46c7-a411-eee9daecf235 .color-13 a:visited{stroke:#808384;fill:#808384}#chart-ab6d2dc2-2880-46c7-a411-eee9daecf235 .color-14,#chart-ab6d2dc2-2880-46c7-a411-eee9daecf235 .color-14 a:visited{stroke:#8c54fe;fill:#8c54fe}#chart-ab6d2dc2-2880-46c7-a411-eee9daecf235 .color-15,#chart-ab6d2dc2-2880-46c7-a411-eee9daecf235 .color-15 a:visited{stroke:#465457;fill:#465457}
#chart-ab6d2dc2-2880-46c7-a411-eee9daecf235 text.no_data{text-anchor:middle}#chart-ab6d2dc2-2880-46c7-a411-eee9daecf235 .guide.line{fill-opacity:0}#chart-ab6d2dc2-2880-46c7-a411-eee9daecf235 .centered{text-anchor:middle}#chart-ab6d2dc2-2880-46c7-a411-eee9daecf235 .title{text-anchor:middle}#chart-ab6d2dc2-2880-46c7-a411-eee9daecf235 .legends .legend text{fill-opacity:1}#chart-ab6d2dc2-2880-46c7-a411-eee9daecf235 .axis.x text{text-anchor:middle}#chart-ab6d2dc2-2880-46c7-a411-eee9daecf235 .axis.x:not(.web) text[transform]{text-anchor:start}#chart-ab6d2dc2-2880-46c7-a411-eee9daecf235 .axis.y text{text-anchor:end}#chart-ab6d2dc2-2880-46c7-a411-eee9daecf235 .axis.y2 text{text-anchor:start}#chart-ab6d2dc2-2880-46c7-a411-eee9daecf235 .axis.y .logarithmic text:not(.major),#chart-ab6d2dc2-2880-46c7-a411-eee9daecf235 .axis.y2 .logarithmic text:not(.major){font-size:50%}#chart-ab6d2dc2-2880-46c7-a411-eee9daecf235 .axis .guide.line{stroke-dasharray:4,4}#chart-ab6d2dc2-2880-46c7-a411-eee9daecf235 .axis .major.guide.line{stroke-dasharray:6,6}#chart-ab6d2dc2-2880-46c7-a411-eee9daecf235 .axis text.major{stroke-width:0.5px}#chart-ab6d2dc2-2880-46c7-a411-eee9daecf235 .horizontal .axis.y .guide.line,#chart-ab6d2dc2-2880-46c7-a411-eee9daecf235 .horizontal .axis.y2 .guide.line,#chart-ab6d2dc2-2880-46c7-a411-eee9daecf235 .vertical .axis.x .guide.line{opacity:0}#chart-ab6d2dc2-2880-46c7-a411-eee9daecf235 .horizontal .axis.always_show .guide.line,#chart-ab6d2dc2-2880-46c7-a411-eee9daecf235 .vertical .axis.always_show .guide.line{opacity:1 !important}#chart-ab6d2dc2-2880-46c7-a411-eee9daecf235 .axis.y .guides:hover .guide.line,#chart-ab6d2dc2-2880-46c7-a411-eee9daecf235 .axis.y2 .guides:hover .guide.line,#chart-ab6d2dc2-2880-46c7-a411-eee9daecf235 .axis.x .guides:hover .guide.line{opacity:1}#chart-ab6d2dc2-2880-46c7-a411-eee9daecf235 .axis .guides:hover text{opacity:1}#chart-ab6d2dc2-2880-46c7-a411-eee9daecf235 .nofill{fill:none}#chart-ab6d2dc2-2880-46c7-a411-eee9daecf235 .subtle-fill{fill-opacity:.2}#chart-ab6d2dc2-2880-46c7-a411-eee9daecf235 .dot{stroke-width:1px;fill-opacity:1}#chart-ab6d2dc2-2880-46c7-a411-eee9daecf235 .dot.active{stroke-width:5px}#chart-ab6d2dc2-2880-46c7-a411-eee9daecf235 .series text{stroke:none}#chart-ab6d2dc2-2880-46c7-a411-eee9daecf235 .series text.active{opacity:1}#chart-ab6d2dc2-2880-46c7-a411-eee9daecf235 .tooltip rect{fill-opacity:0.8}#chart-ab6d2dc2-2880-46c7-a411-eee9daecf235 .tooltip text{fill-opacity:1}#chart-ab6d2dc2-2880-46c7-a411-eee9daecf235 .tooltip text tspan.label{fill-opacity:.8}</style><script type="text/javascript">window.config = {"inner_radius": 0, "print_values": false, "tooltip_font_size": 16, "xrange": null, "legend_at_bottom_columns": null, "height": 600, "legend_at_bottom": false, "show_legend": true, "show_dots": true, "explicit_size": false, "legend_font_size": 14, "y_labels_major": null, "show_minor_x_labels": true, "major_label_font_size": 10, "fill": false, "half_pie": false, "x_value_formatter": null, "style": {"opacity": ".8", "foreground": "#999", "plot_background": "#111", "stroke_style": "round", "foreground_light": "#eee", "transition": "250ms", "foreground_dark": "#555", "stroke_dasharray": "0,0", "opacity_hover": ".4", "stroke_width": 1.0, "colors": ["#ff5995", "#b6e354", "#feed6c", "#8cedff", "#9e6ffe", "#899ca1", "#f8f8f2", "#bf4646", "#516083", "#f92672", "#82b414", "#fd971f", "#56c2d6", "#808384", "#8c54fe", "#465457"], "background": "black", "font_family": "monospace"}, "x_label_rotation": 0, "missing_value_fill_truncation": "x", "zero": 0, "margin_right": null, "interpolation_parameters": {}, "x_labels_major": null, "rounded_bars": null, "label_font_size": 10, "show_y_labels": true, "dots_size": 2.5, "show_y_guides": true, "show_minor_y_labels": true, "x_labels": ["10:00", "10:00", "10:15", "10:30", "10:45", "11:00", "11:15", "11:30", "11:45", "12:00", "12:15", "12:30", "12:45", "13:00", "13:15", "13:30", "13:45", "14:00", "14:15", "14:30", "14:45", "15:00", "15:15", "15:30", "15:45", "16:00", "16:15", "16:30", "16:45", "17:00", "17:15", "17:30", "17:45", "18:00", "18:15", "18:30", "18:45", "19:00", "19:15", "19:30", "19:45", "20:00", "20:15", "20:30", "20:45", "21:00", "21:15", "21:30", "21:45"], "y_title": null, "value_font_size": 8, "order_min": null, "disable_xml_declaration": false, "strict": false, "css": ["style.css", "graph.css"], "mode": null, "show_only_major_dots": false, "y_label_rotation": 0, "human_readable": false, "show_x_guides": false, "spacing": 10, "x_labels_major_count": null, "pretty_print": false, "tooltip_border_radius": 0, "interpolate": null, "js": ["http://kozea.github.io/pygal.js/javascripts/svg.jquery.js", "http://kozea.github.io/pygal.js/javascripts/pygal-tooltips.js"], "y_labels": null, "y_labels_major_every": null, "x_label_format": "%Y-%m-%d %H:%M:%S.%f", "interpolation_precision": 250, "x_title": null, "value_formatter": null, "no_data_font_size": 64, "logarithmic": false, "width": 800, "print_zeroes": false, "no_data_text": "No data", "truncate_legend": null, "x_labels_major_every": null, "title": "Solved Puzzles (by Team)", "legend_box_size": 12, "no_prefix": false, "stroke": true, "title_font_size": 16, "include_x_axis": false, "range": null, "truncate_label": null, "margin_top": null, "margin_left": null, "y_labels_major_count": null, "margin_bottom": null, "margin": 20, "stack_from_top": false, "show_x_labels": true}</script><script type="text/javascript" xlink:href="solves2_files/svg.js"/><script type="text/javascript" xlink:href="solves2_files/pygal-tooltips.js"/></defs><title>Solved Puzzles (by Team)</title><g class="graph line-graph vertical"><rect class="background" height="600" width="800" x="0" y="0"/><g class="plot" transform="translate(202, 46)"><rect class="background" height="514" width="578.0" x="0" y="0"/><g class="axis y"><g class="guides"><path class="major line" d="M0.000000 504.115385 h578.000000"/><text class="major" x="-5" y="507.615384615">0.0</text></g><g class="guides"><path class="guide line" d="M0.000000 466.097633 h578.000000"/><text class="" x="-5" y="469.597633136">2.0</text></g><g class="guides"><path class="guide line" d="M0.000000 428.079882 h578.000000"/><text class="" x="-5" y="431.579881657">4.0</text></g><g class="guides"><path class="guide line" d="M0.000000 390.062130 h578.000000"/><text class="" x="-5" y="393.562130178">6.0</text></g><g class="guides"><path class="guide line" d="M0.000000 352.044379 h578.000000"/><text class="" x="-5" y="355.544378698">8.0</text></g><g class="guides"><path class="major guide line" d="M0.000000 314.026627 h578.000000"/><text class="major" x="-5" y="317.526627219">10.0</text></g><g class="guides"><path class="guide line" d="M0.000000 276.008876 h578.000000"/><text class="" x="-5" y="279.50887574">12.0</text></g><g class="guides"><path class="guide line" d="M0.000000 237.991124 h578.000000"/><text class="" x="-5" y="241.49112426">14.0</text></g><g class="guides"><path class="guide line" d="M0.000000 199.973373 h578.000000"/><text class="" x="-5" y="203.473372781">16.0</text></g><g class="guides"><path class="guide line" d="M0.000000 161.955621 h578.000000"/><text class="" x="-5" y="165.455621302">18.0</text></g><g class="guides"><path class="major guide line" d="M0.000000 123.937870 h578.000000"/><text class="major" x="-5" y="127.437869822">20.0</text></g><g class="guides"><path class="guide line" d="M0.000000 85.920118 h578.000000"/><text class="" x="-5" y="89.4201183432">22.0</text></g><g class="guides"><path class="guide line" d="M0.000000 47.902367 h578.000000"/><text class="" x="-5" y="51.4023668639">24.0</text></g><g class="guides"><path class="guide line" d="M0.000000 9.884615 h578.000000"/><text class="" x="-5" y="13.3846153846">26.0</text></g></g><g class="axis x"><g class="guides"><path class="line" d="M11.115385 0.000000 v514.000000"/><text class="" x="11.1153846154" y="529.0">…</text><title>10:00</title></g><g class="guides"><path class="guide line" d="M22.693910 0.000000 v514.000000"/><text class="" x="22.6939102564" y="529.0">…</text><title>10:00</title></g><g class="guides"><path class="guide line" d="M34.272436 0.000000 v514.000000"/><text class="" x="34.2724358974" y="529.0">…</text><title>10:15</title></g><g class="guides"><path class="guide line" d="M45.850962 0.000000 v514.000000"/><text class="" x="45.8509615385" y="529.0">…</text><title>10:30</title></g><g class="guides"><path class="guide line" d="M57.429487 0.000000 v514.000000"/><text class="" x="57.4294871795" y="529.0">…</text><title>10:45</title></g><g class="guides"><path class="guide line" d="M69.008013 0.000000 v514.000000"/><text class="" x="69.0080128205" y="529.0">…</text><title>11:00</title></g><g class="guides"><path class="guide line" d="M80.586538 0.000000 v514.000000"/><text class="" x="80.5865384615" y="529.0">…</text><title>11:15</title></g><g class="guides"><path class="guide line" d="M92.165064 0.000000 v514.000000"/><text class="" x="92.1650641026" y="529.0">…</text><title>11:30</title></g><g class="guides"><path class="guide line" d="M103.743590 0.000000 v514.000000"/><text class="" x="103.743589744" y="529.0">…</text><title>11:45</title></g><g class="guides"><path class="guide line" d="M115.322115 0.000000 v514.000000"/><text class="" x="115.322115385" y="529.0">…</text><title>12:00</title></g><g class="guides"><path class="guide line" d="M126.900641 0.000000 v514.000000"/><text class="" x="126.900641026" y="529.0">…</text><title>12:15</title></g><g class="guides"><path class="guide line" d="M138.479167 0.000000 v514.000000"/><text class="" x="138.479166667" y="529.0">…</text><title>12:30</title></g><g class="guides"><path class="guide line" d="M150.057692 0.000000 v514.000000"/><text class="" x="150.057692308" y="529.0">…</text><title>12:45</title></g><g class="guides"><path class="guide line" d="M161.636218 0.000000 v514.000000"/><text class="" x="161.636217949" y="529.0">…</text><title>13:00</title></g><g class="guides"><path class="guide line" d="M173.214744 0.000000 v514.000000"/><text class="" x="173.21474359" y="529.0">…</text><title>13:15</title></g><g class="guides"><path class="guide line" d="M184.793269 0.000000 v514.000000"/><text class="" x="184.793269231" y="529.0">…</text><title>13:30</title></g><g class="guides"><path class="guide line" d="M196.371795 0.000000 v514.000000"/><text class="" x="196.371794872" y="529.0">…</text><title>13:45</title></g><g class="guides"><path class="guide line" d="M207.950321 0.000000 v514.000000"/><text class="" x="207.950320513" y="529.0">…</text><title>14:00</title></g><g class="guides"><path class="guide line" d="M219.528846 0.000000 v514.000000"/><text class="" x="219.528846154" y="529.0">…</text><title>14:15</title></g><g class="guides"><path class="guide line" d="M231.107372 0.000000 v514.000000"/><text class="" x="231.107371795" y="529.0">…</text><title>14:30</title></g><g class="guides"><path class="guide line" d="M242.685897 0.000000 v514.000000"/><text class="" x="242.685897436" y="529.0">…</text><title>14:45</title></g><g class="guides"><path class="guide line" d="M254.264423 0.000000 v514.000000"/><text class="" x="254.264423077" y="529.0">…</text><title>15:00</title></g><g class="guides"><path class="guide line" d="M265.842949 0.000000 v514.000000"/><text class="" x="265.842948718" y="529.0">…</text><title>15:15</title></g><g class="guides"><path class="guide line" d="M277.421474 0.000000 v514.000000"/><text class="" x="277.421474359" y="529.0">…</text><title>15:30</title></g><g class="guides"><path class="guide line" d="M289.000000 0.000000 v514.000000"/><text class="" x="289.0" y="529.0">…</text><title>15:45</title></g><g class="guides"><path class="guide line" d="M300.578526 0.000000 v514.000000"/><text class="" x="300.578525641" y="529.0">…</text><title>16:00</title></g><g class="guides"><path class="guide line" d="M312.157051 0.000000 v514.000000"/><text class="" x="312.157051282" y="529.0">…</text><title>16:15</title></g><g class="guides"><path class="guide line" d="M323.735577 0.000000 v514.000000"/><text class="" x="323.735576923" y="529.0">…</text><title>16:30</title></g><g class="guides"><path class="guide line" d="M335.314103 0.000000 v514.000000"/><text class="" x="335.314102564" y="529.0">…</text><title>16:45</title></g><g class="guides"><path class="guide line" d="M346.892628 0.000000 v514.000000"/><text class="" x="346.892628205" y="529.0">…</text><title>17:00</title></g><g class="guides"><path class="guide line" d="M358.471154 0.000000 v514.000000"/><text class="" x="358.471153846" y="529.0">…</text><title>17:15</title></g><g class="guides"><path class="guide line" d="M370.049679 0.000000 v514.000000"/><text class="" x="370.049679487" y="529.0">…</text><title>17:30</title></g><g class="guides"><path class="guide line" d="M381.628205 0.000000 v514.000000"/><text class="" x="381.628205128" y="529.0">…</text><title>17:45</title></g><g class="guides"><path class="guide line" d="M393.206731 0.000000 v514.000000"/><text class="" x="393.206730769" y="529.0">…</text><title>18:00</title></g><g class="guides"><path class="guide line" d="M404.785256 0.000000 v514.000000"/><text class="" x="404.78525641" y="529.0">…</text><title>18:15</title></g><g class="guides"><path class="guide line" d="M416.363782 0.000000 v514.000000"/><text class="" x="416.363782051" y="529.0">…</text><title>18:30</title></g><g class="guides"><path class="guide line" d="M427.942308 0.000000 v514.000000"/><text class="" x="427.942307692" y="529.0">…</text><title>18:45</title></g><g class="guides"><path class="guide line" d="M439.520833 0.000000 v514.000000"/><text class="" x="439.520833333" y="529.0">…</text><title>19:00</title></g><g class="guides"><path class="guide line" d="M451.099359 0.000000 v514.000000"/><text class="" x="451.099358974" y="529.0">…</text><title>19:15</title></g><g class="guides"><path class="guide line" d="M462.677885 0.000000 v514.000000"/><text class="" x="462.677884615" y="529.0">…</text><title>19:30</title></g><g class="guides"><path class="guide line" d="M474.256410 0.000000 v514.000000"/><text class="" x="474.256410256" y="529.0">…</text><title>19:45</title></g><g class="guides"><path class="guide line" d="M485.834936 0.000000 v514.000000"/><text class="" x="485.834935897" y="529.0">…</text><title>20:00</title></g><g class="guides"><path class="guide line" d="M497.413462 0.000000 v514.000000"/><text class="" x="497.413461538" y="529.0">…</text><title>20:15</title></g><g class="guides"><path class="guide line" d="M508.991987 0.000000 v514.000000"/><text class="" x="508.991987179" y="529.0">…</text><title>20:30</title></g><g class="guides"><path class="guide line" d="M520.570513 0.000000 v514.000000"/><text class="" x="520.570512821" y="529.0">…</text><title>20:45</title></g><g class="guides"><path class="guide line" d="M532.149038 0.000000 v514.000000"/><text class="" x="532.149038462" y="529.0">…</text><title>21:00</title></g><g class="guides"><path class="guide line" d="M543.727564 0.000000 v514.000000"/><text class="" x="543.727564103" y="529.0">…</text><title>21:15</title></g><g class="guides"><path class="guide line" d="M555.306090 0.000000 v514.000000"/><text class="" x="555.306089744" y="529.0">…</text><title>21:30</title></g><g class="guides"><path class="guide line" d="M566.884615 0.000000 v514.000000"/><text class="" x="566.884615385" y="529.0">…</text><title>21:45</title></g></g><g class="series serie-0 color-0"><path class="line reactive nofill" d="M11.115385 504.115385 L22.693910 504.115385 34.272436 504.115385 45.850962 504.115385 57.429487 504.115385 69.008013 504.115385 80.586538 504.115385 92.165064 485.106509 103.743590 485.106509 115.322115 466.097633 126.900641 466.097633 138.479167 466.097633 150.057692 447.088757 161.636218 428.079882 173.214744 428.079882 184.793269 428.079882 196.371795 428.079882 207.950321 409.071006 219.528846 390.062130 231.107372 390.062130 242.685897 390.062130 254.264423 390.062130 265.842949 371.053254 277.421474 371.053254 289.000000 371.053254 300.578526 371.053254 312.157051 352.044379 323.735577 352.044379 335.314103 352.044379 346.892628 352.044379 358.471154 333.035503 370.049679 333.035503 381.628205 333.035503 393.206731 333.035503 404.785256 333.035503 416.363782 333.035503 427.942308 333.035503 439.520833 333.035503 451.099359 333.035503 462.677885 333.035503 474.256410 333.035503 485.834936 314.026627 497.413462 295.017751 508.991987 295.017751 520.570513 295.017751 532.149038 295.017751 543.727564 295.017751 555.306090 295.017751 566.884615 295.017751"/></g><g class="series serie-1 color-1"><path class="line reactive nofill" d="M11.115385 504.115385 L22.693910 504.115385 34.272436 504.115385 45.850962 504.115385 57.429487 504.115385 69.008013 504.115385 80.586538 466.097633 92.165064 447.088757 103.743590 447.088757 115.322115 447.088757 126.900641 447.088757 138.479167 447.088757 150.057692 447.088757 161.636218 447.088757 173.214744 447.088757 184.793269 428.079882 196.371795 428.079882 207.950321 428.079882 219.528846 409.071006 231.107372 390.062130 242.685897 390.062130 254.264423 390.062130 265.842949 390.062130 277.421474 390.062130 289.000000 390.062130 300.578526 371.053254 312.157051 352.044379 323.735577 352.044379 335.314103 333.035503 346.892628 314.026627 358.471154 314.026627 370.049679 314.026627 381.628205 295.017751 393.206731 295.017751 404.785256 295.017751 416.363782 295.017751 427.942308 276.008876 439.520833 276.008876 451.099359 218.982249 462.677885 199.973373 474.256410 199.973373 485.834936 199.973373 497.413462 199.973373 508.991987 180.964497 520.570513 180.964497 532.149038 161.955621 543.727564 161.955621 555.306090 142.946746 566.884615 142.946746"/></g><g class="series serie-2 color-2"><path class="line reactive nofill" d="M11.115385 504.115385 L22.693910 504.115385 34.272436 504.115385 45.850962 485.106509 57.429487 466.097633 69.008013 428.079882 80.586538 428.079882 92.165064 409.071006 103.743590 390.062130 115.322115 390.062130 126.900641 352.044379 138.479167 333.035503 150.057692 333.035503 161.636218 314.026627 173.214744 314.026627 184.793269 295.017751 196.371795 295.017751 207.950321 276.008876 219.528846 257.000000 231.107372 237.991124 242.685897 237.991124 254.264423 218.982249 265.842949 199.973373 277.421474 180.964497 289.000000 142.946746 300.578526 142.946746 312.157051 123.937870 323.735577 123.937870 335.314103 123.937870 346.892628 123.937870 358.471154 123.937870 370.049679 123.937870 381.628205 104.928994 393.206731 104.928994 404.785256 104.928994 416.363782 104.928994 427.942308 85.920118 439.520833 85.920118 451.099359 66.911243 462.677885 66.911243 474.256410 66.911243 485.834936 66.911243 497.413462 66.911243 508.991987 66.911243 520.570513 66.911243 532.149038 66.911243 543.727564 66.911243 555.306090 66.911243 566.884615 66.911243"/></g><g class="series serie-3 color-3"><path class="line reactive nofill" d="M11.115385 504.115385 L22.693910 504.115385 34.272436 504.115385 45.850962 504.115385 57.429487 504.115385 69.008013 504.115385 80.586538 504.115385 92.165064 504.115385 103.743590 447.088757 115.322115 447.088757 126.900641 428.079882 138.479167 428.079882 150.057692 428.079882 161.636218 428.079882 173.214744 428.079882 184.793269 428.079882 196.371795 428.079882 207.950321 409.071006 219.528846 409.071006 231.107372 409.071006 242.685897 409.071006 254.264423 409.071006 265.842949 409.071006 277.421474 390.062130 289.000000 371.053254 300.578526 371.053254 312.157051 352.044379 323.735577 352.044379 335.314103 352.044379 346.892628 333.035503 358.471154 333.035503 370.049679 333.035503 381.628205 314.026627 393.206731 314.026627 404.785256 314.026627 416.363782 314.026627 427.942308 314.026627 439.520833 314.026627 451.099359 314.026627 462.677885 314.026627 474.256410 257.000000 485.834936 257.000000 497.413462 257.000000 508.991987 257.000000 520.570513 237.991124 532.149038 218.982249 543.727564 199.973373 555.306090 161.955621 566.884615 161.955621"/></g><g class="series serie-4 color-4"><path class="line reactive nofill" d="M11.115385 504.115385 L22.693910 504.115385 34.272436 504.115385 45.850962 485.106509 57.429487 447.088757 69.008013 428.079882 80.586538 428.079882 92.165064 428.079882 103.743590 428.079882 115.322115 428.079882 126.900641 428.079882 138.479167 428.079882 150.057692 390.062130 161.636218 390.062130 173.214744 371.053254 184.793269 371.053254 196.371795 371.053254 207.950321 371.053254 219.528846 352.044379 231.107372 333.035503 242.685897 314.026627 254.264423 295.017751 265.842949 276.008876 277.421474 257.000000 289.000000 257.000000 300.578526 257.000000 312.157051 237.991124 323.735577 237.991124 335.314103 218.982249 346.892628 218.982249 358.471154 199.973373 370.049679 180.964497 381.628205 180.964497 393.206731 180.964497 404.785256 180.964497 416.363782 161.955621 427.942308 161.955621 439.520833 123.937870 451.099359 104.928994 462.677885 104.928994 474.256410 104.928994 485.834936 104.928994 497.413462 85.920118 508.991987 85.920118 520.570513 85.920118 532.149038 47.902367 543.727564 47.902367 555.306090 28.893491 566.884615 9.884615"/></g><g class="series serie-5 color-5"><path class="line reactive nofill" d="M11.115385 504.115385 L22.693910 504.115385 34.272436 504.115385 45.850962 504.115385 57.429487 504.115385 69.008013 504.115385 80.586538 504.115385 92.165064 504.115385 103.743590 504.115385 115.322115 504.115385 126.900641 504.115385 138.479167 485.106509 150.057692 447.088757 161.636218 447.088757 173.214744 428.079882 184.793269 428.079882 196.371795 428.079882 207.950321 428.079882 219.528846 409.071006 231.107372 409.071006 242.685897 409.071006 254.264423 409.071006 265.842949 409.071006 277.421474 409.071006 289.000000 390.062130 300.578526 390.062130 312.157051 390.062130 323.735577 390.062130 335.314103 371.053254 346.892628 352.044379 358.471154 352.044379 370.049679 352.044379 381.628205 352.044379 393.206731 333.035503 404.785256 333.035503 416.363782 333.035503 427.942308 314.026627 439.520833 314.026627 451.099359 314.026627 462.677885 314.026627 474.256410 314.026627 485.834936 295.017751 497.413462 295.017751 508.991987 295.017751 520.570513 276.008876 532.149038 276.008876 543.727564 257.000000 555.306090 257.000000 566.884615 257.000000"/></g><g class="series serie-6 color-6"><path class="line reactive nofill" d="M11.115385 504.115385 L22.693910 504.115385 34.272436 504.115385 45.850962 504.115385 57.429487 466.097633 69.008013 447.088757 80.586538 409.071006 92.165064 409.071006 103.743590 409.071006 115.322115 409.071006 126.900641 409.071006 138.479167 409.071006 150.057692 390.062130 161.636218 390.062130 173.214744 390.062130 184.793269 390.062130 196.371795 371.053254 207.950321 371.053254 219.528846 371.053254 231.107372 371.053254 242.685897 352.044379 254.264423 352.044379 265.842949 333.035503 277.421474 314.026627 289.000000 314.026627 300.578526 295.017751 312.157051 276.008876 323.735577 276.008876 335.314103 276.008876 346.892628 257.000000 358.471154 218.982249 370.049679 218.982249 381.628205 218.982249 393.206731 199.973373 404.785256 180.964497 416.363782 180.964497 427.942308 180.964497 439.520833 180.964497 451.099359 142.946746 462.677885 142.946746 474.256410 123.937870 485.834936 123.937870 497.413462 104.928994 508.991987 85.920118 520.570513 85.920118 532.149038 66.911243 543.727564 66.911243 555.306090 66.911243 566.884615 47.902367"/></g><g class="series serie-7 color-7"><path class="line reactive nofill" d="M11.115385 504.115385 L22.693910 504.115385 34.272436 504.115385 45.850962 504.115385 57.429487 504.115385 69.008013 504.115385 80.586538 504.115385 92.165064 504.115385 103.743590 504.115385 115.322115 504.115385 126.900641 504.115385 138.479167 504.115385 150.057692 504.115385 161.636218 504.115385 173.214744 504.115385 184.793269 485.106509 196.371795 485.106509 207.950321 485.106509 219.528846 466.097633 231.107372 447.088757 242.685897 428.079882 254.264423 428.079882 265.842949 409.071006 277.421474 390.062130 289.000000 390.062130 300.578526 390.062130 312.157051 390.062130 323.735577 390.062130 335.314103 371.053254 346.892628 371.053254 358.471154 371.053254 370.049679 352.044379 381.628205 352.044379 393.206731 333.035503 404.785256 333.035503 416.363782 333.035503 427.942308 333.035503 439.520833 333.035503 451.099359 333.035503 462.677885 314.026627 474.256410 295.017751 485.834936 295.017751 497.413462 276.008876 508.991987 257.000000 520.570513 257.000000 532.149038 237.991124 543.727564 218.982249 555.306090 180.964497 566.884615 161.955621"/></g><g class="series serie-8 color-8"><path class="line reactive nofill" d="M11.115385 504.115385 L22.693910 504.115385 34.272436 504.115385 45.850962 485.106509 57.429487 466.097633 69.008013 466.097633 80.586538 409.071006 92.165064 409.071006 103.743590 390.062130 115.322115 390.062130 126.900641 390.062130 138.479167 390.062130 150.057692 390.062130 161.636218 390.062130 173.214744 390.062130 184.793269 371.053254 196.371795 371.053254 207.950321 352.044379 219.528846 333.035503 231.107372 333.035503 242.685897 333.035503 254.264423 333.035503 265.842949 314.026627 277.421474 295.017751 289.000000 295.017751 300.578526 276.008876 312.157051 276.008876 323.735577 276.008876 335.314103 237.991124 346.892628 237.991124 358.471154 237.991124 370.049679 237.991124 381.628205 199.973373 393.206731 180.964497 404.785256 142.946746 416.363782 142.946746 427.942308 123.937870 439.520833 123.937870 451.099359 123.937870 462.677885 123.937870 474.256410 123.937870 485.834936 123.937870 497.413462 104.928994 508.991987 104.928994 520.570513 66.911243 532.149038 47.902367 543.727564 47.902367 555.306090 47.902367 566.884615 47.902367"/></g><g class="series serie-9 color-9"><path class="line reactive nofill" d="M11.115385 504.115385 L22.693910 504.115385 34.272436 504.115385 45.850962 504.115385 57.429487 504.115385 69.008013 485.106509 80.586538 466.097633 92.165064 466.097633 103.743590 447.088757 115.322115 447.088757 126.900641 428.079882 138.479167 428.079882 150.057692 409.071006 161.636218 409.071006 173.214744 390.062130 184.793269 371.053254 196.371795 371.053254 207.950321 371.053254 219.528846 371.053254 231.107372 352.044379 242.685897 352.044379 254.264423 352.044379 265.842949 333.035503 277.421474 333.035503 289.000000 333.035503 300.578526 333.035503 312.157051 333.035503 323.735577 314.026627 335.314103 314.026627 346.892628 295.017751 358.471154 295.017751 370.049679 295.017751 381.628205 295.017751 393.206731 295.017751 404.785256 295.017751 416.363782 295.017751 427.942308 295.017751 439.520833 276.008876 451.099359 276.008876 462.677885 276.008876 474.256410 276.008876 485.834936 276.008876 497.413462 218.982249 508.991987 218.982249 520.570513 218.982249 532.149038 199.973373 543.727564 180.964497 555.306090 180.964497 566.884615 180.964497"/></g><g class="series serie-10 color-10"><path class="line reactive nofill" d="M11.115385 504.115385 L22.693910 504.115385 34.272436 504.115385 45.850962 504.115385 57.429487 504.115385 69.008013 485.106509 80.586538 485.106509 92.165064 447.088757 103.743590 447.088757 115.322115 447.088757 126.900641 447.088757 138.479167 428.079882 150.057692 428.079882 161.636218 428.079882 173.214744 428.079882 184.793269 409.071006 196.371795 409.071006 207.950321 390.062130 219.528846 371.053254 231.107372 371.053254 242.685897 371.053254 254.264423 371.053254 265.842949 352.044379 277.421474 352.044379 289.000000 352.044379 300.578526 333.035503 312.157051 333.035503 323.735577 333.035503 335.314103 314.026627 346.892628 295.017751 358.471154 295.017751 370.049679 295.017751 381.628205 276.008876 393.206731 276.008876 404.785256 276.008876 416.363782 276.008876 427.942308 276.008876 439.520833 257.000000 451.099359 257.000000 462.677885 257.000000 474.256410 257.000000 485.834936 237.991124 497.413462 237.991124 508.991987 237.991124 520.570513 218.982249 532.149038 199.973373 543.727564 180.964497 555.306090 180.964497 566.884615 180.964497"/></g><g class="series serie-11 color-11"><path class="line reactive nofill" d="M11.115385 504.115385 L22.693910 504.115385 34.272436 504.115385 45.850962 504.115385 57.429487 504.115385 69.008013 504.115385 80.586538 504.115385 92.165064 504.115385 103.743590 504.115385 115.322115 504.115385 126.900641 504.115385 138.479167 504.115385 150.057692 504.115385 161.636218 504.115385 173.214744 504.115385 184.793269 504.115385 196.371795 504.115385 207.950321 504.115385 219.528846 504.115385 231.107372 504.115385 242.685897 504.115385 254.264423 504.115385 265.842949 504.115385 277.421474 504.115385 289.000000 485.106509 300.578526 485.106509 312.157051 485.106509 323.735577 485.106509 335.314103 485.106509 346.892628 485.106509 358.471154 485.106509 370.049679 485.106509 381.628205 485.106509 393.206731 485.106509 404.785256 485.106509 416.363782 485.106509 427.942308 485.106509 439.520833 485.106509 451.099359 485.106509 462.677885 485.106509 474.256410 485.106509 485.834936 485.106509 497.413462 485.106509 508.991987 485.106509 520.570513 485.106509 532.149038 485.106509 543.727564 485.106509 555.306090 485.106509 566.884615 485.106509"/></g><g class="series serie-12 color-12"><path class="line reactive nofill" d="M11.115385 504.115385 L22.693910 504.115385 34.272436 504.115385 45.850962 504.115385 57.429487 504.115385 69.008013 485.106509 80.586538 485.106509 92.165064 447.088757 103.743590 428.079882 115.322115 428.079882 126.900641 428.079882 138.479167 428.079882 150.057692 428.079882 161.636218 428.079882 173.214744 409.071006 184.793269 409.071006 196.371795 409.071006 207.950321 409.071006 219.528846 409.071006 231.107372 409.071006 242.685897 371.053254 254.264423 371.053254 265.842949 371.053254 277.421474 371.053254 289.000000 371.053254 300.578526 371.053254 312.157051 333.035503 323.735577 333.035503 335.314103 314.026627 346.892628 314.026627 358.471154 314.026627 370.049679 295.017751 381.628205 295.017751 393.206731 276.008876 404.785256 257.000000 416.363782 257.000000 427.942308 237.991124 439.520833 237.991124 451.099359 237.991124 462.677885 218.982249 474.256410 161.955621 485.834936 142.946746 497.413462 142.946746 508.991987 123.937870 520.570513 104.928994 532.149038 104.928994 543.727564 85.920118 555.306090 66.911243 566.884615 66.911243"/></g><g class="series serie-13 color-13"><path class="line reactive nofill" d="M11.115385 504.115385 L22.693910 504.115385 34.272436 504.115385 45.850962 504.115385 57.429487 504.115385 69.008013 504.115385 80.586538 504.115385 92.165064 504.115385 103.743590 504.115385 115.322115 504.115385 126.900641 504.115385 138.479167 504.115385 150.057692 504.115385 161.636218 504.115385 173.214744 485.106509 184.793269 485.106509 196.371795 466.097633 207.950321 466.097633 219.528846 447.088757 231.107372 447.088757 242.685897 447.088757 254.264423 428.079882 265.842949 409.071006 277.421474 409.071006 289.000000 409.071006 300.578526 409.071006 312.157051 409.071006 323.735577 409.071006 335.314103 409.071006 346.892628 409.071006 358.471154 409.071006 370.049679 409.071006 381.628205 409.071006 393.206731 409.071006 404.785256 409.071006 416.363782 390.062130 427.942308 390.062130 439.520833 390.062130 451.099359 390.062130 462.677885 371.053254 474.256410 371.053254 485.834936 352.044379 497.413462 352.044379 508.991987 352.044379 520.570513 352.044379 532.149038 352.044379 543.727564 352.044379 555.306090 352.044379 566.884615 352.044379"/></g><g class="series serie-14 color-14"><path class="line reactive nofill" d="M11.115385 504.115385 L22.693910 504.115385 34.272436 504.115385 45.850962 504.115385 57.429487 504.115385 69.008013 504.115385 80.586538 504.115385 92.165064 485.106509 103.743590 485.106509 115.322115 485.106509 126.900641 485.106509 138.479167 466.097633 150.057692 447.088757 161.636218 447.088757 173.214744 409.071006 184.793269 409.071006 196.371795 409.071006 207.950321 390.062130 219.528846 390.062130 231.107372 390.062130 242.685897 390.062130 254.264423 390.062130 265.842949 390.062130 277.421474 371.053254 289.000000 371.053254 300.578526 352.044379 312.157051 352.044379 323.735577 314.026627 335.314103 314.026627 346.892628 314.026627 358.471154 314.026627 370.049679 314.026627 381.628205 314.026627 393.206731 314.026627 404.785256 276.008876 416.363782 276.008876 427.942308 276.008876 439.520833 276.008876 451.099359 276.008876 462.677885 257.000000 474.256410 237.991124 485.834936 237.991124 497.413462 218.982249 508.991987 180.964497 520.570513 180.964497 532.149038 142.946746 543.727564 142.946746 555.306090 142.946746 566.884615 142.946746"/></g><g class="series serie-15 color-15"><path class="line reactive nofill" d="M11.115385 504.115385 L22.693910 504.115385 34.272436 504.115385 45.850962 504.115385 57.429487 504.115385 69.008013 504.115385 80.586538 504.115385 92.165064 504.115385 103.743590 504.115385 115.322115 504.115385 126.900641 504.115385 138.479167 504.115385 150.057692 504.115385 161.636218 485.106509 173.214744 466.097633 184.793269 428.079882 196.371795 428.079882 207.950321 428.079882 219.528846 428.079882 231.107372 428.079882 242.685897 409.071006 254.264423 390.062130 265.842949 390.062130 277.421474 390.062130 289.000000 390.062130 300.578526 390.062130 312.157051 390.062130 323.735577 390.062130 335.314103 390.062130 346.892628 371.053254 358.471154 352.044379 370.049679 352.044379 381.628205 333.035503 393.206731 333.035503 404.785256 314.026627 416.363782 314.026627 427.942308 314.026627 439.520833 314.026627 451.099359 314.026627 462.677885 314.026627 474.256410 314.026627 485.834936 314.026627 497.413462 314.026627 508.991987 314.026627 520.570513 295.017751 532.149038 295.017751 543.727564 257.000000 555.306090 257.000000 566.884615 257.000000"/></g><g class="series serie-16 color-0"><path class="line reactive nofill" d="M11.115385 504.115385 L22.693910 504.115385 34.272436 504.115385 45.850962 504.115385 57.429487 504.115385 69.008013 504.115385 80.586538 504.115385 92.165064 504.115385 103.743590 485.106509 115.322115 466.097633 126.900641 428.079882 138.479167 428.079882 150.057692 428.079882 161.636218 409.071006 173.214744 390.062130 184.793269 390.062130 196.371795 390.062130 207.950321 371.053254 219.528846 371.053254 231.107372 371.053254 242.685897 371.053254 254.264423 333.035503 265.842949 333.035503 277.421474 333.035503 289.000000 333.035503 300.578526 314.026627 312.157051 276.008876 323.735577 276.008876 335.314103 276.008876 346.892628 276.008876 358.471154 257.000000 370.049679 257.000000 381.628205 257.000000 393.206731 257.000000 404.785256 257.000000 416.363782 237.991124 427.942308 237.991124 439.520833 237.991124 451.099359 218.982249 462.677885 218.982249 474.256410 218.982249 485.834936 218.982249 497.413462 218.982249 508.991987 218.982249 520.570513 218.982249 532.149038 180.964497 543.727564 142.946746 555.306090 123.937870 566.884615 123.937870"/></g><g class="series serie-17 color-1"><path class="line reactive nofill" d="M11.115385 504.115385 L22.693910 504.115385 34.272436 504.115385 45.850962 485.106509 57.429487 466.097633 69.008013 466.097633 80.586538 447.088757 92.165064 447.088757 103.743590 428.079882 115.322115 428.079882 126.900641 428.079882 138.479167 409.071006 150.057692 409.071006 161.636218 409.071006 173.214744 409.071006 184.793269 390.062130 196.371795 371.053254 207.950321 371.053254 219.528846 371.053254 231.107372 371.053254 242.685897 371.053254 254.264423 371.053254 265.842949 352.044379 277.421474 333.035503 289.000000 314.026627 300.578526 295.017751 312.157051 295.017751 323.735577 295.017751 335.314103 276.008876 346.892628 276.008876 358.471154 276.008876 370.049679 276.008876 381.628205 276.008876 393.206731 257.000000 404.785256 257.000000 416.363782 257.000000 427.942308 237.991124 439.520833 218.982249 451.099359 199.973373 462.677885 199.973373 474.256410 180.964497 485.834936 161.955621 497.413462 123.937870 508.991987 104.928994 520.570513 104.928994 532.149038 85.920118 543.727564 66.911243 555.306090 66.911243 566.884615 66.911243"/></g><g class="series serie-18 color-2"><path class="line reactive nofill" d="M11.115385 504.115385 L22.693910 504.115385 34.272436 504.115385 45.850962 504.115385 57.429487 485.106509 69.008013 447.088757 80.586538 428.079882 92.165064 428.079882 103.743590 428.079882 115.322115 390.062130 126.900641 371.053254 138.479167 314.026627 150.057692 314.026627 161.636218 314.026627 173.214744 295.017751 184.793269 295.017751 196.371795 295.017751 207.950321 276.008876 219.528846 276.008876 231.107372 276.008876 242.685897 276.008876 254.264423 237.991124 265.842949 218.982249 277.421474 218.982249 289.000000 180.964497 300.578526 180.964497 312.157051 142.946746 323.735577 142.946746 335.314103 123.937870 346.892628 104.928994 358.471154 104.928994 370.049679 104.928994 381.628205 104.928994 393.206731 104.928994 404.785256 104.928994 416.363782 104.928994 427.942308 104.928994 439.520833 85.920118 451.099359 85.920118 462.677885 85.920118 474.256410 85.920118 485.834936 85.920118 497.413462 85.920118 508.991987 66.911243 520.570513 66.911243 532.149038 66.911243 543.727564 66.911243 555.306090 66.911243 566.884615 47.902367"/></g><g class="series serie-19 color-3"><path class="line reactive nofill" d="M11.115385 504.115385 L22.693910 504.115385 34.272436 504.115385 45.850962 504.115385 57.429487 466.097633 69.008013 466.097633 80.586538 466.097633 92.165064 447.088757 103.743590 447.088757 115.322115 428.079882 126.900641 428.079882 138.479167 428.079882 150.057692 409.071006 161.636218 409.071006 173.214744 390.062130 184.793269 390.062130 196.371795 390.062130 207.950321 390.062130 219.528846 390.062130 231.107372 390.062130 242.685897 390.062130 254.264423 390.062130 265.842949 390.062130 277.421474 371.053254 289.000000 352.044379 300.578526 352.044379 312.157051 333.035503 323.735577 295.017751 335.314103 257.000000 346.892628 257.000000 358.471154 257.000000 370.049679 218.982249 381.628205 218.982249 393.206731 199.973373 404.785256 199.973373 416.363782 180.964497 427.942308 180.964497 439.520833 161.955621 451.099359 161.955621 462.677885 123.937870 474.256410 104.928994 485.834936 85.920118 497.413462 85.920118 508.991987 85.920118 520.570513 85.920118 532.149038 85.920118 543.727564 66.911243 555.306090 66.911243 566.884615 66.911243"/></g><g class="series serie-20 color-4"><path class="line reactive nofill" d="M11.115385 504.115385 L22.693910 504.115385 34.272436 504.115385 45.850962 504.115385 57.429487 504.115385 69.008013 504.115385 80.586538 504.115385 92.165064 447.088757 103.743590 447.088757 115.322115 428.079882 126.900641 409.071006 138.479167 409.071006 150.057692 409.071006 161.636218 409.071006 173.214744 390.062130 184.793269 371.053254 196.371795 371.053254 207.950321 352.044379 219.528846 333.035503 231.107372 333.035503 242.685897 333.035503 254.264423 333.035503 265.842949 333.035503 277.421474 333.035503 289.000000 314.026627 300.578526 314.026627 312.157051 276.008876 323.735577 257.000000 335.314103 237.991124 346.892628 237.991124 358.471154 237.991124 370.049679 237.991124 381.628205 237.991124 393.206731 237.991124 404.785256 237.991124 416.363782 237.991124 427.942308 237.991124 439.520833 199.973373 451.099359 161.955621 462.677885 161.955621 474.256410 142.946746 485.834936 142.946746 497.413462 104.928994 508.991987 85.920118 520.570513 85.920118 532.149038 66.911243 543.727564 66.911243 555.306090 47.902367 566.884615 28.893491"/></g><g class="series serie-21 color-5"><path class="line reactive nofill" d="M11.115385 504.115385 L22.693910 504.115385 34.272436 504.115385 45.850962 504.115385 57.429487 504.115385 69.008013 504.115385 80.586538 504.115385 92.165064 466.097633 103.743590 466.097633 115.322115 447.088757 126.900641 447.088757 138.479167 447.088757 150.057692 428.079882 161.636218 428.079882 173.214744 409.071006 184.793269 409.071006 196.371795 390.062130 207.950321 390.062130 219.528846 371.053254 231.107372 371.053254 242.685897 371.053254 254.264423 371.053254 265.842949 371.053254 277.421474 371.053254 289.000000 371.053254 300.578526 352.044379 312.157051 333.035503 323.735577 314.026627 335.314103 314.026627 346.892628 314.026627 358.471154 314.026627 370.049679 314.026627 381.628205 295.017751 393.206731 295.017751 404.785256 295.017751 416.363782 295.017751 427.942308 295.017751 439.520833 257.000000 451.099359 257.000000 462.677885 257.000000 474.256410 218.982249 485.834936 199.973373 497.413462 180.964497 508.991987 180.964497 520.570513 142.946746 532.149038 142.946746 543.727564 142.946746 555.306090 142.946746 566.884615 142.946746"/></g><g class="series serie-22 color-6"><path class="line reactive nofill" d="M11.115385 504.115385 L22.693910 504.115385 34.272436 504.115385 45.850962 504.115385 57.429487 504.115385 69.008013 485.106509 80.586538 466.097633 92.165064 466.097633 103.743590 447.088757 115.322115 447.088757 126.900641 428.079882 138.479167 428.079882 150.057692 428.079882 161.636218 428.079882 173.214744 428.079882 184.793269 428.079882 196.371795 428.079882 207.950321 409.071006 219.528846 390.062130 231.107372 390.062130 242.685897 390.062130 254.264423 371.053254 265.842949 371.053254 277.421474 371.053254 289.000000 352.044379 300.578526 352.044379 312.157051 352.044379 323.735577 352.044379 335.314103 352.044379 346.892628 333.035503 358.471154 314.026627 370.049679 314.026627 381.628205 314.026627 393.206731 314.026627 404.785256 276.008876 416.363782 276.008876 427.942308 276.008876 439.520833 276.008876 451.099359 276.008876 462.677885 257.000000 474.256410 257.000000 485.834936 257.000000 497.413462 237.991124 508.991987 237.991124 520.570513 218.982249 532.149038 199.973373 543.727564 199.973373 555.306090 199.973373 566.884615 199.973373"/></g><g class="series serie-23 color-7"><path class="line reactive nofill" d="M11.115385 504.115385 L22.693910 504.115385 34.272436 504.115385 45.850962 504.115385 57.429487 504.115385 69.008013 485.106509 80.586538 485.106509 92.165064 485.106509 103.743590 485.106509 115.322115 485.106509 126.900641 485.106509 138.479167 485.106509 150.057692 485.106509 161.636218 485.106509 173.214744 466.097633 184.793269 466.097633 196.371795 466.097633 207.950321 466.097633 219.528846 466.097633 231.107372 466.097633 242.685897 466.097633 254.264423 428.079882 265.842949 428.079882 277.421474 428.079882 289.000000 428.079882 300.578526 428.079882 312.157051 409.071006 323.735577 409.071006 335.314103 409.071006 346.892628 409.071006 358.471154 409.071006 370.049679 409.071006 381.628205 409.071006 393.206731 390.062130 404.785256 390.062130 416.363782 390.062130 427.942308 390.062130 439.520833 390.062130 451.099359 390.062130 462.677885 390.062130 474.256410 371.053254 485.834936 371.053254 497.413462 371.053254 508.991987 371.053254 520.570513 371.053254 532.149038 371.053254 543.727564 371.053254 555.306090 371.053254 566.884615 371.053254"/></g><g class="series serie-24 color-8"><path class="line reactive nofill" d="M11.115385 504.115385 L22.693910 504.115385 34.272436 504.115385 45.850962 485.106509 57.429487 485.106509 69.008013 485.106509 80.586538 485.106509 92.165064 485.106509 103.743590 485.106509 115.322115 485.106509 126.900641 485.106509 138.479167 485.106509 150.057692 485.106509 161.636218 485.106509 173.214744 466.097633 184.793269 466.097633 196.371795 466.097633 207.950321 466.097633 219.528846 466.097633 231.107372 466.097633 242.685897 447.088757 254.264423 447.088757 265.842949 447.088757 277.421474 428.079882 289.000000 428.079882 300.578526 428.079882 312.157051 409.071006 323.735577 409.071006 335.314103 409.071006 346.892628 409.071006 358.471154 409.071006 370.049679 390.062130 381.628205 390.062130 393.206731 390.062130 404.785256 390.062130 416.363782 390.062130 427.942308 371.053254 439.520833 371.053254 451.099359 371.053254 462.677885 371.053254 474.256410 352.044379 485.834936 352.044379 497.413462 352.044379 508.991987 333.035503 520.570513 295.017751 532.149038 295.017751 543.727564 276.008876 555.306090 276.008876 566.884615 276.008876"/></g><g class="series serie-25 color-9"><path class="line reactive nofill" d="M11.115385 504.115385 L22.693910 504.115385 34.272436 504.115385 45.850962 504.115385 57.429487 504.115385 69.008013 504.115385 80.586538 485.106509 92.165064 485.106509 103.743590 485.106509 115.322115 485.106509 126.900641 485.106509 138.479167 485.106509 150.057692 466.097633 161.636218 466.097633 173.214744 447.088757 184.793269 428.079882 196.371795 428.079882 207.950321 428.079882 219.528846 371.053254 231.107372 352.044379 242.685897 352.044379 254.264423 352.044379 265.842949 333.035503 277.421474 333.035503 289.000000 333.035503 300.578526 314.026627 312.157051 314.026627 323.735577 314.026627 335.314103 295.017751 346.892628 295.017751 358.471154 295.017751 370.049679 295.017751 381.628205 295.017751 393.206731 257.000000 404.785256 257.000000 416.363782 257.000000 427.942308 257.000000 439.520833 257.000000 451.099359 257.000000 462.677885 237.991124 474.256410 237.991124 485.834936 237.991124 497.413462 218.982249 508.991987 218.982249 520.570513 199.973373 532.149038 180.964497 543.727564 180.964497 555.306090 180.964497 566.884615 180.964497"/></g><g class="series serie-26 color-10"><path class="line reactive nofill" d="M11.115385 504.115385 L22.693910 504.115385 34.272436 504.115385 45.850962 504.115385 57.429487 504.115385 69.008013 504.115385 80.586538 504.115385 92.165064 466.097633 103.743590 447.088757 115.322115 447.088757 126.900641 428.079882 138.479167 428.079882 150.057692 428.079882 161.636218 428.079882 173.214744 428.079882 184.793269 428.079882 196.371795 428.079882 207.950321 428.079882 219.528846 409.071006 231.107372 390.062130 242.685897 390.062130 254.264423 390.062130 265.842949 390.062130 277.421474 390.062130 289.000000 371.053254 300.578526 371.053254 312.157051 371.053254 323.735577 371.053254 335.314103 371.053254 346.892628 352.044379 358.471154 352.044379 370.049679 352.044379 381.628205 333.035503 393.206731 333.035503 404.785256 314.026627 416.363782 295.017751 427.942308 276.008876 439.520833 276.008876 451.099359 276.008876 462.677885 257.000000 474.256410 218.982249 485.834936 199.973373 497.413462 180.964497 508.991987 180.964497 520.570513 161.955621 532.149038 142.946746 543.727564 123.937870 555.306090 104.928994 566.884615 85.920118"/></g><g class="series serie-27 color-11"><path class="line reactive nofill" d="M11.115385 504.115385 L22.693910 504.115385 34.272436 504.115385 45.850962 485.106509 57.429487 466.097633 69.008013 466.097633 80.586538 447.088757 92.165064 428.079882 103.743590 428.079882 115.322115 428.079882 126.900641 409.071006 138.479167 409.071006 150.057692 409.071006 161.636218 371.053254 173.214744 371.053254 184.793269 352.044379 196.371795 352.044379 207.950321 352.044379 219.528846 352.044379 231.107372 333.035503 242.685897 333.035503 254.264423 314.026627 265.842949 314.026627 277.421474 314.026627 289.000000 314.026627 300.578526 295.017751 312.157051 276.008876 323.735577 276.008876 335.314103 276.008876 346.892628 257.000000 358.471154 237.991124 370.049679 237.991124 381.628205 218.982249 393.206731 218.982249 404.785256 199.973373 416.363782 199.973373 427.942308 199.973373 439.520833 180.964497 451.099359 180.964497 462.677885 180.964497 474.256410 180.964497 485.834936 142.946746 497.413462 142.946746 508.991987 104.928994 520.570513 104.928994 532.149038 104.928994 543.727564 104.928994 555.306090 66.911243 566.884615 66.911243"/></g><g class="series serie-28 color-12"><path class="line reactive nofill" d="M11.115385 504.115385 L22.693910 504.115385 34.272436 504.115385 45.850962 504.115385 57.429487 504.115385 69.008013 504.115385 80.586538 504.115385 92.165064 504.115385 103.743590 504.115385 115.322115 504.115385 126.900641 504.115385 138.479167 504.115385 150.057692 504.115385 161.636218 504.115385 173.214744 504.115385 184.793269 504.115385 196.371795 504.115385 207.950321 504.115385 219.528846 504.115385 231.107372 504.115385 242.685897 504.115385 254.264423 504.115385 265.842949 504.115385 277.421474 504.115385 289.000000 504.115385 300.578526 504.115385 312.157051 504.115385 323.735577 504.115385 335.314103 504.115385 346.892628 504.115385 358.471154 504.115385 370.049679 504.115385 381.628205 504.115385 393.206731 504.115385 404.785256 504.115385 416.363782 504.115385 427.942308 504.115385 439.520833 504.115385 451.099359 504.115385 462.677885 504.115385 474.256410 504.115385 485.834936 504.115385 497.413462 504.115385 508.991987 504.115385 520.570513 504.115385 532.149038 504.115385 543.727564 504.115385 555.306090 504.115385 566.884615 504.115385"/></g><g class="series serie-29 color-13"><path class="line reactive nofill" d="M11.115385 504.115385 L22.693910 504.115385 34.272436 504.115385 45.850962 504.115385 57.429487 485.106509 69.008013 466.097633 80.586538 466.097633 92.165064 447.088757 103.743590 428.079882 115.322115 428.079882 126.900641 428.079882 138.479167 428.079882 150.057692 428.079882 161.636218 428.079882 173.214744 428.079882 184.793269 428.079882 196.371795 428.079882 207.950321 428.079882 219.528846 409.071006 231.107372 390.062130 242.685897 371.053254 254.264423 371.053254 265.842949 371.053254 277.421474 352.044379 289.000000 352.044379 300.578526 352.044379 312.157051 352.044379 323.735577 333.035503 335.314103 333.035503 346.892628 333.035503 358.471154 333.035503 370.049679 333.035503 381.628205 333.035503 393.206731 314.026627 404.785256 295.017751 416.363782 295.017751 427.942308 295.017751 439.520833 295.017751 451.099359 295.017751 462.677885 295.017751 474.256410 295.017751 485.834936 295.017751 497.413462 295.017751 508.991987 295.017751 520.570513 295.017751 532.149038 295.017751 543.727564 295.017751 555.306090 295.017751 566.884615 295.017751"/></g><g class="series serie-30 color-14"><path class="line reactive nofill" d="M11.115385 504.115385 L22.693910 504.115385 34.272436 504.115385 45.850962 485.106509 57.429487 466.097633 69.008013 447.088757 80.586538 409.071006 92.165064 409.071006 103.743590 409.071006 115.322115 390.062130 126.900641 390.062130 138.479167 390.062130 150.057692 371.053254 161.636218 371.053254 173.214744 352.044379 184.793269 352.044379 196.371795 352.044379 207.950321 352.044379 219.528846 352.044379 231.107372 352.044379 242.685897 352.044379 254.264423 352.044379 265.842949 314.026627 277.421474 314.026627 289.000000 295.017751 300.578526 295.017751 312.157051 295.017751 323.735577 295.017751 335.314103 295.017751 346.892628 295.017751 358.471154 295.017751 370.049679 295.017751 381.628205 295.017751 393.206731 295.017751 404.785256 295.017751 416.363782 295.017751 427.942308 295.017751 439.520833 295.017751 451.099359 276.008876 462.677885 257.000000 474.256410 257.000000 485.834936 218.982249 497.413462 199.973373 508.991987 180.964497 520.570513 180.964497 532.149038 180.964497 543.727564 142.946746 555.306090 104.928994 566.884615 104.928994"/></g><g class="series serie-31 color-15"><path class="line reactive nofill" d="M11.115385 504.115385 L22.693910 504.115385 34.272436 504.115385 45.850962 485.106509 57.429487 466.097633 69.008013 466.097633 80.586538 447.088757 92.165064 428.079882 103.743590 428.079882 115.322115 428.079882 126.900641 409.071006 138.479167 409.071006 150.057692 409.071006 161.636218 409.071006 173.214744 409.071006 184.793269 390.062130 196.371795 390.062130 207.950321 390.062130 219.528846 371.053254 231.107372 371.053254 242.685897 371.053254 254.264423 352.044379 265.842949 352.044379 277.421474 352.044379 289.000000 352.044379 300.578526 352.044379 312.157051 333.035503 323.735577 333.035503 335.314103 333.035503 346.892628 333.035503 358.471154 314.026627 370.049679 314.026627 381.628205 314.026627 393.206731 314.026627 404.785256 314.026627 416.363782 295.017751 427.942308 295.017751 439.520833 295.017751 451.099359 295.017751 462.677885 295.017751 474.256410 276.008876 485.834936 257.000000 497.413462 257.000000 508.991987 257.000000 520.570513 237.991124 532.149038 180.964497 543.727564 180.964497 555.306090 180.964497 566.884615 161.955621"/></g></g><g class="titles"><text class="title plot_title" x="400.0" y="26">Solved Puzzles (by Team)</text></g><g class="plot overlay" transform="translate(202, 46)"><g class="series serie-12 color-12"><g class="dots"><circle class="dot reactive tooltip-trigger" cx="11.1153846154" cy="504.115384615" r="2.5"/><desc class="value">0</desc><desc class="x top">11.1153846154</desc><desc class="y top">504.115384615</desc></g><g class="dots"><circle class="dot reactive tooltip-trigger" cx="22.6939102564" cy="504.115384615" r="2.5"/><desc class="value">0</desc><desc class="x top">22.6939102564</desc><desc class="y top">504.115384615</desc></g><g class="dots"><circle class="dot reactive tooltip-trigger" cx="34.2724358974" cy="504.115384615" r="2.5"/><desc class="value">0</desc><desc class="x top">34.2724358974</desc><desc class="y top">504.115384615</desc></g><g class="dots"><circle class="dot reactive tooltip-trigger" cx="45.8509615385" cy="504.115384615" r="2.5"/><desc class="value">0</desc><desc class="x top">45.8509615385</desc><desc class="y top">504.115384615</desc></g><g class="dots"><circle class="dot reactive tooltip-trigger" cx="57.4294871795" cy="504.115384615" r="2.5"/><desc class="value">0</desc><desc class="x top">57.4294871795</desc><desc class="y top">504.115384615</desc></g><g class="dots"><circle class="dot reactive tooltip-trigger" cx="69.0080128205" cy="485.106508876" r="2.5"/><desc class="value">1</desc><desc class="x top">69.0080128205</desc><desc class="y top">485.106508876</desc></g><g class="dots"><circle class="dot reactive tooltip-trigger" cx="80.5865384615" cy="485.106508876" r="2.5"/><desc class="value">1</desc><desc class="x top">80.5865384615</desc><desc class="y top">485.106508876</desc></g><g class="dots"><circle class="dot reactive tooltip-trigger" cx="92.1650641026" cy="447.088757396" r="2.5"/><desc class="value">3</desc><desc class="x top">92.1650641026</desc><desc class="y top">447.088757396</desc></g><g class="dots"><circle class="dot reactive tooltip-trigger" cx="103.743589744" cy="428.079881657" r="2.5"/><desc class="value">4</desc><desc class="x top">103.743589744</desc><desc class="y top">428.079881657</desc></g><g class="dots"><circle class="dot reactive tooltip-trigger" cx="115.322115385" cy="428.079881657" r="2.5"/><desc class="value">4</desc><desc class="x top">115.322115385</desc><desc class="y top">428.079881657</desc></g><g class="dots"><circle class="dot reactive tooltip-trigger" cx="126.900641026" cy="428.079881657" r="2.5"/><desc class="value">4</desc><desc class="x top">126.900641026</desc><desc class="y top">428.079881657</desc></g><g class="dots"><circle class="dot reactive tooltip-trigger" cx="138.479166667" cy="428.079881657" r="2.5"/><desc class="value">4</desc><desc class="x top">138.479166667</desc><desc class="y top">428.079881657</desc></g><g class="dots"><circle class="dot reactive tooltip-trigger" cx="150.057692308" cy="428.079881657" r="2.5"/><desc class="value">4</desc><desc class="x top">150.057692308</desc><desc class="y top">428.079881657</desc></g><g class="dots"><circle class="dot reactive tooltip-trigger" cx="161.636217949" cy="428.079881657" r="2.5"/><desc class="value">4</desc><desc class="x top">161.636217949</desc><desc class="y top">428.079881657</desc></g><g class="dots"><circle class="dot reactive tooltip-trigger" cx="173.21474359" cy="409.071005917" r="2.5"/><desc class="value">5</desc><desc class="x top">173.21474359</desc><desc class="y top">409.071005917</desc></g><g class="dots"><circle class="dot reactive tooltip-trigger" cx="184.793269231" cy="409.071005917" r="2.5"/><desc class="value">5</desc><desc class="x top">184.793269231</desc><desc class="y top">409.071005917</desc></g><g class="dots"><circle class="dot reactive tooltip-trigger" cx="196.371794872" cy="409.071005917" r="2.5"/><desc class="value">5</desc><desc class="x top">196.371794872</desc><desc class="y top">409.071005917</desc></g><g class="dots"><circle class="dot reactive tooltip-trigger" cx="207.950320513" cy="409.071005917" r="2.5"/><desc class="value">5</desc><desc class="x top">207.950320513</desc><desc class="y top">409.071005917</desc></g><g class="dots"><circle class="dot reactive tooltip-trigger" cx="219.528846154" cy="409.071005917" r="2.5"/><desc class="value">5</desc><desc class="x top">219.528846154</desc><desc class="y top">409.071005917</desc></g><g class="dots"><circle class="dot reactive tooltip-trigger" cx="231.107371795" cy="409.071005917" r="2.5"/><desc class="value">5</desc><desc class="x top">231.107371795</desc><desc class="y top">409.071005917</desc></g><g class="dots"><circle class="dot reactive tooltip-trigger" cx="242.685897436" cy="371.053254438" r="2.5"/><desc class="value">7</desc><desc class="x top">242.685897436</desc><desc class="y top">371.053254438</desc></g><g class="dots"><circle class="dot reactive tooltip-trigger" cx="254.264423077" cy="371.053254438" r="2.5"/><desc class="value">7</desc><desc class="x top">254.264423077</desc><desc class="y top">371.053254438</desc></g><g class="dots"><circle class="dot reactive tooltip-trigger" cx="265.842948718" cy="371.053254438" r="2.5"/><desc class="value">7</desc><desc class="x top">265.842948718</desc><desc class="y top">371.053254438</desc></g><g class="dots"><circle class="dot reactive tooltip-trigger" cx="277.421474359" cy="371.053254438" r="2.5"/><desc class="value">7</desc><desc class="x top">277.421474359</desc><desc class="y top">371.053254438</desc></g><g class="dots"><circle class="dot reactive tooltip-trigger" cx="289.0" cy="371.053254438" r="2.5"/><desc class="value">7</desc><desc class="x top">289.0</desc><desc class="y top">371.053254438</desc></g><g class="dots"><circle class="dot reactive tooltip-trigger" cx="300.578525641" cy="371.053254438" r="2.5"/><desc class="value">7</desc><desc class="x left top">300.578525641</desc><desc class="y left top">371.053254438</desc></g><g class="dots"><circle class="dot reactive tooltip-trigger" cx="312.157051282" cy="333.035502959" r="2.5"/><desc class="value">9</desc><desc class="x left top">312.157051282</desc><desc class="y left top">333.035502959</desc></g><g class="dots"><circle class="dot reactive tooltip-trigger" cx="323.735576923" cy="333.035502959" r="2.5"/><desc class="value">9</desc><desc class="x left top">323.735576923</desc><desc class="y left top">333.035502959</desc></g><g class="dots"><circle class="dot reactive tooltip-trigger" cx="335.314102564" cy="314.026627219" r="2.5"/><desc class="value">10</desc><desc class="x left top">335.314102564</desc><desc class="y left top">314.026627219</desc></g><g class="dots"><circle class="dot reactive tooltip-trigger" cx="346.892628205" cy="314.026627219" r="2.5"/><desc class="value">10</desc><desc class="x left top">346.892628205</desc><desc class="y left top">314.026627219</desc></g><g class="dots"><circle class="dot reactive tooltip-trigger" cx="358.471153846" cy="314.026627219" r="2.5"/><desc class="value">10</desc><desc class="x left top">358.471153846</desc><desc class="y left top">314.026627219</desc></g><g class="dots"><circle class="dot reactive tooltip-trigger" cx="370.049679487" cy="295.017751479" r="2.5"/><desc class="value">11</desc><desc class="x left top">370.049679487</desc><desc class="y left top">295.017751479</desc></g><g class="dots"><circle class="dot reactive tooltip-trigger" cx="381.628205128" cy="295.017751479" r="2.5"/><desc class="value">11</desc><desc class="x left top">381.628205128</desc><desc class="y left top">295.017751479</desc></g><g class="dots"><circle class="dot reactive tooltip-trigger" cx="393.206730769" cy="276.00887574" r="2.5"/><desc class="value">12</desc><desc class="x left top">393.206730769</desc><desc class="y left top">276.00887574</desc></g><g class="dots"><circle class="dot reactive tooltip-trigger" cx="404.78525641" cy="257.0" r="2.5"/><desc class="value">13</desc><desc class="x left">404.78525641</desc><desc class="y left">257.0</desc></g><g class="dots"><circle class="dot reactive tooltip-trigger" cx="416.363782051" cy="257.0" r="2.5"/><desc class="value">13</desc><desc class="x left">416.363782051</desc><desc class="y left">257.0</desc></g><g class="dots"><circle class="dot reactive tooltip-trigger" cx="427.942307692" cy="237.99112426" r="2.5"/><desc class="value">14</desc><desc class="x left">427.942307692</desc><desc class="y left">237.99112426</desc></g><g class="dots"><circle class="dot reactive tooltip-trigger" cx="439.520833333" cy="237.99112426" r="2.5"/><desc class="value">14</desc><desc class="x left">439.520833333</desc><desc class="y left">237.99112426</desc></g><g class="dots"><circle class="dot reactive tooltip-trigger" cx="451.099358974" cy="237.99112426" r="2.5"/><desc class="value">14</desc><desc class="x left">451.099358974</desc><desc class="y left">237.99112426</desc></g><g class="dots"><circle class="dot reactive tooltip-trigger" cx="462.677884615" cy="218.982248521" r="2.5"/><desc class="value">15</desc><desc class="x left">462.677884615</desc><desc class="y left">218.982248521</desc></g><g class="dots"><circle class="dot reactive tooltip-trigger" cx="474.256410256" cy="161.955621302" r="2.5"/><desc class="value">18</desc><desc class="x left">474.256410256</desc><desc class="y left">161.955621302</desc></g><g class="dots"><circle class="dot reactive tooltip-trigger" cx="485.834935897" cy="142.946745562" r="2.5"/><desc class="value">19</desc><desc class="x left">485.834935897</desc><desc class="y left">142.946745562</desc></g><g class="dots"><circle class="dot reactive tooltip-trigger" cx="497.413461538" cy="142.946745562" r="2.5"/><desc class="value">19</desc><desc class="x left">497.413461538</desc><desc class="y left">142.946745562</desc></g><g class="dots"><circle class="dot reactive tooltip-trigger" cx="508.991987179" cy="123.937869822" r="2.5"/><desc class="value">20</desc><desc class="x left">508.991987179</desc><desc class="y left">123.937869822</desc></g><g class="dots"><circle class="dot reactive tooltip-trigger" cx="520.570512821" cy="104.928994083" r="2.5"/><desc class="value">21</desc><desc class="x left">520.570512821</desc><desc class="y left">104.928994083</desc></g><g class="dots"><circle class="dot reactive tooltip-trigger" cx="532.149038462" cy="104.928994083" r="2.5"/><desc class="value">21</desc><desc class="x left">532.149038462</desc><desc class="y left">104.928994083</desc></g><g class="dots"><circle class="dot reactive tooltip-trigger" cx="543.727564103" cy="85.9201183432" r="2.5"/><desc class="value">22</desc><desc class="x left">543.727564103</desc><desc class="y left">85.9201183432</desc></g><g class="dots"><circle class="dot reactive tooltip-trigger" cx="555.306089744" cy="66.9112426036" r="2.5"/><desc class="value">23</desc><desc class="x left">555.306089744</desc><desc class="y left">66.9112426036</desc></g><g class="dots"><circle class="dot reactive tooltip-trigger" cx="566.884615385" cy="66.9112426036" r="2.5"/><desc class="value">23</desc><desc class="x left">566.884615385</desc><desc class="y left">66.9112426036</desc></g></g><g class="series serie-18 color-2"><g class="dots"><circle class="dot reactive tooltip-trigger" cx="11.1153846154" cy="504.115384615" r="2.5"/><desc class="value">0</desc><desc class="x top">11.1153846154</desc><desc class="y top">504.115384615</desc></g><g class="dots"><circle class="dot reactive tooltip-trigger" cx="22.6939102564" cy="504.115384615" r="2.5"/><desc class="value">0</desc><desc class="x top">22.6939102564</desc><desc class="y top">504.115384615</desc></g><g class="dots"><circle class="dot reactive tooltip-trigger" cx="34.2724358974" cy="504.115384615" r="2.5"/><desc class="value">0</desc><desc class="x top">34.2724358974</desc><desc class="y top">504.115384615</desc></g><g class="dots"><circle class="dot reactive tooltip-trigger" cx="45.8509615385" cy="504.115384615" r="2.5"/><desc class="value">0</desc><desc class="x top">45.8509615385</desc><desc class="y top">504.115384615</desc></g><g class="dots"><circle class="dot reactive tooltip-trigger" cx="57.4294871795" cy="485.106508876" r="2.5"/><desc class="value">1</desc><desc class="x top">57.4294871795</desc><desc class="y top">485.106508876</desc></g><g class="dots"><circle class="dot reactive tooltip-trigger" cx="69.0080128205" cy="447.088757396" r="2.5"/><desc class="value">3</desc><desc class="x top">69.0080128205</desc><desc class="y top">447.088757396</desc></g><g class="dots"><circle class="dot reactive tooltip-trigger" cx="80.5865384615" cy="428.079881657" r="2.5"/><desc class="value">4</desc><desc class="x top">80.5865384615</desc><desc class="y top">428.079881657</desc></g><g class="dots"><circle class="dot reactive tooltip-trigger" cx="92.1650641026" cy="428.079881657" r="2.5"/><desc class="value">4</desc><desc class="x top">92.1650641026</desc><desc class="y top">428.079881657</desc></g><g class="dots"><circle class="dot reactive tooltip-trigger" cx="103.743589744" cy="428.079881657" r="2.5"/><desc class="value">4</desc><desc class="x top">103.743589744</desc><desc class="y top">428.079881657</desc></g><g class="dots"><circle class="dot reactive tooltip-trigger" cx="115.322115385" cy="390.062130178" r="2.5"/><desc class="value">6</desc><desc class="x top">115.322115385</desc><desc class="y top">390.062130178</desc></g><g class="dots"><circle class="dot reactive tooltip-trigger" cx="126.900641026" cy="371.053254438" r="2.5"/><desc class="value">7</desc><desc class="x top">126.900641026</desc><desc class="y top">371.053254438</desc></g><g class="dots"><circle class="dot reactive tooltip-trigger" cx="138.479166667" cy="314.026627219" r="2.5"/><desc class="value">10</desc><desc class="x top">138.479166667</desc><desc class="y top">314.026627219</desc></g><g class="dots"><circle class="dot reactive tooltip-trigger" cx="150.057692308" cy="314.026627219" r="2.5"/><desc class="value">10</desc><desc class="x top">150.057692308</desc><desc class="y top">314.026627219</desc></g><g class="dots"><circle class="dot reactive tooltip-trigger" cx="161.636217949" cy="314.026627219" r="2.5"/><desc class="value">10</desc><desc class="x top">161.636217949</desc><desc class="y top">314.026627219</desc></g><g class="dots"><circle class="dot reactive tooltip-trigger" cx="173.21474359" cy="295.017751479" r="2.5"/><desc class="value">11</desc><desc class="x top">173.21474359</desc><desc class="y top">295.017751479</desc></g><g class="dots"><circle class="dot reactive tooltip-trigger" cx="184.793269231" cy="295.017751479" r="2.5"/><desc class="value">11</desc><desc class="x top">184.793269231</desc><desc class="y top">295.017751479</desc></g><g class="dots"><circle class="dot reactive tooltip-trigger" cx="196.371794872" cy="295.017751479" r="2.5"/><desc class="value">11</desc><desc class="x top">196.371794872</desc><desc class="y top">295.017751479</desc></g><g class="dots"><circle class="dot reactive tooltip-trigger" cx="207.950320513" cy="276.00887574" r="2.5"/><desc class="value">12</desc><desc class="x top">207.950320513</desc><desc class="y top">276.00887574</desc></g><g class="dots"><circle class="dot reactive tooltip-trigger" cx="219.528846154" cy="276.00887574" r="2.5"/><desc class="value">12</desc><desc class="x top">219.528846154</desc><desc class="y top">276.00887574</desc></g><g class="dots"><circle class="dot reactive tooltip-trigger" cx="231.107371795" cy="276.00887574" r="2.5"/><desc class="value">12</desc><desc class="x top">231.107371795</desc><desc class="y top">276.00887574</desc></g><g class="dots"><circle class="dot reactive tooltip-trigger" cx="242.685897436" cy="276.00887574" r="2.5"/><desc class="value">12</desc><desc class="x top">242.685897436</desc><desc class="y top">276.00887574</desc></g><g class="dots"><circle class="dot reactive tooltip-trigger" cx="254.264423077" cy="237.99112426" r="2.5"/><desc class="value">14</desc><desc class="x ">254.264423077</desc><desc class="y ">237.99112426</desc></g><g class="dots"><circle class="dot reactive tooltip-trigger" cx="265.842948718" cy="218.982248521" r="2.5"/><desc class="value">15</desc><desc class="x ">265.842948718</desc><desc class="y ">218.982248521</desc></g><g class="dots"><circle class="dot reactive tooltip-trigger" cx="277.421474359" cy="218.982248521" r="2.5"/><desc class="value">15</desc><desc class="x ">277.421474359</desc><desc class="y ">218.982248521</desc></g><g class="dots"><circle class="dot reactive tooltip-trigger" cx="289.0" cy="180.964497041" r="2.5"/><desc class="value">17</desc><desc class="x ">289.0</desc><desc class="y ">180.964497041</desc></g><g class="dots"><circle class="dot reactive tooltip-trigger" cx="300.578525641" cy="180.964497041" r="2.5"/><desc class="value">17</desc><desc class="x left">300.578525641</desc><desc class="y left">180.964497041</desc></g><g class="dots"><circle class="dot reactive tooltip-trigger" cx="312.157051282" cy="142.946745562" r="2.5"/><desc class="value">19</desc><desc class="x left">312.157051282</desc><desc class="y left">142.946745562</desc></g><g class="dots"><circle class="dot reactive tooltip-trigger" cx="323.735576923" cy="142.946745562" r="2.5"/><desc class="value">19</desc><desc class="x left">323.735576923</desc><desc class="y left">142.946745562</desc></g><g class="dots"><circle class="dot reactive tooltip-trigger" cx="335.314102564" cy="123.937869822" r="2.5"/><desc class="value">20</desc><desc class="x left">335.314102564</desc><desc class="y left">123.937869822</desc></g><g class="dots"><circle class="dot reactive tooltip-trigger" cx="346.892628205" cy="104.928994083" r="2.5"/><desc class="value">21</desc><desc class="x left">346.892628205</desc><desc class="y left">104.928994083</desc></g><g class="dots"><circle class="dot reactive tooltip-trigger" cx="358.471153846" cy="104.928994083" r="2.5"/><desc class="value">21</desc><desc class="x left">358.471153846</desc><desc class="y left">104.928994083</desc></g><g class="dots"><circle class="dot reactive tooltip-trigger" cx="370.049679487" cy="104.928994083" r="2.5"/><desc class="value">21</desc><desc class="x left">370.049679487</desc><desc class="y left">104.928994083</desc></g><g class="dots"><circle class="dot reactive tooltip-trigger" cx="381.628205128" cy="104.928994083" r="2.5"/><desc class="value">21</desc><desc class="x left">381.628205128</desc><desc class="y left">104.928994083</desc></g><g class="dots"><circle class="dot reactive tooltip-trigger" cx="393.206730769" cy="104.928994083" r="2.5"/><desc class="value">21</desc><desc class="x left">393.206730769</desc><desc class="y left">104.928994083</desc></g><g class="dots"><circle class="dot reactive tooltip-trigger" cx="404.78525641" cy="104.928994083" r="2.5"/><desc class="value">21</desc><desc class="x left">404.78525641</desc><desc class="y left">104.928994083</desc></g><g class="dots"><circle class="dot reactive tooltip-trigger" cx="416.363782051" cy="104.928994083" r="2.5"/><desc class="value">21</desc><desc class="x left">416.363782051</desc><desc class="y left">104.928994083</desc></g><g class="dots"><circle class="dot reactive tooltip-trigger" cx="427.942307692" cy="104.928994083" r="2.5"/><desc class="value">21</desc><desc class="x left">427.942307692</desc><desc class="y left">104.928994083</desc></g><g class="dots"><circle class="dot reactive tooltip-trigger" cx="439.520833333" cy="85.9201183432" r="2.5"/><desc class="value">22</desc><desc class="x left">439.520833333</desc><desc class="y left">85.9201183432</desc></g><g class="dots"><circle class="dot reactive tooltip-trigger" cx="451.099358974" cy="85.9201183432" r="2.5"/><desc class="value">22</desc><desc class="x left">451.099358974</desc><desc class="y left">85.9201183432</desc></g><g class="dots"><circle class="dot reactive tooltip-trigger" cx="462.677884615" cy="85.9201183432" r="2.5"/><desc class="value">22</desc><desc class="x left">462.677884615</desc><desc class="y left">85.9201183432</desc></g><g class="dots"><circle class="dot reactive tooltip-trigger" cx="474.256410256" cy="85.9201183432" r="2.5"/><desc class="value">22</desc><desc class="x left">474.256410256</desc><desc class="y left">85.9201183432</desc></g><g class="dots"><circle class="dot reactive tooltip-trigger" cx="485.834935897" cy="85.9201183432" r="2.5"/><desc class="value">22</desc><desc class="x left">485.834935897</desc><desc class="y left">85.9201183432</desc></g><g class="dots"><circle class="dot reactive tooltip-trigger" cx="497.413461538" cy="85.9201183432" r="2.5"/><desc class="value">22</desc><desc class="x left">497.413461538</desc><desc class="y left">85.9201183432</desc></g><g class="dots"><circle class="dot reactive tooltip-trigger" cx="508.991987179" cy="66.9112426036" r="2.5"/><desc class="value">23</desc><desc class="x left">508.991987179</desc><desc class="y left">66.9112426036</desc></g><g class="dots"><circle class="dot reactive tooltip-trigger" cx="520.570512821" cy="66.9112426036" r="2.5"/><desc class="value">23</desc><desc class="x left">520.570512821</desc><desc class="y left">66.9112426036</desc></g><g class="dots"><circle class="dot reactive tooltip-trigger" cx="532.149038462" cy="66.9112426036" r="2.5"/><desc class="value">23</desc><desc class="x left">532.149038462</desc><desc class="y left">66.9112426036</desc></g><g class="dots"><circle class="dot reactive tooltip-trigger" cx="543.727564103" cy="66.9112426036" r="2.5"/><desc class="value">23</desc><desc class="x left">543.727564103</desc><desc class="y left">66.9112426036</desc></g><g class="dots"><circle class="dot reactive tooltip-trigger" cx="555.306089744" cy="66.9112426036" r="2.5"/><desc class="value">23</desc><desc class="x left">555.306089744</desc><desc class="y left">66.9112426036</desc></g><g class="dots"><circle class="dot reactive tooltip-trigger" cx="566.884615385" cy="47.9023668639" r="2.5"/><desc class="value">24</desc><desc class="x left">566.884615385</desc><desc class="y left">47.9023668639</desc></g></g><g class="series serie-20 color-4"><g class="dots"><circle class="dot reactive tooltip-trigger" cx="11.1153846154" cy="504.115384615" r="2.5"/><desc class="value">0</desc><desc class="x top">11.1153846154</desc><desc class="y top">504.115384615</desc></g><g class="dots"><circle class="dot reactive tooltip-trigger" cx="22.6939102564" cy="504.115384615" r="2.5"/><desc class="value">0</desc><desc class="x top">22.6939102564</desc><desc class="y top">504.115384615</desc></g><g class="dots"><circle class="dot reactive tooltip-trigger" cx="34.2724358974" cy="504.115384615" r="2.5"/><desc class="value">0</desc><desc class="x top">34.2724358974</desc><desc class="y top">504.115384615</desc></g><g class="dots"><circle class="dot reactive tooltip-trigger" cx="45.8509615385" cy="504.115384615" r="2.5"/><desc class="value">0</desc><desc class="x top">45.8509615385</desc><desc class="y top">504.115384615</desc></g><g class="dots"><circle class="dot reactive tooltip-trigger" cx="57.4294871795" cy="504.115384615" r="2.5"/><desc class="value">0</desc><desc class="x top">57.4294871795</desc><desc class="y top">504.115384615</desc></g><g class="dots"><circle class="dot reactive tooltip-trigger" cx="69.0080128205" cy="504.115384615" r="2.5"/><desc class="value">0</desc><desc class="x top">69.0080128205</desc><desc class="y top">504.115384615</desc></g><g class="dots"><circle class="dot reactive tooltip-trigger" cx="80.5865384615" cy="504.115384615" r="2.5"/><desc class="value">0</desc><desc class="x top">80.5865384615</desc><desc class="y top">504.115384615</desc></g><g class="dots"><circle class="dot reactive tooltip-trigger" cx="92.1650641026" cy="447.088757396" r="2.5"/><desc class="value">3</desc><desc class="x top">92.1650641026</desc><desc class="y top">447.088757396</desc></g><g class="dots"><circle class="dot reactive tooltip-trigger" cx="103.743589744" cy="447.088757396" r="2.5"/><desc class="value">3</desc><desc class="x top">103.743589744</desc><desc class="y top">447.088757396</desc></g><g class="dots"><circle class="dot reactive tooltip-trigger" cx="115.322115385" cy="428.079881657" r="2.5"/><desc class="value">4</desc><desc class="x top">115.322115385</desc><desc class="y top">428.079881657</desc></g><g class="dots"><circle class="dot reactive tooltip-trigger" cx="126.900641026" cy="409.071005917" r="2.5"/><desc class="value">5</desc><desc class="x top">126.900641026</desc><desc class="y top">409.071005917</desc></g><g class="dots"><circle class="dot reactive tooltip-trigger" cx="138.479166667" cy="409.071005917" r="2.5"/><desc class="value">5</desc><desc class="x top">138.479166667</desc><desc class="y top">409.071005917</desc></g><g class="dots"><circle class="dot reactive tooltip-trigger" cx="150.057692308" cy="409.071005917" r="2.5"/><desc class="value">5</desc><desc class="x top">150.057692308</desc><desc class="y top">409.071005917</desc></g><g class="dots"><circle class="dot reactive tooltip-trigger" cx="161.636217949" cy="409.071005917" r="2.5"/><desc class="value">5</desc><desc class="x top">161.636217949</desc><desc class="y top">409.071005917</desc></g><g class="dots"><circle class="dot reactive tooltip-trigger" cx="173.21474359" cy="390.062130178" r="2.5"/><desc class="value">6</desc><desc class="x top">173.21474359</desc><desc class="y top">390.062130178</desc></g><g class="dots"><circle class="dot reactive tooltip-trigger" cx="184.793269231" cy="371.053254438" r="2.5"/><desc class="value">7</desc><desc class="x top">184.793269231</desc><desc class="y top">371.053254438</desc></g><g class="dots"><circle class="dot reactive tooltip-trigger" cx="196.371794872" cy="371.053254438" r="2.5"/><desc class="value">7</desc><desc class="x top">196.371794872</desc><desc class="y top">371.053254438</desc></g><g class="dots"><circle class="dot reactive tooltip-trigger" cx="207.950320513" cy="352.044378698" r="2.5"/><desc class="value">8</desc><desc class="x top">207.950320513</desc><desc class="y top">352.044378698</desc></g><g class="dots"><circle class="dot reactive tooltip-trigger" cx="219.528846154" cy="333.035502959" r="2.5"/><desc class="value">9</desc><desc class="x top">219.528846154</desc><desc class="y top">333.035502959</desc></g><g class="dots"><circle class="dot reactive tooltip-trigger" cx="231.107371795" cy="333.035502959" r="2.5"/><desc class="value">9</desc><desc class="x top">231.107371795</desc><desc class="y top">333.035502959</desc></g><g class="dots"><circle class="dot reactive tooltip-trigger" cx="242.685897436" cy="333.035502959" r="2.5"/><desc class="value">9</desc><desc class="x top">242.685897436</desc><desc class="y top">333.035502959</desc></g><g class="dots"><circle class="dot reactive tooltip-trigger" cx="254.264423077" cy="333.035502959" r="2.5"/><desc class="value">9</desc><desc class="x top">254.264423077</desc><desc class="y top">333.035502959</desc></g><g class="dots"><circle class="dot reactive tooltip-trigger" cx="265.842948718" cy="333.035502959" r="2.5"/><desc class="value">9</desc><desc class="x top">265.842948718</desc><desc class="y top">333.035502959</desc></g><g class="dots"><circle class="dot reactive tooltip-trigger" cx="277.421474359" cy="333.035502959" r="2.5"/><desc class="value">9</desc><desc class="x top">277.421474359</desc><desc class="y top">333.035502959</desc></g><g class="dots"><circle class="dot reactive tooltip-trigger" cx="289.0" cy="314.026627219" r="2.5"/><desc class="value">10</desc><desc class="x top">289.0</desc><desc class="y top">314.026627219</desc></g><g class="dots"><circle class="dot reactive tooltip-trigger" cx="300.578525641" cy="314.026627219" r="2.5"/><desc class="value">10</desc><desc class="x left top">300.578525641</desc><desc class="y left top">314.026627219</desc></g><g class="dots"><circle class="dot reactive tooltip-trigger" cx="312.157051282" cy="276.00887574" r="2.5"/><desc class="value">12</desc><desc class="x left top">312.157051282</desc><desc class="y left top">276.00887574</desc></g><g class="dots"><circle class="dot reactive tooltip-trigger" cx="323.735576923" cy="257.0" r="2.5"/><desc class="value">13</desc><desc class="x left">323.735576923</desc><desc class="y left">257.0</desc></g><g class="dots"><circle class="dot reactive tooltip-trigger" cx="335.314102564" cy="237.99112426" r="2.5"/><desc class="value">14</desc><desc class="x left">335.314102564</desc><desc class="y left">237.99112426</desc></g><g class="dots"><circle class="dot reactive tooltip-trigger" cx="346.892628205" cy="237.99112426" r="2.5"/><desc class="value">14</desc><desc class="x left">346.892628205</desc><desc class="y left">237.99112426</desc></g><g class="dots"><circle class="dot reactive tooltip-trigger" cx="358.471153846" cy="237.99112426" r="2.5"/><desc class="value">14</desc><desc class="x left">358.471153846</desc><desc class="y left">237.99112426</desc></g><g class="dots"><circle class="dot reactive tooltip-trigger" cx="370.049679487" cy="237.99112426" r="2.5"/><desc class="value">14</desc><desc class="x left">370.049679487</desc><desc class="y left">237.99112426</desc></g><g class="dots"><circle class="dot reactive tooltip-trigger" cx="381.628205128" cy="237.99112426" r="2.5"/><desc class="value">14</desc><desc class="x left">381.628205128</desc><desc class="y left">237.99112426</desc></g><g class="dots"><circle class="dot reactive tooltip-trigger" cx="393.206730769" cy="237.99112426" r="2.5"/><desc class="value">14</desc><desc class="x left">393.206730769</desc><desc class="y left">237.99112426</desc></g><g class="dots"><circle class="dot reactive tooltip-trigger" cx="404.78525641" cy="237.99112426" r="2.5"/><desc class="value">14</desc><desc class="x left">404.78525641</desc><desc class="y left">237.99112426</desc></g><g class="dots"><circle class="dot reactive tooltip-trigger" cx="416.363782051" cy="237.99112426" r="2.5"/><desc class="value">14</desc><desc class="x left">416.363782051</desc><desc class="y left">237.99112426</desc></g><g class="dots"><circle class="dot reactive tooltip-trigger" cx="427.942307692" cy="237.99112426" r="2.5"/><desc class="value">14</desc><desc class="x left">427.942307692</desc><desc class="y left">237.99112426</desc></g><g class="dots"><circle class="dot reactive tooltip-trigger" cx="439.520833333" cy="199.973372781" r="2.5"/><desc class="value">16</desc><desc class="x left">439.520833333</desc><desc class="y left">199.973372781</desc></g><g class="dots"><circle class="dot reactive tooltip-trigger" cx="451.099358974" cy="161.955621302" r="2.5"/><desc class="value">18</desc><desc class="x left">451.099358974</desc><desc class="y left">161.955621302</desc></g><g class="dots"><circle class="dot reactive tooltip-trigger" cx="462.677884615" cy="161.955621302" r="2.5"/><desc class="value">18</desc><desc class="x left">462.677884615</desc><desc class="y left">161.955621302</desc></g><g class="dots"><circle class="dot reactive tooltip-trigger" cx="474.256410256" cy="142.946745562" r="2.5"/><desc class="value">19</desc><desc class="x left">474.256410256</desc><desc class="y left">142.946745562</desc></g><g class="dots"><circle class="dot reactive tooltip-trigger" cx="485.834935897" cy="142.946745562" r="2.5"/><desc class="value">19</desc><desc class="x left">485.834935897</desc><desc class="y left">142.946745562</desc></g><g class="dots"><circle class="dot reactive tooltip-trigger" cx="497.413461538" cy="104.928994083" r="2.5"/><desc class="value">21</desc><desc class="x left">497.413461538</desc><desc class="y left">104.928994083</desc></g><g class="dots"><circle class="dot reactive tooltip-trigger" cx="508.991987179" cy="85.9201183432" r="2.5"/><desc class="value">22</desc><desc class="x left">508.991987179</desc><desc class="y left">85.9201183432</desc></g><g class="dots"><circle class="dot reactive tooltip-trigger" cx="520.570512821" cy="85.9201183432" r="2.5"/><desc class="value">22</desc><desc class="x left">520.570512821</desc><desc class="y left">85.9201183432</desc></g><g class="dots"><circle class="dot reactive tooltip-trigger" cx="532.149038462" cy="66.9112426036" r="2.5"/><desc class="value">23</desc><desc class="x left">532.149038462</desc><desc class="y left">66.9112426036</desc></g><g class="dots"><circle class="dot reactive tooltip-trigger" cx="543.727564103" cy="66.9112426036" r="2.5"/><desc class="value">23</desc><desc class="x left">543.727564103</desc><desc class="y left">66.9112426036</desc></g><g class="dots"><circle class="dot reactive tooltip-trigger" cx="555.306089744" cy="47.9023668639" r="2.5"/><desc class="value">24</desc><desc class="x left">555.306089744</desc><desc class="y left">47.9023668639</desc></g><g class="dots"><circle class="dot reactive tooltip-trigger" cx="566.884615385" cy="28.8934911243" r="2.5"/><desc class="value">25</desc><desc class="x left">566.884615385</desc><desc class="y left">28.8934911243</desc></g></g></g><g class="plot text-overlay" transform="translate(202, 46)"><g class="series serie-0 color-0"/><g class="series serie-1 color-1"/><g class="series serie-2 color-2"/><g class="series serie-3 color-3"/><g class="series serie-4 color-4"/><g class="series serie-5 color-5"/><g class="series serie-6 color-6"/><g class="series serie-7 color-7"/><g class="series serie-8 color-8"/><g class="series serie-9 color-9"/><g class="series serie-10 color-10"/><g class="series serie-11 color-11"/><g class="series serie-12 color-12"/><g class="series serie-13 color-13"/><g class="series serie-14 color-14"/><g class="series serie-15 color-15"/><g class="series serie-16 color-0"/><g class="series serie-17 color-1"/><g class="series serie-18 color-2"/><g class="series serie-19 color-3"/><g class="series serie-20 color-4"/><g class="series serie-21 color-5"/><g class="series serie-22 color-6"/><g class="series serie-23 color-7"/><g class="series serie-24 color-8"/><g class="series serie-25 color-9"/><g class="series serie-26 color-10"/><g class="series serie-27 color-11"/><g class="series serie-28 color-12"/><g class="series serie-29 color-13"/><g class="series serie-30 color-14"/><g class="series serie-31 color-15"/></g><g class="plot tooltip-overlay" transform="translate(202, 46)"><g class="tooltip" style="opacity: 0" transform="translate(0 0)"><a><rect class="tooltip-box" height="0" rx="0" ry="0" width="0"/><text class="text"><tspan class="label"/><tspan class="value"/></text></a></g></g><g class="legends" transform="translate(10, 56)"><g class="legend reactive activate-serie" id="activate-serie-0"><rect class="color-0 reactive" height="12" width="12" x="0.0" y="1.0"/><text x="17.0" y="11.2">(&gt;^.^)&gt;</text></g><g class="legend reactive activate-serie" id="activate-serie-1"><rect class="color-1 reactive" height="12" width="12" x="0.0" y="22.0"/><text x="17.0" y="32.2">Ansatz</text></g><g class="legend reactive activate-serie" id="activate-serie-2"><rect class="color-2 reactive" height="12" width="12" x="0.0" y="43.0"/><text x="17.0" y="53.2">Black Fedora G…</text><title>Black Fedora Group</title></g><g class="legend reactive activate-serie" id="activate-serie-3"><rect class="color-3 reactive" height="12" width="12" x="0.0" y="64.0"/><text x="17.0" y="74.2">Caramels Sr.</text></g><g class="legend reactive activate-serie" id="activate-serie-4"><rect class="color-4 reactive" height="12" width="12" x="0.0" y="85.0"/><text x="17.0" y="95.2">Chicken N ROFLs</text></g><g class="legend reactive activate-serie" id="activate-serie-5"><rect class="color-5 reactive" height="12" width="12" x="0.0" y="106.0"/><text x="17.0" y="116.2">chuchumbas</text></g><g class="legend reactive activate-serie" id="activate-serie-6"><rect class="color-6 reactive" height="12" width="12" x="0.0" y="127.0"/><text x="17.0" y="137.2">Conduction Band</text></g><g class="legend reactive activate-serie" id="activate-serie-7"><rect class="color-7 reactive" height="12" width="12" x="0.0" y="148.0"/><text x="17.0" y="158.2">DoodleBug</text></g><g class="legend reactive activate-serie" id="activate-serie-8"><rect class="color-8 reactive" height="12" width="12" x="0.0" y="169.0"/><text x="17.0" y="179.2">Faster-Than-Yo…</text><title>Faster-Than-Your-Mom Neutrinos</title></g><g class="legend reactive activate-serie" id="activate-serie-9"><rect class="color-9 reactive" height="12" width="12" x="0.0" y="190.0"/><text x="17.0" y="200.2">Herp de Derp</text></g><g class="legend reactive activate-serie" id="activate-serie-10"><rect class="color-10 reactive" height="12" width="12" x="0.0" y="211.0"/><text x="17.0" y="221.2">jĵj|j|I¡j¡ijiI…</text><title>jĵj|j|I¡j¡ijiII|I¡¡II|IłɩIjiiƪi¡¡¡II|IjIIǁIII|!!!¡!</title></g><g class="legend reactive activate-serie" id="activate-serie-11"><rect class="color-11 reactive" height="12" width="12" x="0.0" y="232.0"/><text x="17.0" y="242.2">Karmarama 2000</text></g><g class="legend reactive activate-serie" id="activate-serie-12"><rect class="color-12 reactive" height="12" width="12" x="0.0" y="253.0"/><text x="17.0" y="263.2">kernel panic</text></g><g class="legend reactive activate-serie" id="activate-serie-13"><rect class="color-13 reactive" height="12" width="12" x="0.0" y="274.0"/><text x="17.0" y="284.2">Lambdas</text></g><g class="legend reactive activate-serie" id="activate-serie-14"><rect class="color-14 reactive" height="12" width="12" x="0.0" y="295.0"/><text x="17.0" y="305.2">mangoeaters</text></g><g class="legend reactive activate-serie" id="activate-serie-15"><rect class="color-15 reactive" height="12" width="12" x="0.0" y="316.0"/><text x="17.0" y="326.2">Not a Name (Na…</text><title>Not a Name (NaN)</title></g><g class="legend reactive activate-serie" id="activate-serie-16"><rect class="color-0 reactive" height="12" width="12" x="0.0" y="337.0"/><text x="17.0" y="347.2">Nudist Beach</text></g><g class="legend reactive activate-serie" id="activate-serie-17"><rect class="color-1 reactive" height="12" width="12" x="0.0" y="358.0"/><text x="17.0" y="368.2">Purple Mollusk</text></g><g class="legend reactive activate-serie" id="activate-serie-18"><rect class="color-2 reactive" height="12" width="12" x="0.0" y="379.0"/><text x="17.0" y="389.2">Puzzlin' Wugs</text></g><g class="legend reactive activate-serie" id="activate-serie-19"><rect class="color-3 reactive" height="12" width="12" x="0.0" y="400.0"/><text x="17.0" y="410.2">QBRNKNBR</text></g><g class="legend reactive activate-serie" id="activate-serie-20"><rect class="color-4 reactive" height="12" width="12" x="0.0" y="421.0"/><text x="17.0" y="431.2">Repuzzlization…</text><title>Repuzzlization Group</title></g><g class="legend reactive activate-serie" id="activate-serie-21"><rect class="color-5 reactive" height="12" width="12" x="0.0" y="442.0"/><text x="17.0" y="452.2">Swaggin' Drago…</text><title>Swaggin' Dragons</title></g><g class="legend reactive activate-serie" id="activate-serie-22"><rect class="color-6 reactive" height="12" width="12" x="0.0" y="463.0"/><text x="17.0" y="473.2">Swingin' and S…</text><title>Swingin' and Solvin'</title></g><g class="legend reactive activate-serie" id="activate-serie-23"><rect class="color-7 reactive" height="12" width="12" x="0.0" y="484.0"/><text x="17.0" y="494.2">Team Kevin</text></g><g class="legend reactive activate-serie" id="activate-serie-24"><rect class="color-8 reactive" height="12" width="12" x="0.0" y="505.0"/><text x="17.0" y="515.2">Team Surfbort</text></g><g class="legend reactive activate-serie" id="activate-serie-25"><rect class="color-9 reactive" height="12" width="12" x="0.0" y="526.0"/><text x="17.0" y="536.2">Team Team Inve…</text><title>Team Team Inverse - It's Our Identity</title></g><g class="legend reactive activate-serie" id="activate-serie-26"><rect class="color-10 reactive" height="12" width="12" x="0.0" y="547.0"/><text x="17.0" y="557.2">The Hateful K8</text></g><g class="legend reactive activate-serie" id="activate-serie-27"><rect class="color-11 reactive" height="12" width="12" x="0.0" y="568.0"/><text x="17.0" y="578.2">The Pork Belly…</text><title>The Pork Belly Futurists</title></g><g class="legend reactive activate-serie" id="activate-serie-28"><rect class="color-12 reactive" height="12" width="12" x="0.0" y="589.0"/><text x="17.0" y="599.2">The Regents</text></g><g class="legend reactive activate-serie" id="activate-serie-29"><rect class="color-13 reactive" height="12" width="12" x="0.0" y="610.0"/><text x="17.0" y="620.2">Ubermensch</text></g><g class="legend reactive activate-serie" id="activate-serie-30"><rect class="color-14 reactive" height="12" width="12" x="0.0" y="631.0"/><text x="17.0" y="641.2">Ursari Plumbers</text></g><g class="legend reactive activate-serie" id="activate-serie-31"><rect class="color-15 reactive" height="12" width="12" x="0.0" y="652.0"/><text x="17.0" y="662.2">ΒΨΟΒ</text></g></g><g class="legends" transform="translate(790, 56)"/></g></svg>