<?xml version="1.0" encoding="UTF-8"?>
<svg xmlns:xlink="http://www.w3.org/1999/xlink" class="pygal-chart" id="chart-9eb5a814-23f4-46ec-8a1b-26f54c870eff" viewBox="0 0 800 600" xmlns="http://www.w3.org/2000/svg"><!--Generated with pygal 1.7.0 (etree) ©Kozea 2011-2014 on 2015-05-03--><!--http://pygal.org--><!--http://github.com/Kozea/pygal--><defs><style type="text/css">#chart-9eb5a814-23f4-46ec-8a1b-26f54c870eff .title{font-family:"monospace";font-size:16px}#chart-9eb5a814-23f4-46ec-8a1b-26f54c870eff .legends .legend text{font-family:"monospace";font-size:14px}#chart-9eb5a814-23f4-46ec-8a1b-26f54c870eff .axis text{font-family:"monospace";font-size:10px}#chart-9eb5a814-23f4-46ec-8a1b-26f54c870eff .axis text.major{font-family:"monospace";font-size:10px}#chart-9eb5a814-23f4-46ec-8a1b-26f54c870eff .series text{font-family:"monospace";font-size:8px}#chart-9eb5a814-23f4-46ec-8a1b-26f54c870eff .tooltip text{font-family:"monospace";font-size:16px}#chart-9eb5a814-23f4-46ec-8a1b-26f54c870eff text.no_data{font-size:64px}
#chart-9eb5a814-23f4-46ec-8a1b-26f54c870eff{background-color:black}#chart-9eb5a814-23f4-46ec-8a1b-26f54c870eff path,#chart-9eb5a814-23f4-46ec-8a1b-26f54c870eff line,#chart-9eb5a814-23f4-46ec-8a1b-26f54c870eff rect,#chart-9eb5a814-23f4-46ec-8a1b-26f54c870eff circle{-webkit-transition:250ms;-moz-transition:250ms;transition:250ms}#chart-9eb5a814-23f4-46ec-8a1b-26f54c870eff .graph &gt; .background{fill:black}#chart-9eb5a814-23f4-46ec-8a1b-26f54c870eff .plot &gt; .background{fill:#111}#chart-9eb5a814-23f4-46ec-8a1b-26f54c870eff .graph{fill:#999}#chart-9eb5a814-23f4-46ec-8a1b-26f54c870eff text.no_data{fill:#eee}#chart-9eb5a814-23f4-46ec-8a1b-26f54c870eff .title{fill:#eee}#chart-9eb5a814-23f4-46ec-8a1b-26f54c870eff .legends .legend text{fill:#999}#chart-9eb5a814-23f4-46ec-8a1b-26f54c870eff .legends .legend:hover text{fill:#eee}#chart-9eb5a814-23f4-46ec-8a1b-26f54c870eff .axis .line{stroke:#eee}#chart-9eb5a814-23f4-46ec-8a1b-26f54c870eff .axis .guide.line{stroke:#555}#chart-9eb5a814-23f4-46ec-8a1b-26f54c870eff .axis .major.line{stroke:#999}#chart-9eb5a814-23f4-46ec-8a1b-26f54c870eff .axis text.major{stroke:#eee;fill:#eee}#chart-9eb5a814-23f4-46ec-8a1b-26f54c870eff .axis.y .guides:hover .guide.line,#chart-9eb5a814-23f4-46ec-8a1b-26f54c870eff .line-graph .axis.x .guides:hover .guide.line,#chart-9eb5a814-23f4-46ec-8a1b-26f54c870eff .stackedline-graph .axis.x .guides:hover .guide.line,#chart-9eb5a814-23f4-46ec-8a1b-26f54c870eff .xy-graph .axis.x .guides:hover .guide.line{stroke:#eee}#chart-9eb5a814-23f4-46ec-8a1b-26f54c870eff .axis .guides:hover text{fill:#eee}#chart-9eb5a814-23f4-46ec-8a1b-26f54c870eff .reactive{fill-opacity:.8}#chart-9eb5a814-23f4-46ec-8a1b-26f54c870eff .reactive.active,#chart-9eb5a814-23f4-46ec-8a1b-26f54c870eff .active .reactive{fill-opacity:.4}#chart-9eb5a814-23f4-46ec-8a1b-26f54c870eff .series{stroke-width:1.0;stroke-linejoin:round;stroke-linecap:round;stroke-dasharray:0,0}#chart-9eb5a814-23f4-46ec-8a1b-26f54c870eff .series text{fill:#eee}#chart-9eb5a814-23f4-46ec-8a1b-26f54c870eff .tooltip rect{fill:#111;stroke:#eee}#chart-9eb5a814-23f4-46ec-8a1b-26f54c870eff .tooltip text{fill:#eee}#chart-9eb5a814-23f4-46ec-8a1b-26f54c870eff .map-element{fill:#999;stroke:#555 !important;opacity:.9;stroke-width:3;-webkit-transition:250ms;-moz-transition:250ms;-o-transition:250ms;transition:250ms}#chart-9eb5a814-23f4-46ec-8a1b-26f54c870eff .map-element:hover{opacity:1;stroke-width:10}#chart-9eb5a814-23f4-46ec-8a1b-26f54c870eff .color-0,#chart-9eb5a814-23f4-46ec-8a1b-26f54c870eff .color-0 a:visited{stroke:#ff5995;fill:#ff5995}#chart-9eb5a814-23f4-46ec-8a1b-26f54c870eff .color-1,#chart-9eb5a814-23f4-46ec-8a1b-26f54c870eff .color-1 a:visited{stroke:#b6e354;fill:#b6e354}#chart-9eb5a814-23f4-46ec-8a1b-26f54c870eff .color-2,#chart-9eb5a814-23f4-46ec-8a1b-26f54c870eff .color-2 a:visited{stroke:#feed6c;fill:#feed6c}#chart-9eb5a814-23f4-46ec-8a1b-26f54c870eff .color-3,#chart-9eb5a814-23f4-46ec-8a1b-26f54c870eff .color-3 a:visited{stroke:#8cedff;fill:#8cedff}#chart-9eb5a814-23f4-46ec-8a1b-26f54c870eff .color-4,#chart-9eb5a814-23f4-46ec-8a1b-26f54c870eff .color-4 a:visited{stroke:#9e6ffe;fill:#9e6ffe}#chart-9eb5a814-23f4-46ec-8a1b-26f54c870eff .color-5,#chart-9eb5a814-23f4-46ec-8a1b-26f54c870eff .color-5 a:visited{stroke:#899ca1;fill:#899ca1}#chart-9eb5a814-23f4-46ec-8a1b-26f54c870eff .color-6,#chart-9eb5a814-23f4-46ec-8a1b-26f54c870eff .color-6 a:visited{stroke:#f8f8f2;fill:#f8f8f2}#chart-9eb5a814-23f4-46ec-8a1b-26f54c870eff .color-7,#chart-9eb5a814-23f4-46ec-8a1b-26f54c870eff .color-7 a:visited{stroke:#bf4646;fill:#bf4646}#chart-9eb5a814-23f4-46ec-8a1b-26f54c870eff .color-8,#chart-9eb5a814-23f4-46ec-8a1b-26f54c870eff .color-8 a:visited{stroke:#516083;fill:#516083}#chart-9eb5a814-23f4-46ec-8a1b-26f54c870eff .color-9,#chart-9eb5a814-23f4-46ec-8a1b-26f54c870eff .color-9 a:visited{stroke:#f92672;fill:#f92672}#chart-9eb5a814-23f4-46ec-8a1b-26f54c870eff .color-10,#chart-9eb5a814-23f4-46ec-8a1b-26f54c870eff .color-10 a:visited{stroke:#82b414;fill:#82b414}#chart-9eb5a814-23f4-46ec-8a1b-26f54c870eff .color-11,#chart-9eb5a814-23f4-46ec-8a1b-26f54c870eff .color-11 a:visited{stroke:#fd971f;fill:#fd971f}#chart-9eb5a814-23f4-46ec-8a1b-26f54c870eff .color-12,#chart-9eb5a814-23f4-46ec-8a1b-26f54c870eff .color-12 a:visited{stroke:#56c2d6;fill:#56c2d6}#chart-9eb5a814-23f4-46ec-8a1b-26f54c870eff .color-13,#chart-9eb5a814-23f4-46ec-8a1b-26f54c870eff .color-13 a:visited{stroke:#808384;fill:#808384}#chart-9eb5a814-23f4-46ec-8a1b-26f54c870eff .color-14,#chart-9eb5a814-23f4-46ec-8a1b-26f54c870eff .color-14 a:visited{stroke:#8c54fe;fill:#8c54fe}#chart-9eb5a814-23f4-46ec-8a1b-26f54c870eff .color-15,#chart-9eb5a814-23f4-46ec-8a1b-26f54c870eff .color-15 a:visited{stroke:#465457;fill:#465457}
#chart-9eb5a814-23f4-46ec-8a1b-26f54c870eff text.no_data{text-anchor:middle}#chart-9eb5a814-23f4-46ec-8a1b-26f54c870eff .guide.line{fill-opacity:0}#chart-9eb5a814-23f4-46ec-8a1b-26f54c870eff .centered{text-anchor:middle}#chart-9eb5a814-23f4-46ec-8a1b-26f54c870eff .title{text-anchor:middle}#chart-9eb5a814-23f4-46ec-8a1b-26f54c870eff .legends .legend text{fill-opacity:1}#chart-9eb5a814-23f4-46ec-8a1b-26f54c870eff .axis.x text{text-anchor:middle}#chart-9eb5a814-23f4-46ec-8a1b-26f54c870eff .axis.x:not(.web) text[transform]{text-anchor:start}#chart-9eb5a814-23f4-46ec-8a1b-26f54c870eff .axis.y text{text-anchor:end}#chart-9eb5a814-23f4-46ec-8a1b-26f54c870eff .axis.y2 text{text-anchor:start}#chart-9eb5a814-23f4-46ec-8a1b-26f54c870eff .axis.y .logarithmic text:not(.major),#chart-9eb5a814-23f4-46ec-8a1b-26f54c870eff .axis.y2 .logarithmic text:not(.major){font-size:50%}#chart-9eb5a814-23f4-46ec-8a1b-26f54c870eff .axis .guide.line{stroke-dasharray:4,4}#chart-9eb5a814-23f4-46ec-8a1b-26f54c870eff .axis .major.guide.line{stroke-dasharray:6,6}#chart-9eb5a814-23f4-46ec-8a1b-26f54c870eff .axis text.major{stroke-width:0.5px}#chart-9eb5a814-23f4-46ec-8a1b-26f54c870eff .horizontal .axis.y .guide.line,#chart-9eb5a814-23f4-46ec-8a1b-26f54c870eff .horizontal .axis.y2 .guide.line,#chart-9eb5a814-23f4-46ec-8a1b-26f54c870eff .vertical .axis.x .guide.line{opacity:0}#chart-9eb5a814-23f4-46ec-8a1b-26f54c870eff .horizontal .axis.always_show .guide.line,#chart-9eb5a814-23f4-46ec-8a1b-26f54c870eff .vertical .axis.always_show .guide.line{opacity:1 !important}#chart-9eb5a814-23f4-46ec-8a1b-26f54c870eff .axis.y .guides:hover .guide.line,#chart-9eb5a814-23f4-46ec-8a1b-26f54c870eff .axis.y2 .guides:hover .guide.line,#chart-9eb5a814-23f4-46ec-8a1b-26f54c870eff .axis.x .guides:hover .guide.line{opacity:1}#chart-9eb5a814-23f4-46ec-8a1b-26f54c870eff .axis .guides:hover text{opacity:1}#chart-9eb5a814-23f4-46ec-8a1b-26f54c870eff .nofill{fill:none}#chart-9eb5a814-23f4-46ec-8a1b-26f54c870eff .subtle-fill{fill-opacity:.2}#chart-9eb5a814-23f4-46ec-8a1b-26f54c870eff .dot{stroke-width:1px;fill-opacity:1}#chart-9eb5a814-23f4-46ec-8a1b-26f54c870eff .dot.active{stroke-width:5px}#chart-9eb5a814-23f4-46ec-8a1b-26f54c870eff .series text{stroke:none}#chart-9eb5a814-23f4-46ec-8a1b-26f54c870eff .series text.active{opacity:1}#chart-9eb5a814-23f4-46ec-8a1b-26f54c870eff .tooltip rect{fill-opacity:0.8}#chart-9eb5a814-23f4-46ec-8a1b-26f54c870eff .tooltip text{fill-opacity:1}#chart-9eb5a814-23f4-46ec-8a1b-26f54c870eff .tooltip text tspan.label{fill-opacity:.8}</style><script type="text/javascript">window.config = {"inner_radius": 0, "print_values": false, "tooltip_font_size": 16, "xrange": null, "legend_at_bottom_columns": null, "height": 600, "legend_at_bottom": false, "show_legend": true, "show_dots": true, "explicit_size": false, "legend_font_size": 14, "y_labels_major": null, "show_minor_x_labels": true, "major_label_font_size": 10, "fill": false, "half_pie": false, "x_value_formatter": null, "style": {"opacity": ".8", "foreground": "#999", "plot_background": "#111", "stroke_style": "round", "foreground_light": "#eee", "transition": "250ms", "foreground_dark": "#555", "stroke_dasharray": "0,0", "opacity_hover": ".4", "stroke_width": 1.0, "colors": ["#ff5995", "#b6e354", "#feed6c", "#8cedff", "#9e6ffe", "#899ca1", "#f8f8f2", "#bf4646", "#516083", "#f92672", "#82b414", "#fd971f", "#56c2d6", "#808384", "#8c54fe", "#465457"], "background": "black", "font_family": "monospace"}, "x_label_rotation": 0, "missing_value_fill_truncation": "x", "zero": 0, "margin_right": null, "interpolation_parameters": {}, "x_labels_major": null, "rounded_bars": null, "label_font_size": 10, "show_y_labels": true, "dots_size": 2.5, "show_y_guides": true, "show_minor_y_labels": true, "x_labels": ["10:00", "10:00", "10:15", "10:30", "10:45", "11:00", "11:15", "11:30", "11:45", "12:00", "12:15", "12:30", "12:45", "13:00", "13:15", "13:30", "13:45", "14:00", "14:15", "14:30", "14:45", "15:00", "15:15", "15:30", "15:45", "16:00", "16:15", "16:30", "16:45", "17:00", "17:15", "17:30", "17:45", "18:00", "18:15", "18:30", "18:45", "19:00", "19:15", "19:30", "19:45", "20:00", "20:15", "20:30", "20:45", "21:00", "21:15", "21:30", "21:45"], "y_title": null, "value_font_size": 8, "order_min": null, "disable_xml_declaration": false, "strict": false, "css": ["style.css", "graph.css"], "mode": null, "show_only_major_dots": false, "y_label_rotation": 0, "human_readable": false, "show_x_guides": false, "spacing": 10, "x_labels_major_count": null, "pretty_print": false, "tooltip_border_radius": 0, "interpolate": null, "js": ["http://kozea.github.io/pygal.js/javascripts/svg.jquery.js", "http://kozea.github.io/pygal.js/javascripts/pygal-tooltips.js"], "y_labels": null, "y_labels_major_every": null, "x_label_format": "%Y-%m-%d %H:%M:%S.%f", "interpolation_precision": 250, "x_title": null, "value_formatter": null, "no_data_font_size": 64, "logarithmic": false, "width": 800, "print_zeroes": false, "no_data_text": "No data", "truncate_legend": null, "x_labels_major_every": null, "title": "Submissions (by Team)", "legend_box_size": 12, "no_prefix": false, "stroke": true, "title_font_size": 16, "include_x_axis": false, "range": null, "truncate_label": null, "margin_top": null, "margin_left": null, "y_labels_major_count": null, "margin_bottom": null, "margin": 20, "stack_from_top": false, "show_x_labels": true}</script><script type="text/javascript" xlink:href="submissions_files/svg.js"/><script type="text/javascript" xlink:href="submissions_files/pygal-tooltips.js"/></defs><title>Submissions (by Team)</title><g class="graph line-graph vertical"><rect class="background" height="600" width="800" x="0" y="0"/><g class="plot" transform="translate(208, 46)"><rect class="background" height="514" width="572.0" x="0" y="0"/><g class="axis y"><g class="guides"><path class="major line" d="M0.000000 504.115385 h572.000000"/><text class="major" x="-5" y="507.615384615">0.0</text></g><g class="guides"><path class="guide line" d="M0.000000 479.154235 h572.000000"/><text class="" x="-5" y="482.654234654">10.0</text></g><g class="guides"><path class="guide line" d="M0.000000 454.193085 h572.000000"/><text class="" x="-5" y="457.693084693">20.0</text></g><g class="guides"><path class="guide line" d="M0.000000 429.231935 h572.000000"/><text class="" x="-5" y="432.731934732">30.0</text></g><g class="guides"><path class="guide line" d="M0.000000 404.270785 h572.000000"/><text class="" x="-5" y="407.770784771">40.0</text></g><g class="guides"><path class="major guide line" d="M0.000000 379.309635 h572.000000"/><text class="major" x="-5" y="382.80963481">50.0</text></g><g class="guides"><path class="guide line" d="M0.000000 354.348485 h572.000000"/><text class="" x="-5" y="357.848484848">60.0</text></g><g class="guides"><path class="guide line" d="M0.000000 329.387335 h572.000000"/><text class="" x="-5" y="332.887334887">70.0</text></g><g class="guides"><path class="guide line" d="M0.000000 304.426185 h572.000000"/><text class="" x="-5" y="307.926184926">80.0</text></g><g class="guides"><path class="guide line" d="M0.000000 279.465035 h572.000000"/><text class="" x="-5" y="282.965034965">90.0</text></g><g class="guides"><path class="major guide line" d="M0.000000 254.503885 h572.000000"/><text class="major" x="-5" y="258.003885004">100.0</text></g><g class="guides"><path class="guide line" d="M0.000000 229.542735 h572.000000"/><text class="" x="-5" y="233.042735043">110.0</text></g><g class="guides"><path class="guide line" d="M0.000000 204.581585 h572.000000"/><text class="" x="-5" y="208.081585082">120.0</text></g><g class="guides"><path class="guide line" d="M0.000000 179.620435 h572.000000"/><text class="" x="-5" y="183.12043512">130.0</text></g><g class="guides"><path class="guide line" d="M0.000000 154.659285 h572.000000"/><text class="" x="-5" y="158.159285159">140.0</text></g><g class="guides"><path class="major guide line" d="M0.000000 129.698135 h572.000000"/><text class="major" x="-5" y="133.198135198">150.0</text></g><g class="guides"><path class="guide line" d="M0.000000 104.736985 h572.000000"/><text class="" x="-5" y="108.236985237">160.0</text></g><g class="guides"><path class="guide line" d="M0.000000 79.775835 h572.000000"/><text class="" x="-5" y="83.2758352758">170.0</text></g><g class="guides"><path class="guide line" d="M0.000000 54.814685 h572.000000"/><text class="" x="-5" y="58.3146853147">180.0</text></g><g class="guides"><path class="guide line" d="M0.000000 29.853535 h572.000000"/><text class="" x="-5" y="33.3535353535">190.0</text></g></g><g class="axis x"><g class="guides"><path class="line" d="M11.000000 0.000000 v514.000000"/><text class="" x="11.0" y="529.0">…</text><title>10:00</title></g><g class="guides"><path class="guide line" d="M22.458333 0.000000 v514.000000"/><text class="" x="22.4583333333" y="529.0">…</text><title>10:00</title></g><g class="guides"><path class="guide line" d="M33.916667 0.000000 v514.000000"/><text class="" x="33.9166666667" y="529.0">…</text><title>10:15</title></g><g class="guides"><path class="guide line" d="M45.375000 0.000000 v514.000000"/><text class="" x="45.375" y="529.0">…</text><title>10:30</title></g><g class="guides"><path class="guide line" d="M56.833333 0.000000 v514.000000"/><text class="" x="56.8333333333" y="529.0">…</text><title>10:45</title></g><g class="guides"><path class="guide line" d="M68.291667 0.000000 v514.000000"/><text class="" x="68.2916666667" y="529.0">…</text><title>11:00</title></g><g class="guides"><path class="guide line" d="M79.750000 0.000000 v514.000000"/><text class="" x="79.75" y="529.0">…</text><title>11:15</title></g><g class="guides"><path class="guide line" d="M91.208333 0.000000 v514.000000"/><text class="" x="91.2083333333" y="529.0">…</text><title>11:30</title></g><g class="guides"><path class="guide line" d="M102.666667 0.000000 v514.000000"/><text class="" x="102.666666667" y="529.0">…</text><title>11:45</title></g><g class="guides"><path class="guide line" d="M114.125000 0.000000 v514.000000"/><text class="" x="114.125" y="529.0">…</text><title>12:00</title></g><g class="guides"><path class="guide line" d="M125.583333 0.000000 v514.000000"/><text class="" x="125.583333333" y="529.0">…</text><title>12:15</title></g><g class="guides"><path class="guide line" d="M137.041667 0.000000 v514.000000"/><text class="" x="137.041666667" y="529.0">…</text><title>12:30</title></g><g class="guides"><path class="guide line" d="M148.500000 0.000000 v514.000000"/><text class="" x="148.5" y="529.0">…</text><title>12:45</title></g><g class="guides"><path class="guide line" d="M159.958333 0.000000 v514.000000"/><text class="" x="159.958333333" y="529.0">…</text><title>13:00</title></g><g class="guides"><path class="guide line" d="M171.416667 0.000000 v514.000000"/><text class="" x="171.416666667" y="529.0">…</text><title>13:15</title></g><g class="guides"><path class="guide line" d="M182.875000 0.000000 v514.000000"/><text class="" x="182.875" y="529.0">…</text><title>13:30</title></g><g class="guides"><path class="guide line" d="M194.333333 0.000000 v514.000000"/><text class="" x="194.333333333" y="529.0">…</text><title>13:45</title></g><g class="guides"><path class="guide line" d="M205.791667 0.000000 v514.000000"/><text class="" x="205.791666667" y="529.0">…</text><title>14:00</title></g><g class="guides"><path class="guide line" d="M217.250000 0.000000 v514.000000"/><text class="" x="217.25" y="529.0">…</text><title>14:15</title></g><g class="guides"><path class="guide line" d="M228.708333 0.000000 v514.000000"/><text class="" x="228.708333333" y="529.0">…</text><title>14:30</title></g><g class="guides"><path class="guide line" d="M240.166667 0.000000 v514.000000"/><text class="" x="240.166666667" y="529.0">…</text><title>14:45</title></g><g class="guides"><path class="guide line" d="M251.625000 0.000000 v514.000000"/><text class="" x="251.625" y="529.0">…</text><title>15:00</title></g><g class="guides"><path class="guide line" d="M263.083333 0.000000 v514.000000"/><text class="" x="263.083333333" y="529.0">…</text><title>15:15</title></g><g class="guides"><path class="guide line" d="M274.541667 0.000000 v514.000000"/><text class="" x="274.541666667" y="529.0">…</text><title>15:30</title></g><g class="guides"><path class="guide line" d="M286.000000 0.000000 v514.000000"/><text class="" x="286.0" y="529.0">…</text><title>15:45</title></g><g class="guides"><path class="guide line" d="M297.458333 0.000000 v514.000000"/><text class="" x="297.458333333" y="529.0">…</text><title>16:00</title></g><g class="guides"><path class="guide line" d="M308.916667 0.000000 v514.000000"/><text class="" x="308.916666667" y="529.0">…</text><title>16:15</title></g><g class="guides"><path class="guide line" d="M320.375000 0.000000 v514.000000"/><text class="" x="320.375" y="529.0">…</text><title>16:30</title></g><g class="guides"><path class="guide line" d="M331.833333 0.000000 v514.000000"/><text class="" x="331.833333333" y="529.0">…</text><title>16:45</title></g><g class="guides"><path class="guide line" d="M343.291667 0.000000 v514.000000"/><text class="" x="343.291666667" y="529.0">…</text><title>17:00</title></g><g class="guides"><path class="guide line" d="M354.750000 0.000000 v514.000000"/><text class="" x="354.75" y="529.0">…</text><title>17:15</title></g><g class="guides"><path class="guide line" d="M366.208333 0.000000 v514.000000"/><text class="" x="366.208333333" y="529.0">…</text><title>17:30</title></g><g class="guides"><path class="guide line" d="M377.666667 0.000000 v514.000000"/><text class="" x="377.666666667" y="529.0">…</text><title>17:45</title></g><g class="guides"><path class="guide line" d="M389.125000 0.000000 v514.000000"/><text class="" x="389.125" y="529.0">…</text><title>18:00</title></g><g class="guides"><path class="guide line" d="M400.583333 0.000000 v514.000000"/><text class="" x="400.583333333" y="529.0">…</text><title>18:15</title></g><g class="guides"><path class="guide line" d="M412.041667 0.000000 v514.000000"/><text class="" x="412.041666667" y="529.0">…</text><title>18:30</title></g><g class="guides"><path class="guide line" d="M423.500000 0.000000 v514.000000"/><text class="" x="423.5" y="529.0">…</text><title>18:45</title></g><g class="guides"><path class="guide line" d="M434.958333 0.000000 v514.000000"/><text class="" x="434.958333333" y="529.0">…</text><title>19:00</title></g><g class="guides"><path class="guide line" d="M446.416667 0.000000 v514.000000"/><text class="" x="446.416666667" y="529.0">…</text><title>19:15</title></g><g class="guides"><path class="guide line" d="M457.875000 0.000000 v514.000000"/><text class="" x="457.875" y="529.0">…</text><title>19:30</title></g><g class="guides"><path class="guide line" d="M469.333333 0.000000 v514.000000"/><text class="" x="469.333333333" y="529.0">…</text><title>19:45</title></g><g class="guides"><path class="guide line" d="M480.791667 0.000000 v514.000000"/><text class="" x="480.791666667" y="529.0">…</text><title>20:00</title></g><g class="guides"><path class="guide line" d="M492.250000 0.000000 v514.000000"/><text class="" x="492.25" y="529.0">…</text><title>20:15</title></g><g class="guides"><path class="guide line" d="M503.708333 0.000000 v514.000000"/><text class="" x="503.708333333" y="529.0">…</text><title>20:30</title></g><g class="guides"><path class="guide line" d="M515.166667 0.000000 v514.000000"/><text class="" x="515.166666667" y="529.0">…</text><title>20:45</title></g><g class="guides"><path class="guide line" d="M526.625000 0.000000 v514.000000"/><text class="" x="526.625" y="529.0">…</text><title>21:00</title></g><g class="guides"><path class="guide line" d="M538.083333 0.000000 v514.000000"/><text class="" x="538.083333333" y="529.0">…</text><title>21:15</title></g><g class="guides"><path class="guide line" d="M549.541667 0.000000 v514.000000"/><text class="" x="549.541666667" y="529.0">…</text><title>21:30</title></g><g class="guides"><path class="guide line" d="M561.000000 0.000000 v514.000000"/><text class="" x="561.0" y="529.0">…</text><title>21:45</title></g></g><g class="series serie-0 color-0"><path class="line reactive nofill" d="M11.000000 504.115385 L22.458333 504.115385 33.916667 504.115385 45.375000 504.115385 56.833333 499.123155 68.291667 499.123155 79.750000 496.627040 91.208333 494.130925 102.666667 494.130925 114.125000 486.642580 125.583333 486.642580 137.041667 486.642580 148.500000 481.650350 159.958333 479.154235 171.416667 479.154235 182.875000 479.154235 194.333333 479.154235 205.791667 471.665890 217.250000 466.673660 228.708333 466.673660 240.166667 466.673660 251.625000 466.673660 263.083333 461.681430 274.541667 461.681430 286.000000 461.681430 297.458333 461.681430 308.916667 459.185315 320.375000 459.185315 331.833333 459.185315 343.291667 459.185315 354.750000 456.689200 366.208333 456.689200 377.666667 456.689200 389.125000 456.689200 400.583333 456.689200 412.041667 456.689200 423.500000 456.689200 434.958333 456.689200 446.416667 456.689200 457.875000 454.193085 469.333333 451.696970 480.791667 449.200855 492.250000 446.704740 503.708333 446.704740 515.166667 446.704740 526.625000 446.704740 538.083333 446.704740 549.541667 441.712510 561.000000 441.712510"/></g><g class="series serie-1 color-1"><path class="line reactive nofill" d="M11.000000 504.115385 L22.458333 504.115385 33.916667 504.115385 45.375000 504.115385 56.833333 504.115385 68.291667 504.115385 79.750000 496.627040 91.208333 491.634810 102.666667 491.634810 114.125000 491.634810 125.583333 491.634810 137.041667 491.634810 148.500000 491.634810 159.958333 491.634810 171.416667 491.634810 182.875000 484.146465 194.333333 484.146465 205.791667 484.146465 217.250000 476.658120 228.708333 471.665890 240.166667 471.665890 251.625000 471.665890 263.083333 469.169775 274.541667 464.177545 286.000000 464.177545 297.458333 459.185315 308.916667 456.689200 320.375000 454.193085 331.833333 446.704740 343.291667 431.728050 354.750000 414.255245 366.208333 411.759130 377.666667 406.766900 389.125000 401.774670 400.583333 401.774670 412.041667 386.797980 423.500000 379.309635 434.958333 374.317405 446.416667 364.332945 457.875000 351.852370 469.333333 341.867910 480.791667 341.867910 492.250000 331.883450 503.708333 324.395105 515.166667 301.930070 526.625000 286.953380 538.083333 276.968920 549.541667 239.527195 561.000000 224.550505"/></g><g class="series serie-2 color-2"><path class="line reactive nofill" d="M11.000000 504.115385 L22.458333 504.115385 33.916667 504.115385 45.375000 501.619270 56.833333 499.123155 68.291667 489.138695 79.750000 484.146465 91.208333 476.658120 102.666667 469.169775 114.125000 461.681430 125.583333 456.689200 137.041667 444.208625 148.500000 444.208625 159.958333 439.216395 171.416667 439.216395 182.875000 436.720280 194.333333 436.720280 205.791667 429.231935 217.250000 426.735820 228.708333 424.239705 240.166667 424.239705 251.625000 421.743590 263.083333 416.751360 274.541667 404.270785 286.000000 396.782440 297.458333 394.286325 308.916667 376.813520 320.375000 354.348485 331.833333 341.867910 343.291667 326.891220 354.750000 324.395105 366.208333 319.402875 377.666667 286.953380 389.125000 252.007770 400.583333 239.527195 412.041667 237.031080 423.500000 224.550505 434.958333 212.069930 446.416667 207.077700 457.875000 202.085470 469.333333 199.589355 480.791667 197.093240 492.250000 197.093240 503.708333 197.093240 515.166667 197.093240 526.625000 197.093240 538.083333 197.093240 549.541667 197.093240 561.000000 197.093240"/></g><g class="series serie-3 color-3"><path class="line reactive nofill" d="M11.000000 504.115385 L22.458333 504.115385 33.916667 504.115385 45.375000 504.115385 56.833333 501.619270 68.291667 496.627040 79.750000 494.130925 91.208333 494.130925 102.666667 476.658120 114.125000 476.658120 125.583333 474.162005 137.041667 471.665890 148.500000 469.169775 159.958333 469.169775 171.416667 464.177545 182.875000 456.689200 194.333333 456.689200 205.791667 454.193085 217.250000 454.193085 228.708333 454.193085 240.166667 454.193085 251.625000 451.696970 263.083333 451.696970 274.541667 444.208625 286.000000 441.712510 297.458333 439.216395 308.916667 431.728050 320.375000 429.231935 331.833333 421.743590 343.291667 419.247475 354.750000 416.751360 366.208333 411.759130 377.666667 406.766900 389.125000 401.774670 400.583333 396.782440 412.041667 396.782440 423.500000 394.286325 434.958333 394.286325 446.416667 394.286325 457.875000 394.286325 469.333333 381.805750 480.791667 381.805750 492.250000 381.805750 503.708333 376.813520 515.166667 374.317405 526.625000 369.325175 538.083333 346.860140 549.541667 334.379565 561.000000 334.379565"/></g><g class="series serie-4 color-4"><path class="line reactive nofill" d="M11.000000 504.115385 L22.458333 504.115385 33.916667 504.115385 45.375000 499.123155 56.833333 484.146465 68.291667 481.650350 79.750000 481.650350 91.208333 481.650350 102.666667 481.650350 114.125000 481.650350 125.583333 481.650350 137.041667 481.650350 148.500000 476.658120 159.958333 474.162005 171.416667 471.665890 182.875000 469.169775 194.333333 469.169775 205.791667 466.673660 217.250000 461.681430 228.708333 456.689200 240.166667 454.193085 251.625000 449.200855 263.083333 446.704740 274.541667 439.216395 286.000000 429.231935 297.458333 429.231935 308.916667 426.735820 320.375000 426.735820 331.833333 421.743590 343.291667 411.759130 354.750000 406.766900 366.208333 401.774670 377.666667 401.774670 389.125000 401.774670 400.583333 379.309635 412.041667 369.325175 423.500000 369.325175 434.958333 356.844600 446.416667 346.860140 457.875000 341.867910 469.333333 334.379565 480.791667 324.395105 492.250000 316.906760 503.708333 306.922300 515.166667 301.930070 526.625000 286.953380 538.083333 274.472805 549.541667 269.480575 561.000000 261.992230"/></g><g class="series serie-5 color-5"><path class="line reactive nofill" d="M11.000000 504.115385 L22.458333 504.115385 33.916667 504.115385 45.375000 501.619270 56.833333 496.627040 68.291667 496.627040 79.750000 494.130925 91.208333 486.642580 102.666667 464.177545 114.125000 454.193085 125.583333 449.200855 137.041667 429.231935 148.500000 424.239705 159.958333 419.247475 171.416667 416.751360 182.875000 414.255245 194.333333 411.759130 205.791667 406.766900 217.250000 401.774670 228.708333 399.278555 240.166667 374.317405 251.625000 374.317405 263.083333 371.821290 274.541667 341.867910 286.000000 321.898990 297.458333 321.898990 308.916667 321.898990 320.375000 306.922300 331.833333 294.441725 343.291667 274.472805 354.750000 259.496115 366.208333 254.503885 377.666667 252.007770 389.125000 227.046620 400.583333 227.046620 412.041667 227.046620 423.500000 219.558275 434.958333 214.566045 446.416667 212.069930 457.875000 209.573815 469.333333 204.581585 480.791667 184.612665 492.250000 179.620435 503.708333 169.635975 515.166667 152.163170 526.625000 129.698135 538.083333 109.729215 549.541667 109.729215 561.000000 109.729215"/></g><g class="series serie-6 color-6"><path class="line reactive nofill" d="M11.000000 504.115385 L22.458333 504.115385 33.916667 504.115385 45.375000 489.138695 56.833333 474.162005 68.291667 471.665890 79.750000 466.673660 91.208333 466.673660 102.666667 466.673660 114.125000 466.673660 125.583333 461.681430 137.041667 461.681430 148.500000 459.185315 159.958333 454.193085 171.416667 451.696970 182.875000 451.696970 194.333333 449.200855 205.791667 449.200855 217.250000 449.200855 228.708333 436.720280 240.166667 429.231935 251.625000 429.231935 263.083333 424.239705 274.541667 419.247475 286.000000 419.247475 297.458333 414.255245 308.916667 409.263015 320.375000 401.774670 331.833333 399.278555 343.291667 396.782440 354.750000 384.301865 366.208333 376.813520 377.666667 366.829060 389.125000 361.836830 400.583333 356.844600 412.041667 354.348485 423.500000 354.348485 434.958333 351.852370 446.416667 339.371795 457.875000 336.875680 469.333333 331.883450 480.791667 324.395105 492.250000 314.410645 503.708333 309.418415 515.166667 309.418415 526.625000 299.433955 538.083333 281.961150 549.541667 276.968920 561.000000 271.976690"/></g><g class="series serie-7 color-7"><path class="line reactive nofill" d="M11.000000 504.115385 L22.458333 504.115385 33.916667 504.115385 45.375000 504.115385 56.833333 504.115385 68.291667 501.619270 79.750000 501.619270 91.208333 499.123155 102.666667 499.123155 114.125000 496.627040 125.583333 494.130925 137.041667 494.130925 148.500000 494.130925 159.958333 494.130925 171.416667 494.130925 182.875000 491.634810 194.333333 491.634810 205.791667 489.138695 217.250000 481.650350 228.708333 476.658120 240.166667 474.162005 251.625000 474.162005 263.083333 471.665890 274.541667 466.673660 286.000000 464.177545 297.458333 464.177545 308.916667 461.681430 320.375000 461.681430 331.833333 456.689200 343.291667 456.689200 354.750000 456.689200 366.208333 441.712510 377.666667 441.712510 389.125000 439.216395 400.583333 439.216395 412.041667 439.216395 423.500000 439.216395 434.958333 439.216395 446.416667 439.216395 457.875000 431.728050 469.333333 429.231935 480.791667 424.239705 492.250000 421.743590 503.708333 419.247475 515.166667 414.255245 526.625000 411.759130 538.083333 409.263015 549.541667 391.790210 561.000000 374.317405"/></g><g class="series serie-8 color-8"><path class="line reactive nofill" d="M11.000000 504.115385 L22.458333 504.115385 33.916667 504.115385 45.375000 501.619270 56.833333 484.146465 68.291667 479.154235 79.750000 461.681430 91.208333 446.704740 102.666667 444.208625 114.125000 444.208625 125.583333 444.208625 137.041667 444.208625 148.500000 444.208625 159.958333 441.712510 171.416667 441.712510 182.875000 439.216395 194.333333 436.720280 205.791667 434.224165 217.250000 429.231935 228.708333 426.735820 240.166667 424.239705 251.625000 424.239705 263.083333 421.743590 274.541667 419.247475 286.000000 416.751360 297.458333 414.255245 308.916667 411.759130 320.375000 404.270785 331.833333 396.782440 343.291667 386.797980 354.750000 379.309635 366.208333 376.813520 377.666667 359.340715 389.125000 349.356255 400.583333 344.364025 412.041667 344.364025 423.500000 326.891220 434.958333 326.891220 446.416667 311.914530 457.875000 294.441725 469.333333 291.945610 480.791667 279.465035 492.250000 269.480575 503.708333 259.496115 515.166667 252.007770 526.625000 242.023310 538.083333 227.046620 549.541667 217.062160 561.000000 214.566045"/></g><g class="series serie-9 color-9"><path class="line reactive nofill" d="M11.000000 504.115385 L22.458333 504.115385 33.916667 504.115385 45.375000 504.115385 56.833333 504.115385 68.291667 501.619270 79.750000 494.130925 91.208333 491.634810 102.666667 469.169775 114.125000 464.177545 125.583333 461.681430 137.041667 456.689200 148.500000 454.193085 159.958333 449.200855 171.416667 441.712510 182.875000 436.720280 194.333333 434.224165 205.791667 426.735820 217.250000 411.759130 228.708333 379.309635 240.166667 379.309635 251.625000 371.821290 263.083333 359.340715 274.541667 359.340715 286.000000 359.340715 297.458333 359.340715 308.916667 356.844600 320.375000 354.348485 331.833333 349.356255 343.291667 326.891220 354.750000 319.402875 366.208333 301.930070 377.666667 281.961150 389.125000 269.480575 400.583333 257.000000 412.041667 249.511655 423.500000 247.015540 434.958333 224.550505 446.416667 217.062160 457.875000 214.566045 469.333333 194.597125 480.791667 184.612665 492.250000 169.635975 503.708333 167.139860 515.166667 149.667055 526.625000 134.690365 538.083333 104.736985 549.541667 74.783605 561.000000 59.806915"/></g><g class="series serie-10 color-10"><path class="line reactive nofill" d="M11.000000 504.115385 L22.458333 504.115385 33.916667 504.115385 45.375000 499.123155 56.833333 496.627040 68.291667 484.146465 79.750000 474.162005 91.208333 469.169775 102.666667 469.169775 114.125000 469.169775 125.583333 469.169775 137.041667 464.177545 148.500000 464.177545 159.958333 464.177545 171.416667 461.681430 182.875000 456.689200 194.333333 456.689200 205.791667 449.200855 217.250000 446.704740 228.708333 444.208625 240.166667 444.208625 251.625000 444.208625 263.083333 441.712510 274.541667 441.712510 286.000000 441.712510 297.458333 434.224165 308.916667 434.224165 320.375000 431.728050 331.833333 429.231935 343.291667 426.735820 354.750000 426.735820 366.208333 426.735820 377.666667 419.247475 389.125000 419.247475 400.583333 419.247475 412.041667 419.247475 423.500000 419.247475 434.958333 416.751360 446.416667 414.255245 457.875000 414.255245 469.333333 409.263015 480.791667 404.270785 492.250000 404.270785 503.708333 404.270785 515.166667 399.278555 526.625000 391.790210 538.083333 384.301865 549.541667 379.309635 561.000000 379.309635"/></g><g class="series serie-11 color-11"><path class="line reactive nofill" d="M11.000000 504.115385 L22.458333 504.115385 33.916667 504.115385 45.375000 504.115385 56.833333 504.115385 68.291667 501.619270 79.750000 496.627040 91.208333 494.130925 102.666667 491.634810 114.125000 486.642580 125.583333 481.650350 137.041667 481.650350 148.500000 481.650350 159.958333 481.650350 171.416667 481.650350 182.875000 481.650350 194.333333 481.650350 205.791667 481.650350 217.250000 481.650350 228.708333 481.650350 240.166667 481.650350 251.625000 481.650350 263.083333 481.650350 274.541667 481.650350 286.000000 479.154235 297.458333 464.177545 308.916667 459.185315 320.375000 459.185315 331.833333 459.185315 343.291667 459.185315 354.750000 459.185315 366.208333 459.185315 377.666667 459.185315 389.125000 459.185315 400.583333 459.185315 412.041667 459.185315 423.500000 459.185315 434.958333 459.185315 446.416667 459.185315 457.875000 459.185315 469.333333 459.185315 480.791667 459.185315 492.250000 456.689200 503.708333 456.689200 515.166667 456.689200 526.625000 456.689200 538.083333 456.689200 549.541667 456.689200 561.000000 456.689200"/></g><g class="series serie-12 color-12"><path class="line reactive nofill" d="M11.000000 504.115385 L22.458333 504.115385 33.916667 504.115385 45.375000 501.619270 56.833333 491.634810 68.291667 469.169775 79.750000 469.169775 91.208333 451.696970 102.666667 444.208625 114.125000 411.759130 125.583333 409.263015 137.041667 406.766900 148.500000 406.766900 159.958333 406.766900 171.416667 399.278555 182.875000 381.805750 194.333333 374.317405 205.791667 371.821290 217.250000 371.821290 228.708333 369.325175 240.166667 359.340715 251.625000 336.875680 263.083333 329.387335 274.541667 311.914530 286.000000 304.426185 297.458333 301.930070 308.916667 294.441725 320.375000 279.465035 331.833333 257.000000 343.291667 224.550505 354.750000 204.581585 366.208333 189.604895 377.666667 154.659285 389.125000 132.194250 400.583333 122.209790 412.041667 122.209790 423.500000 114.721445 434.958333 114.721445 446.416667 114.721445 457.875000 107.233100 469.333333 87.264180 480.791667 77.279720 492.250000 72.287490 503.708333 62.303030 515.166667 54.814685 526.625000 47.326340 538.083333 44.830225 549.541667 24.861305 561.000000 9.884615"/></g><g class="series serie-13 color-13"><path class="line reactive nofill" d="M11.000000 504.115385 L22.458333 504.115385 33.916667 504.115385 45.375000 504.115385 56.833333 504.115385 68.291667 504.115385 79.750000 504.115385 91.208333 499.123155 102.666667 499.123155 114.125000 491.634810 125.583333 489.138695 137.041667 479.154235 148.500000 454.193085 159.958333 436.720280 171.416667 424.239705 182.875000 421.743590 194.333333 419.247475 205.791667 416.751360 217.250000 414.255245 228.708333 411.759130 240.166667 396.782440 251.625000 394.286325 263.083333 391.790210 274.541667 391.790210 286.000000 389.294095 297.458333 389.294095 308.916667 389.294095 320.375000 389.294095 331.833333 389.294095 343.291667 389.294095 354.750000 386.797980 366.208333 386.797980 377.666667 374.317405 389.125000 374.317405 400.583333 374.317405 412.041667 369.325175 423.500000 369.325175 434.958333 369.325175 446.416667 366.829060 457.875000 356.844600 469.333333 356.844600 480.791667 354.348485 492.250000 341.867910 503.708333 339.371795 515.166667 339.371795 526.625000 324.395105 538.083333 319.402875 549.541667 301.930070 561.000000 301.930070"/></g><g class="series serie-14 color-14"><path class="line reactive nofill" d="M11.000000 504.115385 L22.458333 504.115385 33.916667 504.115385 45.375000 504.115385 56.833333 501.619270 68.291667 499.123155 79.750000 496.627040 91.208333 494.130925 102.666667 494.130925 114.125000 494.130925 125.583333 494.130925 137.041667 484.146465 148.500000 466.673660 159.958333 466.673660 171.416667 461.681430 182.875000 456.689200 194.333333 456.689200 205.791667 454.193085 217.250000 454.193085 228.708333 451.696970 240.166667 451.696970 251.625000 449.200855 263.083333 444.208625 274.541667 434.224165 286.000000 419.247475 297.458333 411.759130 308.916667 411.759130 320.375000 404.270785 331.833333 401.774670 343.291667 394.286325 354.750000 386.797980 366.208333 386.797980 377.666667 386.797980 389.125000 386.797980 400.583333 374.317405 412.041667 369.325175 423.500000 369.325175 434.958333 369.325175 446.416667 369.325175 457.875000 364.332945 469.333333 359.340715 480.791667 359.340715 492.250000 354.348485 503.708333 349.356255 515.166667 349.356255 526.625000 341.867910 538.083333 331.883450 549.541667 331.883450 561.000000 329.387335"/></g><g class="series serie-15 color-15"><path class="line reactive nofill" d="M11.000000 504.115385 L22.458333 504.115385 33.916667 504.115385 45.375000 504.115385 56.833333 504.115385 68.291667 504.115385 79.750000 504.115385 91.208333 504.115385 102.666667 504.115385 114.125000 501.619270 125.583333 501.619270 137.041667 501.619270 148.500000 501.619270 159.958333 499.123155 171.416667 496.627040 182.875000 486.642580 194.333333 486.642580 205.791667 484.146465 217.250000 481.650350 228.708333 481.650350 240.166667 479.154235 251.625000 476.658120 263.083333 476.658120 274.541667 476.658120 286.000000 476.658120 297.458333 476.658120 308.916667 476.658120 320.375000 476.658120 331.833333 474.162005 343.291667 471.665890 354.750000 469.169775 366.208333 469.169775 377.666667 464.177545 389.125000 464.177545 400.583333 461.681430 412.041667 461.681430 423.500000 459.185315 434.958333 459.185315 446.416667 459.185315 457.875000 459.185315 469.333333 459.185315 480.791667 459.185315 492.250000 459.185315 503.708333 459.185315 515.166667 454.193085 526.625000 454.193085 538.083333 449.200855 549.541667 449.200855 561.000000 449.200855"/></g><g class="series serie-16 color-0"><path class="line reactive nofill" d="M11.000000 504.115385 L22.458333 504.115385 33.916667 504.115385 45.375000 504.115385 56.833333 499.123155 68.291667 499.123155 79.750000 496.627040 91.208333 494.130925 102.666667 489.138695 114.125000 481.650350 125.583333 476.658120 137.041667 474.162005 148.500000 474.162005 159.958333 471.665890 171.416667 469.169775 182.875000 469.169775 194.333333 466.673660 205.791667 456.689200 217.250000 454.193085 228.708333 449.200855 240.166667 441.712510 251.625000 431.728050 263.083333 431.728050 274.541667 431.728050 286.000000 431.728050 297.458333 429.231935 308.916667 419.247475 320.375000 419.247475 331.833333 416.751360 343.291667 416.751360 354.750000 411.759130 366.208333 411.759130 377.666667 411.759130 389.125000 411.759130 400.583333 411.759130 412.041667 399.278555 423.500000 399.278555 434.958333 399.278555 446.416667 391.790210 457.875000 386.797980 469.333333 386.797980 480.791667 386.797980 492.250000 384.301865 503.708333 384.301865 515.166667 379.309635 526.625000 364.332945 538.083333 339.371795 549.541667 329.387335 561.000000 329.387335"/></g><g class="series serie-17 color-1"><path class="line reactive nofill" d="M11.000000 504.115385 L22.458333 504.115385 33.916667 504.115385 45.375000 501.619270 56.833333 494.130925 68.291667 494.130925 79.750000 489.138695 91.208333 489.138695 102.666667 486.642580 114.125000 486.642580 125.583333 486.642580 137.041667 481.650350 148.500000 481.650350 159.958333 481.650350 171.416667 481.650350 182.875000 476.658120 194.333333 474.162005 205.791667 471.665890 217.250000 466.673660 228.708333 464.177545 240.166667 454.193085 251.625000 446.704740 263.083333 441.712510 274.541667 436.720280 286.000000 434.224165 297.458333 424.239705 308.916667 419.247475 320.375000 419.247475 331.833333 414.255245 343.291667 399.278555 354.750000 394.286325 366.208333 386.797980 377.666667 381.805750 389.125000 376.813520 400.583333 371.821290 412.041667 369.325175 423.500000 361.836830 434.958333 359.340715 446.416667 349.356255 457.875000 346.860140 469.333333 341.867910 480.791667 336.875680 492.250000 331.883450 503.708333 319.402875 515.166667 309.418415 526.625000 296.937840 538.083333 276.968920 549.541667 257.000000 561.000000 257.000000"/></g><g class="series serie-18 color-2"><path class="line reactive nofill" d="M11.000000 504.115385 L22.458333 504.115385 33.916667 504.115385 45.375000 499.123155 56.833333 489.138695 68.291667 471.665890 79.750000 469.169775 91.208333 469.169775 102.666667 469.169775 114.125000 464.177545 125.583333 456.689200 137.041667 446.704740 148.500000 446.704740 159.958333 444.208625 171.416667 441.712510 182.875000 439.216395 194.333333 439.216395 205.791667 436.720280 217.250000 429.231935 228.708333 419.247475 240.166667 411.759130 251.625000 401.774670 263.083333 396.782440 274.541667 386.797980 286.000000 379.309635 297.458333 379.309635 308.916667 374.317405 320.375000 364.332945 331.833333 346.860140 343.291667 331.883450 354.750000 331.883450 366.208333 329.387335 377.666667 324.395105 389.125000 319.402875 400.583333 314.410645 412.041667 309.418415 423.500000 304.426185 434.958333 291.945610 446.416667 286.953380 457.875000 286.953380 469.333333 284.457265 480.791667 284.457265 492.250000 284.457265 503.708333 276.968920 515.166667 276.968920 526.625000 269.480575 538.083333 266.984460 549.541667 264.488345 561.000000 242.023310"/></g><g class="series serie-19 color-3"><path class="line reactive nofill" d="M11.000000 504.115385 L22.458333 504.115385 33.916667 504.115385 45.375000 504.115385 56.833333 479.154235 68.291667 471.665890 79.750000 471.665890 91.208333 466.673660 102.666667 454.193085 114.125000 451.696970 125.583333 451.696970 137.041667 444.208625 148.500000 439.216395 159.958333 436.720280 171.416667 434.224165 182.875000 429.231935 194.333333 424.239705 205.791667 421.743590 217.250000 421.743590 228.708333 421.743590 240.166667 421.743590 251.625000 421.743590 263.083333 416.751360 274.541667 409.263015 286.000000 406.766900 297.458333 404.270785 308.916667 401.774670 320.375000 394.286325 331.833333 386.797980 343.291667 381.805750 354.750000 371.821290 366.208333 361.836830 377.666667 359.340715 389.125000 354.348485 400.583333 351.852370 412.041667 349.356255 423.500000 349.356255 434.958333 346.860140 446.416667 324.395105 457.875000 301.930070 469.333333 299.433955 480.791667 289.449495 492.250000 289.449495 503.708333 289.449495 515.166667 289.449495 526.625000 289.449495 538.083333 286.953380 549.541667 286.953380 561.000000 286.953380"/></g><g class="series serie-20 color-4"><path class="line reactive nofill" d="M11.000000 504.115385 L22.458333 504.115385 33.916667 504.115385 45.375000 504.115385 56.833333 504.115385 68.291667 504.115385 79.750000 501.619270 91.208333 491.634810 102.666667 491.634810 114.125000 484.146465 125.583333 479.154235 137.041667 476.658120 148.500000 476.658120 159.958333 476.658120 171.416667 474.162005 182.875000 469.169775 194.333333 469.169775 205.791667 466.673660 217.250000 464.177545 228.708333 464.177545 240.166667 464.177545 251.625000 464.177545 263.083333 464.177545 274.541667 464.177545 286.000000 461.681430 297.458333 461.681430 308.916667 456.689200 320.375000 451.696970 331.833333 444.208625 343.291667 444.208625 354.750000 444.208625 366.208333 444.208625 377.666667 444.208625 389.125000 439.216395 400.583333 439.216395 412.041667 436.720280 423.500000 431.728050 434.958333 416.751360 446.416667 411.759130 457.875000 411.759130 469.333333 396.782440 480.791667 394.286325 492.250000 389.294095 503.708333 379.309635 515.166667 379.309635 526.625000 371.821290 538.083333 369.325175 549.541667 364.332945 561.000000 361.836830"/></g><g class="series serie-21 color-5"><path class="line reactive nofill" d="M11.000000 504.115385 L22.458333 504.115385 33.916667 504.115385 45.375000 504.115385 56.833333 504.115385 68.291667 504.115385 79.750000 504.115385 91.208333 496.627040 102.666667 494.130925 114.125000 491.634810 125.583333 489.138695 137.041667 484.146465 148.500000 481.650350 159.958333 481.650350 171.416667 479.154235 182.875000 476.658120 194.333333 471.665890 205.791667 471.665890 217.250000 469.169775 228.708333 469.169775 240.166667 469.169775 251.625000 469.169775 263.083333 469.169775 274.541667 469.169775 286.000000 469.169775 297.458333 466.673660 308.916667 464.177545 320.375000 461.681430 331.833333 461.681430 343.291667 456.689200 354.750000 456.689200 366.208333 456.689200 377.666667 449.200855 389.125000 449.200855 400.583333 449.200855 412.041667 449.200855 423.500000 449.200855 434.958333 439.216395 446.416667 434.224165 457.875000 434.224165 469.333333 426.735820 480.791667 424.239705 492.250000 421.743590 503.708333 421.743590 515.166667 399.278555 526.625000 399.278555 538.083333 396.782440 549.541667 394.286325 561.000000 386.797980"/></g><g class="series serie-22 color-6"><path class="line reactive nofill" d="M11.000000 504.115385 L22.458333 504.115385 33.916667 504.115385 45.375000 501.619270 56.833333 494.130925 68.291667 484.146465 79.750000 476.658120 91.208333 469.169775 102.666667 466.673660 114.125000 459.185315 125.583333 454.193085 137.041667 451.696970 148.500000 434.224165 159.958333 424.239705 171.416667 406.766900 182.875000 399.278555 194.333333 374.317405 205.791667 356.844600 217.250000 346.860140 228.708333 346.860140 240.166667 341.867910 251.625000 336.875680 263.083333 336.875680 274.541667 334.379565 286.000000 331.883450 297.458333 329.387335 308.916667 329.387335 320.375000 329.387335 331.833333 329.387335 343.291667 326.891220 354.750000 324.395105 366.208333 324.395105 377.666667 324.395105 389.125000 324.395105 400.583333 316.906760 412.041667 314.410645 423.500000 311.914530 434.958333 311.914530 446.416667 301.930070 457.875000 289.449495 469.333333 289.449495 480.791667 286.953380 492.250000 269.480575 503.708333 266.984460 515.166667 259.496115 526.625000 247.015540 538.083333 232.038850 549.541667 229.542735 561.000000 202.085470"/></g><g class="series serie-23 color-7"><path class="line reactive nofill" d="M11.000000 504.115385 L22.458333 504.115385 33.916667 504.115385 45.375000 504.115385 56.833333 499.123155 68.291667 489.138695 79.750000 481.650350 91.208333 479.154235 102.666667 474.162005 114.125000 469.169775 125.583333 469.169775 137.041667 469.169775 148.500000 469.169775 159.958333 469.169775 171.416667 464.177545 182.875000 461.681430 194.333333 461.681430 205.791667 459.185315 217.250000 459.185315 228.708333 459.185315 240.166667 459.185315 251.625000 451.696970 263.083333 451.696970 274.541667 451.696970 286.000000 451.696970 297.458333 449.200855 308.916667 444.208625 320.375000 444.208625 331.833333 444.208625 343.291667 434.224165 354.750000 434.224165 366.208333 434.224165 377.666667 434.224165 389.125000 431.728050 400.583333 431.728050 412.041667 431.728050 423.500000 431.728050 434.958333 431.728050 446.416667 431.728050 457.875000 429.231935 469.333333 421.743590 480.791667 419.247475 492.250000 419.247475 503.708333 419.247475 515.166667 419.247475 526.625000 419.247475 538.083333 416.751360 549.541667 416.751360 561.000000 414.255245"/></g><g class="series serie-24 color-8"><path class="line reactive nofill" d="M11.000000 504.115385 L22.458333 504.115385 33.916667 504.115385 45.375000 501.619270 56.833333 501.619270 68.291667 501.619270 79.750000 496.627040 91.208333 496.627040 102.666667 496.627040 114.125000 496.627040 125.583333 494.130925 137.041667 494.130925 148.500000 494.130925 159.958333 494.130925 171.416667 491.634810 182.875000 489.138695 194.333333 489.138695 205.791667 489.138695 217.250000 486.642580 228.708333 486.642580 240.166667 484.146465 251.625000 481.650350 263.083333 481.650350 274.541667 479.154235 286.000000 476.658120 297.458333 464.177545 308.916667 461.681430 320.375000 461.681430 331.833333 461.681430 343.291667 461.681430 354.750000 461.681430 366.208333 456.689200 377.666667 456.689200 389.125000 454.193085 400.583333 454.193085 412.041667 454.193085 423.500000 446.704740 434.958333 446.704740 446.416667 446.704740 457.875000 444.208625 469.333333 439.216395 480.791667 429.231935 492.250000 426.735820 503.708333 416.751360 515.166667 411.759130 526.625000 411.759130 538.083333 409.263015 549.541667 409.263015 561.000000 406.766900"/></g><g class="series serie-25 color-9"><path class="line reactive nofill" d="M11.000000 504.115385 L22.458333 504.115385 33.916667 504.115385 45.375000 504.115385 56.833333 496.627040 68.291667 496.627040 79.750000 489.138695 91.208333 489.138695 102.666667 489.138695 114.125000 489.138695 125.583333 489.138695 137.041667 489.138695 148.500000 481.650350 159.958333 481.650350 171.416667 471.665890 182.875000 461.681430 194.333333 456.689200 205.791667 456.689200 217.250000 441.712510 228.708333 431.728050 240.166667 431.728050 251.625000 424.239705 263.083333 421.743590 274.541667 421.743590 286.000000 419.247475 297.458333 409.263015 308.916667 406.766900 320.375000 391.790210 331.833333 379.309635 343.291667 379.309635 354.750000 379.309635 366.208333 374.317405 377.666667 369.325175 389.125000 359.340715 400.583333 356.844600 412.041667 354.348485 423.500000 346.860140 434.958333 339.371795 446.416667 334.379565 457.875000 324.395105 469.333333 321.898990 480.791667 321.898990 492.250000 316.906760 503.708333 299.433955 515.166667 286.953380 526.625000 269.480575 538.083333 269.480575 549.541667 269.480575 561.000000 269.480575"/></g><g class="series serie-26 color-10"><path class="line reactive nofill" d="M11.000000 504.115385 L22.458333 504.115385 33.916667 504.115385 45.375000 501.619270 56.833333 501.619270 68.291667 496.627040 79.750000 494.130925 91.208333 481.650350 102.666667 474.162005 114.125000 464.177545 125.583333 461.681430 137.041667 456.689200 148.500000 434.224165 159.958333 416.751360 171.416667 416.751360 182.875000 416.751360 194.333333 399.278555 205.791667 384.301865 217.250000 371.821290 228.708333 364.332945 240.166667 364.332945 251.625000 364.332945 263.083333 356.844600 274.541667 354.348485 286.000000 341.867910 297.458333 336.875680 308.916667 336.875680 320.375000 336.875680 331.833333 336.875680 343.291667 331.883450 354.750000 326.891220 366.208333 321.898990 377.666667 316.906760 389.125000 311.914530 400.583333 306.922300 412.041667 294.441725 423.500000 286.953380 434.958333 286.953380 446.416667 281.961150 457.875000 247.015540 469.333333 239.527195 480.791667 237.031080 492.250000 234.534965 503.708333 234.534965 515.166667 224.550505 526.625000 204.581585 538.083333 199.589355 549.541667 192.101010 561.000000 184.612665"/></g><g class="series serie-27 color-11"><path class="line reactive nofill" d="M11.000000 504.115385 L22.458333 504.115385 33.916667 504.115385 45.375000 501.619270 56.833333 499.123155 68.291667 499.123155 79.750000 496.627040 91.208333 491.634810 102.666667 491.634810 114.125000 489.138695 125.583333 479.154235 137.041667 479.154235 148.500000 476.658120 159.958333 469.169775 171.416667 469.169775 182.875000 466.673660 194.333333 466.673660 205.791667 466.673660 217.250000 466.673660 228.708333 464.177545 240.166667 459.185315 251.625000 441.712510 263.083333 439.216395 274.541667 439.216395 286.000000 439.216395 297.458333 436.720280 308.916667 431.728050 320.375000 429.231935 331.833333 429.231935 343.291667 419.247475 354.750000 416.751360 366.208333 411.759130 377.666667 394.286325 389.125000 379.309635 400.583333 364.332945 412.041667 364.332945 423.500000 359.340715 434.958333 356.844600 446.416667 351.852370 457.875000 344.364025 469.333333 341.867910 480.791667 331.883450 492.250000 331.883450 503.708333 306.922300 515.166667 289.449495 526.625000 284.457265 538.083333 269.480575 549.541667 259.496115 561.000000 259.496115"/></g><g class="series serie-28 color-12"><path class="line reactive nofill" d="M11.000000 504.115385 L22.458333 504.115385 33.916667 504.115385 45.375000 504.115385 56.833333 504.115385 68.291667 504.115385 79.750000 504.115385 91.208333 504.115385 102.666667 504.115385 114.125000 504.115385 125.583333 504.115385 137.041667 504.115385 148.500000 504.115385 159.958333 504.115385 171.416667 504.115385 182.875000 504.115385 194.333333 504.115385 205.791667 504.115385 217.250000 504.115385 228.708333 504.115385 240.166667 504.115385 251.625000 504.115385 263.083333 504.115385 274.541667 504.115385 286.000000 504.115385 297.458333 504.115385 308.916667 504.115385 320.375000 504.115385 331.833333 504.115385 343.291667 504.115385 354.750000 504.115385 366.208333 504.115385 377.666667 504.115385 389.125000 504.115385 400.583333 504.115385 412.041667 504.115385 423.500000 504.115385 434.958333 504.115385 446.416667 504.115385 457.875000 504.115385 469.333333 504.115385 480.791667 504.115385 492.250000 504.115385 503.708333 504.115385 515.166667 504.115385 526.625000 504.115385 538.083333 504.115385 549.541667 504.115385 561.000000 504.115385"/></g><g class="series serie-29 color-13"><path class="line reactive nofill" d="M11.000000 504.115385 L22.458333 504.115385 33.916667 504.115385 45.375000 501.619270 56.833333 496.627040 68.291667 494.130925 79.750000 494.130925 91.208333 491.634810 102.666667 484.146465 114.125000 484.146465 125.583333 479.154235 137.041667 479.154235 148.500000 479.154235 159.958333 479.154235 171.416667 479.154235 182.875000 471.665890 194.333333 464.177545 205.791667 459.185315 217.250000 454.193085 228.708333 449.200855 240.166667 444.208625 251.625000 444.208625 263.083333 444.208625 274.541667 441.712510 286.000000 439.216395 297.458333 436.720280 308.916667 436.720280 320.375000 434.224165 331.833333 426.735820 343.291667 426.735820 354.750000 426.735820 366.208333 426.735820 377.666667 426.735820 389.125000 424.239705 400.583333 421.743590 412.041667 421.743590 423.500000 421.743590 434.958333 421.743590 446.416667 421.743590 457.875000 421.743590 469.333333 421.743590 480.791667 421.743590 492.250000 421.743590 503.708333 421.743590 515.166667 421.743590 526.625000 421.743590 538.083333 421.743590 549.541667 421.743590 561.000000 421.743590"/></g><g class="series serie-30 color-14"><path class="line reactive nofill" d="M11.000000 504.115385 L22.458333 504.115385 33.916667 504.115385 45.375000 501.619270 56.833333 499.123155 68.291667 496.627040 79.750000 489.138695 91.208333 489.138695 102.666667 489.138695 114.125000 486.642580 125.583333 486.642580 137.041667 486.642580 148.500000 484.146465 159.958333 484.146465 171.416667 481.650350 182.875000 481.650350 194.333333 481.650350 205.791667 481.650350 217.250000 481.650350 228.708333 481.650350 240.166667 481.650350 251.625000 481.650350 263.083333 476.658120 274.541667 476.658120 286.000000 474.162005 297.458333 474.162005 308.916667 474.162005 320.375000 471.665890 331.833333 471.665890 343.291667 471.665890 354.750000 471.665890 366.208333 471.665890 377.666667 471.665890 389.125000 469.169775 400.583333 469.169775 412.041667 469.169775 423.500000 464.177545 434.958333 461.681430 446.416667 459.185315 457.875000 456.689200 469.333333 456.689200 480.791667 451.696970 492.250000 449.200855 503.708333 439.216395 515.166667 436.720280 526.625000 436.720280 538.083333 431.728050 549.541667 411.759130 561.000000 409.263015"/></g><g class="series serie-31 color-15"><path class="line reactive nofill" d="M11.000000 504.115385 L22.458333 504.115385 33.916667 504.115385 45.375000 499.123155 56.833333 491.634810 68.291667 491.634810 79.750000 489.138695 91.208333 484.146465 102.666667 484.146465 114.125000 484.146465 125.583333 481.650350 137.041667 479.154235 148.500000 476.658120 159.958333 476.658120 171.416667 476.658120 182.875000 459.185315 194.333333 444.208625 205.791667 436.720280 217.250000 431.728050 228.708333 431.728050 240.166667 431.728050 251.625000 424.239705 263.083333 421.743590 274.541667 421.743590 286.000000 421.743590 297.458333 416.751360 308.916667 414.255245 320.375000 414.255245 331.833333 414.255245 343.291667 409.263015 354.750000 406.766900 366.208333 406.766900 377.666667 406.766900 389.125000 391.790210 400.583333 391.790210 412.041667 361.836830 423.500000 336.875680 434.958333 334.379565 446.416667 314.410645 457.875000 301.930070 469.333333 291.945610 480.791667 289.449495 492.250000 289.449495 503.708333 289.449495 515.166667 286.953380 526.625000 274.472805 538.083333 254.503885 549.541667 249.511655 561.000000 217.062160"/></g></g><g class="titles"><text class="title plot_title" x="400.0" y="26">Submissions (by Team)</text></g><g class="plot overlay" transform="translate(208, 46)"><g class="series serie-12 color-12"><g class="dots"><circle class="dot reactive tooltip-trigger" cx="11.0" cy="504.115384615" r="2.5"/><desc class="value">0</desc><desc class="x top">11.0</desc><desc class="y top">504.115384615</desc></g><g class="dots"><circle class="dot reactive tooltip-trigger" cx="22.4583333333" cy="504.115384615" r="2.5"/><desc class="value">0</desc><desc class="x top">22.4583333333</desc><desc class="y top">504.115384615</desc></g><g class="dots"><circle class="dot reactive tooltip-trigger" cx="33.9166666667" cy="504.115384615" r="2.5"/><desc class="value">0</desc><desc class="x top">33.9166666667</desc><desc class="y top">504.115384615</desc></g><g class="dots"><circle class="dot reactive tooltip-trigger" cx="45.375" cy="501.619269619" r="2.5"/><desc class="value">1</desc><desc class="x top">45.375</desc><desc class="y top">501.619269619</desc></g><g class="dots"><circle class="dot reactive tooltip-trigger" cx="56.8333333333" cy="491.634809635" r="2.5"/><desc class="value">5</desc><desc class="x top">56.8333333333</desc><desc class="y top">491.634809635</desc></g><g class="dots"><circle class="dot reactive tooltip-trigger" cx="68.2916666667" cy="469.16977467" r="2.5"/><desc class="value">14</desc><desc class="x top">68.2916666667</desc><desc class="y top">469.16977467</desc></g><g class="dots"><circle class="dot reactive tooltip-trigger" cx="79.75" cy="469.16977467" r="2.5"/><desc class="value">14</desc><desc class="x top">79.75</desc><desc class="y top">469.16977467</desc></g><g class="dots"><circle class="dot reactive tooltip-trigger" cx="91.2083333333" cy="451.696969697" r="2.5"/><desc class="value">21</desc><desc class="x top">91.2083333333</desc><desc class="y top">451.696969697</desc></g><g class="dots"><circle class="dot reactive tooltip-trigger" cx="102.666666667" cy="444.208624709" r="2.5"/><desc class="value">24</desc><desc class="x top">102.666666667</desc><desc class="y top">444.208624709</desc></g><g class="dots"><circle class="dot reactive tooltip-trigger" cx="114.125" cy="411.759129759" r="2.5"/><desc class="value">37</desc><desc class="x top">114.125</desc><desc class="y top">411.759129759</desc></g><g class="dots"><circle class="dot reactive tooltip-trigger" cx="125.583333333" cy="409.263014763" r="2.5"/><desc class="value">38</desc><desc class="x top">125.583333333</desc><desc class="y top">409.263014763</desc></g><g class="dots"><circle class="dot reactive tooltip-trigger" cx="137.041666667" cy="406.766899767" r="2.5"/><desc class="value">39</desc><desc class="x top">137.041666667</desc><desc class="y top">406.766899767</desc></g><g class="dots"><circle class="dot reactive tooltip-trigger" cx="148.5" cy="406.766899767" r="2.5"/><desc class="value">39</desc><desc class="x top">148.5</desc><desc class="y top">406.766899767</desc></g><g class="dots"><circle class="dot reactive tooltip-trigger" cx="159.958333333" cy="406.766899767" r="2.5"/><desc class="value">39</desc><desc class="x top">159.958333333</desc><desc class="y top">406.766899767</desc></g><g class="dots"><circle class="dot reactive tooltip-trigger" cx="171.416666667" cy="399.278554779" r="2.5"/><desc class="value">42</desc><desc class="x top">171.416666667</desc><desc class="y top">399.278554779</desc></g><g class="dots"><circle class="dot reactive tooltip-trigger" cx="182.875" cy="381.805749806" r="2.5"/><desc class="value">49</desc><desc class="x top">182.875</desc><desc class="y top">381.805749806</desc></g><g class="dots"><circle class="dot reactive tooltip-trigger" cx="194.333333333" cy="374.317404817" r="2.5"/><desc class="value">52</desc><desc class="x top">194.333333333</desc><desc class="y top">374.317404817</desc></g><g class="dots"><circle class="dot reactive tooltip-trigger" cx="205.791666667" cy="371.821289821" r="2.5"/><desc class="value">53</desc><desc class="x top">205.791666667</desc><desc class="y top">371.821289821</desc></g><g class="dots"><circle class="dot reactive tooltip-trigger" cx="217.25" cy="371.821289821" r="2.5"/><desc class="value">53</desc><desc class="x top">217.25</desc><desc class="y top">371.821289821</desc></g><g class="dots"><circle class="dot reactive tooltip-trigger" cx="228.708333333" cy="369.325174825" r="2.5"/><desc class="value">54</desc><desc class="x top">228.708333333</desc><desc class="y top">369.325174825</desc></g><g class="dots"><circle class="dot reactive tooltip-trigger" cx="240.166666667" cy="359.340714841" r="2.5"/><desc class="value">58</desc><desc class="x top">240.166666667</desc><desc class="y top">359.340714841</desc></g><g class="dots"><circle class="dot reactive tooltip-trigger" cx="251.625" cy="336.875679876" r="2.5"/><desc class="value">67</desc><desc class="x top">251.625</desc><desc class="y top">336.875679876</desc></g><g class="dots"><circle class="dot reactive tooltip-trigger" cx="263.083333333" cy="329.387334887" r="2.5"/><desc class="value">70</desc><desc class="x top">263.083333333</desc><desc class="y top">329.387334887</desc></g><g class="dots"><circle class="dot reactive tooltip-trigger" cx="274.541666667" cy="311.914529915" r="2.5"/><desc class="value">77</desc><desc class="x top">274.541666667</desc><desc class="y top">311.914529915</desc></g><g class="dots"><circle class="dot reactive tooltip-trigger" cx="286.0" cy="304.426184926" r="2.5"/><desc class="value">80</desc><desc class="x top">286.0</desc><desc class="y top">304.426184926</desc></g><g class="dots"><circle class="dot reactive tooltip-trigger" cx="297.458333333" cy="301.93006993" r="2.5"/><desc class="value">81</desc><desc class="x left top">297.458333333</desc><desc class="y left top">301.93006993</desc></g><g class="dots"><circle class="dot reactive tooltip-trigger" cx="308.916666667" cy="294.441724942" r="2.5"/><desc class="value">84</desc><desc class="x left top">308.916666667</desc><desc class="y left top">294.441724942</desc></g><g class="dots"><circle class="dot reactive tooltip-trigger" cx="320.375" cy="279.465034965" r="2.5"/><desc class="value">90</desc><desc class="x left top">320.375</desc><desc class="y left top">279.465034965</desc></g><g class="dots"><circle class="dot reactive tooltip-trigger" cx="331.833333333" cy="257.0" r="2.5"/><desc class="value">99</desc><desc class="x left top">331.833333333</desc><desc class="y left top">257.0</desc></g><g class="dots"><circle class="dot reactive tooltip-trigger" cx="343.291666667" cy="224.550505051" r="2.5"/><desc class="value">112</desc><desc class="x left">343.291666667</desc><desc class="y left">224.550505051</desc></g><g class="dots"><circle class="dot reactive tooltip-trigger" cx="354.75" cy="204.581585082" r="2.5"/><desc class="value">120</desc><desc class="x left">354.75</desc><desc class="y left">204.581585082</desc></g><g class="dots"><circle class="dot reactive tooltip-trigger" cx="366.208333333" cy="189.604895105" r="2.5"/><desc class="value">126</desc><desc class="x left">366.208333333</desc><desc class="y left">189.604895105</desc></g><g class="dots"><circle class="dot reactive tooltip-trigger" cx="377.666666667" cy="154.659285159" r="2.5"/><desc class="value">140</desc><desc class="x left">377.666666667</desc><desc class="y left">154.659285159</desc></g><g class="dots"><circle class="dot reactive tooltip-trigger" cx="389.125" cy="132.194250194" r="2.5"/><desc class="value">149</desc><desc class="x left">389.125</desc><desc class="y left">132.194250194</desc></g><g class="dots"><circle class="dot reactive tooltip-trigger" cx="400.583333333" cy="122.20979021" r="2.5"/><desc class="value">153</desc><desc class="x left">400.583333333</desc><desc class="y left">122.20979021</desc></g><g class="dots"><circle class="dot reactive tooltip-trigger" cx="412.041666667" cy="122.20979021" r="2.5"/><desc class="value">153</desc><desc class="x left">412.041666667</desc><desc class="y left">122.20979021</desc></g><g class="dots"><circle class="dot reactive tooltip-trigger" cx="423.5" cy="114.721445221" r="2.5"/><desc class="value">156</desc><desc class="x left">423.5</desc><desc class="y left">114.721445221</desc></g><g class="dots"><circle class="dot reactive tooltip-trigger" cx="434.958333333" cy="114.721445221" r="2.5"/><desc class="value">156</desc><desc class="x left">434.958333333</desc><desc class="y left">114.721445221</desc></g><g class="dots"><circle class="dot reactive tooltip-trigger" cx="446.416666667" cy="114.721445221" r="2.5"/><desc class="value">156</desc><desc class="x left">446.416666667</desc><desc class="y left">114.721445221</desc></g><g class="dots"><circle class="dot reactive tooltip-trigger" cx="457.875" cy="107.233100233" r="2.5"/><desc class="value">159</desc><desc class="x left">457.875</desc><desc class="y left">107.233100233</desc></g><g class="dots"><circle class="dot reactive tooltip-trigger" cx="469.333333333" cy="87.2641802642" r="2.5"/><desc class="value">167</desc><desc class="x left">469.333333333</desc><desc class="y left">87.2641802642</desc></g><g class="dots"><circle class="dot reactive tooltip-trigger" cx="480.791666667" cy="77.2797202797" r="2.5"/><desc class="value">171</desc><desc class="x left">480.791666667</desc><desc class="y left">77.2797202797</desc></g><g class="dots"><circle class="dot reactive tooltip-trigger" cx="492.25" cy="72.2874902875" r="2.5"/><desc class="value">173</desc><desc class="x left">492.25</desc><desc class="y left">72.2874902875</desc></g><g class="dots"><circle class="dot reactive tooltip-trigger" cx="503.708333333" cy="62.303030303" r="2.5"/><desc class="value">177</desc><desc class="x left">503.708333333</desc><desc class="y left">62.303030303</desc></g><g class="dots"><circle class="dot reactive tooltip-trigger" cx="515.166666667" cy="54.8146853147" r="2.5"/><desc class="value">180</desc><desc class="x left">515.166666667</desc><desc class="y left">54.8146853147</desc></g><g class="dots"><circle class="dot reactive tooltip-trigger" cx="526.625" cy="47.3263403263" r="2.5"/><desc class="value">183</desc><desc class="x left">526.625</desc><desc class="y left">47.3263403263</desc></g><g class="dots"><circle class="dot reactive tooltip-trigger" cx="538.083333333" cy="44.8302253302" r="2.5"/><desc class="value">184</desc><desc class="x left">538.083333333</desc><desc class="y left">44.8302253302</desc></g><g class="dots"><circle class="dot reactive tooltip-trigger" cx="549.541666667" cy="24.8613053613" r="2.5"/><desc class="value">192</desc><desc class="x left">549.541666667</desc><desc class="y left">24.8613053613</desc></g><g class="dots"><circle class="dot reactive tooltip-trigger" cx="561.0" cy="9.88461538462" r="2.5"/><desc class="value">198</desc><desc class="x left">561.0</desc><desc class="y left">9.88461538462</desc></g></g></g><g class="plot text-overlay" transform="translate(208, 46)"><g class="series serie-0 color-0" style="display: none;"/><g class="series serie-1 color-1" style="display: none;"/><g class="series serie-2 color-2" style="display: none;"/><g class="series serie-3 color-3" style="display: none;"/><g class="series serie-4 color-4" style="display: none;"/><g class="series serie-5 color-5" style="display: none;"/><g class="series serie-6 color-6" style="display: none;"/><g class="series serie-7 color-7" style="display: none;"/><g class="series serie-8 color-8" style="display: none;"/><g class="series serie-9 color-9" style="display: none;"/><g class="series serie-10 color-10" style="display: none;"/><g class="series serie-11 color-11" style="display: none;"/><g class="series serie-12 color-12" style="display: none;"/><g class="series serie-13 color-13" style="display: none;"/><g class="series serie-14 color-14" style="display: none;"/><g class="series serie-15 color-15" style="display: none;"/><g class="series serie-16 color-0" style="display: none;"/><g class="series serie-17 color-1" style="display: none;"/><g class="series serie-18 color-2" style="display: none;"/><g class="series serie-19 color-3" style="display: none;"/><g class="series serie-20 color-4" style="display: none;"/><g class="series serie-21 color-5" style="display: none;"/><g class="series serie-22 color-6" style="display: none;"/><g class="series serie-23 color-7" style="display: none;"/><g class="series serie-24 color-8" style="display: none;"/><g class="series serie-25 color-9" style="display: none;"/><g class="series serie-26 color-10" style="display: none;"/><g class="series serie-27 color-11" style="display: none;"/><g class="series serie-28 color-12" style="display: none;"/><g class="series serie-29 color-13" style="display: none;"/><g class="series serie-30 color-14" style="display: none;"/><g class="series serie-31 color-15" style="display: none;"/></g><g class="plot tooltip-overlay" transform="translate(208, 46)"><g class="tooltip" style="opacity: 0" transform="translate(0 0)"><a><rect class="tooltip-box" height="0" rx="0" ry="0" width="0"/><text class="text"><tspan class="label"/><tspan class="value"/></text></a></g></g><g class="legends" transform="translate(10, 56)"><g class="legend reactive activate-serie" id="activate-serie-0"><rect class="color-0 reactive" height="12" width="12" x="0.0" y="1.0"/><text x="17.0" y="11.2">(&gt;^.^)&gt;</text></g><g class="legend reactive activate-serie" id="activate-serie-1"><rect class="color-1 reactive" height="12" width="12" x="0.0" y="22.0"/><text x="17.0" y="32.2">Ansatz</text></g><g class="legend reactive activate-serie" id="activate-serie-2"><rect class="color-2 reactive" height="12" width="12" x="0.0" y="43.0"/><text x="17.0" y="53.2">Black Fedora G…</text><title>Black Fedora Group</title></g><g class="legend reactive activate-serie" id="activate-serie-3"><rect class="color-3 reactive" height="12" width="12" x="0.0" y="64.0"/><text x="17.0" y="74.2">Caramels Sr.</text></g><g class="legend reactive activate-serie" id="activate-serie-4"><rect class="color-4 reactive" height="12" width="12" x="0.0" y="85.0"/><text x="17.0" y="95.2">Chicken N ROFLs</text></g><g class="legend reactive activate-serie" id="activate-serie-5"><rect class="color-5 reactive" height="12" width="12" x="0.0" y="106.0"/><text x="17.0" y="116.2">chuchumbas</text></g><g class="legend reactive activate-serie" id="activate-serie-6"><rect class="color-6 reactive" height="12" width="12" x="0.0" y="127.0"/><text x="17.0" y="137.2">Conduction Band</text></g><g class="legend reactive activate-serie" id="activate-serie-7"><rect class="color-7 reactive" height="12" width="12" x="0.0" y="148.0"/><text x="17.0" y="158.2">DoodleBug</text></g><g class="legend reactive activate-serie" id="activate-serie-8"><rect class="color-8 reactive" height="12" width="12" x="0.0" y="169.0"/><text x="17.0" y="179.2">Faster-Than-Yo…</text><title>Faster-Than-Your-Mom Neutrinos</title></g><g class="legend reactive activate-serie" id="activate-serie-9"><rect class="color-9 reactive" height="12" width="12" x="0.0" y="190.0"/><text x="17.0" y="200.2">Herp de Derp</text></g><g class="legend reactive activate-serie" id="activate-serie-10"><rect class="color-10 reactive" height="12" width="12" x="0.0" y="211.0"/><text x="17.0" y="221.2">jĵj|j|I¡j¡ijiI…</text><title>jĵj|j|I¡j¡ijiII|I¡¡II|IłɩIjiiƪi¡¡¡II|IjIIǁIII|!!!¡!</title></g><g class="legend reactive activate-serie" id="activate-serie-11"><rect class="color-11 reactive" height="12" width="12" x="0.0" y="232.0"/><text x="17.0" y="242.2">Karmarama 2000</text></g><g class="legend reactive activate-serie" id="activate-serie-12"><rect class="color-12 reactive" height="12" width="12" x="0.0" y="253.0"/><text x="17.0" y="263.2">kernel panic</text></g><g class="legend reactive activate-serie" id="activate-serie-13"><rect class="color-13 reactive" height="12" width="12" x="0.0" y="274.0"/><text x="17.0" y="284.2">Lambdas</text></g><g class="legend reactive activate-serie" id="activate-serie-14"><rect class="color-14 reactive" height="12" width="12" x="0.0" y="295.0"/><text x="17.0" y="305.2">mangoeaters</text></g><g class="legend reactive activate-serie" id="activate-serie-15"><rect class="color-15 reactive" height="12" width="12" x="0.0" y="316.0"/><text x="17.0" y="326.2">Not a Name (Na…</text><title>Not a Name (NaN)</title></g><g class="legend reactive activate-serie" id="activate-serie-16"><rect class="color-0 reactive" height="12" width="12" x="0.0" y="337.0"/><text x="17.0" y="347.2">Nudist Beach</text></g><g class="legend reactive activate-serie" id="activate-serie-17"><rect class="color-1 reactive" height="12" width="12" x="0.0" y="358.0"/><text x="17.0" y="368.2">Purple Mollusk</text></g><g class="legend reactive activate-serie" id="activate-serie-18"><rect class="color-2 reactive" height="12" width="12" x="0.0" y="379.0"/><text x="17.0" y="389.2">Puzzlin' Wugs</text></g><g class="legend reactive activate-serie" id="activate-serie-19"><rect class="color-3 reactive" height="12" width="12" x="0.0" y="400.0"/><text x="17.0" y="410.2">QBRNKNBR</text></g><g class="legend reactive activate-serie" id="activate-serie-20"><rect class="color-4 reactive" height="12" width="12" x="0.0" y="421.0"/><text x="17.0" y="431.2">Repuzzlization…</text><title>Repuzzlization Group</title></g><g class="legend reactive activate-serie" id="activate-serie-21"><rect class="color-5 reactive" height="12" width="12" x="0.0" y="442.0"/><text x="17.0" y="452.2">Swaggin' Drago…</text><title>Swaggin' Dragons</title></g><g class="legend reactive activate-serie" id="activate-serie-22"><rect class="color-6 reactive" height="12" width="12" x="0.0" y="463.0"/><text x="17.0" y="473.2">Swingin' and S…</text><title>Swingin' and Solvin'</title></g><g class="legend reactive activate-serie" id="activate-serie-23"><rect class="color-7 reactive" height="12" width="12" x="0.0" y="484.0"/><text x="17.0" y="494.2">Team Kevin</text></g><g class="legend reactive activate-serie" id="activate-serie-24"><rect class="color-8 reactive" height="12" width="12" x="0.0" y="505.0"/><text x="17.0" y="515.2">Team Surfbort</text></g><g class="legend reactive activate-serie" id="activate-serie-25"><rect class="color-9 reactive" height="12" width="12" x="0.0" y="526.0"/><text x="17.0" y="536.2">Team Team Inve…</text><title>Team Team Inverse - It's Our Identity</title></g><g class="legend reactive activate-serie" id="activate-serie-26"><rect class="color-10 reactive" height="12" width="12" x="0.0" y="547.0"/><text x="17.0" y="557.2">The Hateful K8</text></g><g class="legend reactive activate-serie" id="activate-serie-27"><rect class="color-11 reactive" height="12" width="12" x="0.0" y="568.0"/><text x="17.0" y="578.2">The Pork Belly…</text><title>The Pork Belly Futurists</title></g><g class="legend reactive activate-serie" id="activate-serie-28"><rect class="color-12 reactive" height="12" width="12" x="0.0" y="589.0"/><text x="17.0" y="599.2">The Regents</text></g><g class="legend reactive activate-serie" id="activate-serie-29"><rect class="color-13 reactive" height="12" width="12" x="0.0" y="610.0"/><text x="17.0" y="620.2">Ubermensch</text></g><g class="legend reactive activate-serie" id="activate-serie-30"><rect class="color-14 reactive" height="12" width="12" x="0.0" y="631.0"/><text x="17.0" y="641.2">Ursari Plumbers</text></g><g class="legend reactive activate-serie" id="activate-serie-31"><rect class="color-15 reactive" height="12" width="12" x="0.0" y="652.0"/><text x="17.0" y="662.2">ΒΨΟΒ</text></g></g><g class="legends" transform="translate(790, 56)"/></g></svg>